<svg xmlns="http://www.w3.org/2000/svg" width="109" height="109" viewBox="0 0 109 109"><g transform="translate(-392 -3872)"><rect width="109" height="109" transform="translate(392 3872)" fill="none"/><g transform="translate(403.444 3881.959)"><path d="M12.1,409.992a4.1,4.1,0,0,0,0,8.2,4.1,4.1,0,0,0,0,8.195H52.763v-16.39Zm0,0" transform="translate(-6.699 -338.889)" fill="#ff938a"/><path d="M130.1,426.382h21.877v-16.39H128.028a68.984,68.984,0,0,0,2.071,16.39Zm0,0" transform="translate(-105.911 -338.889)" fill="#fb695b"/><path d="M48.665,315.484a4.1,4.1,0,1,1,0,8.2,4.1,4.1,0,1,1,0,8.2H16.2a8.2,8.2,0,0,1,0-16.39Zm0,0" transform="translate(-6.699 -260.771)" fill="#ffd4a3"/><path d="M151.849,327.776a4.1,4.1,0,0,0-4.1-4.1,4.1,4.1,0,1,0,0-8.2H128.6a138.392,138.392,0,0,0-.7,16.39h19.85A4.1,4.1,0,0,0,151.849,327.776Zm0,0" transform="translate(-105.785 -260.771)" fill="#ffbe73"/><path d="M223.47,112.914H202.945a49.99,49.99,0,0,0-15.728,39.769c.468,8.141.8,13.951,1.048,18.089a10.677,10.677,0,0,0,10.661,10.053h28.564a10.678,10.678,0,0,0,10.662-10.053c.243-4.138.58-9.948,1.047-18.089a49.987,49.987,0,0,0-15.728-39.769Zm1.091,35.453a24.951,24.951,0,0,1-7.509-8.245,5.412,5.412,0,0,1,.174-5.621l3.666-5.648a3.159,3.159,0,0,1,5.471.3,37.064,37.064,0,0,1,3.967,16.1,3.691,3.691,0,0,1-5.77,3.113Zm0,0" transform="translate(-154.762 -93.332)" fill="#c2eafb"/><path d="M234.512,124.8c10.036.156,16.256-3.445,19.417-6.037a38.658,38.658,0,0,0-5.371-5.85H228.034a46.588,46.588,0,0,0-10.553,14.165,52.912,52.912,0,0,1,17.032-2.278Zm0,0" transform="translate(-179.851 -93.332)" fill="#91d4f2"/><path d="M299.915,23.949H279.39V12.136A4.636,4.636,0,0,1,284.026,7.5H295.28a4.636,4.636,0,0,1,4.636,4.636V23.949Zm0,0" transform="translate(-231.024 -6.2)" fill="#fb695b"/><path d="M280.942,88.538H259.62a3.666,3.666,0,1,1,0-7.331h21.322a3.666,3.666,0,1,1,0,7.331Zm0,0" transform="translate(-211.651 -67.123)" fill="#ff938a"/><path d="M243.223,220.6a6.8,6.8,0,0,0-6.66,5.457,70.725,70.725,0,0,0-1.379,13.957c0,5.042.267,9.444.567,12.8A7.572,7.572,0,0,0,243.3,259.7h14.4a7.576,7.576,0,0,0,7.576-7.577V248.01a5.045,5.045,0,0,0-2.653-4.433c-4.18-2.262-11.67-7.644-12.619-16.63-.669-6.345-6.777-6.345-6.777-6.345Zm0,0" transform="translate(-194.484 -182.344)" fill="#2eddda"/><path d="M257.038,236.233c-9.854-5.333-11.636-12.7-11.944-15.623a8.093,8.093,0,0,0-16.006-1.009,72.544,72.544,0,0,0-1.405,14.215c0,4.325.192,8.67.572,12.915A8.825,8.825,0,0,0,237.1,254.8h14.4a8.887,8.887,0,0,0,8.877-8.878V241.81A6.341,6.341,0,0,0,257.038,236.233Zm.733,9.692A6.283,6.283,0,0,1,251.5,252.2H237.1a6.237,6.237,0,0,1-6.25-5.7c-.373-4.168-.562-8.436-.562-12.683a69.912,69.912,0,0,1,1.353-13.7,5.493,5.493,0,0,1,10.87.766c1.056,10,9.648,15.665,13.293,17.638a3.743,3.743,0,0,1,1.972,3.289v4.115Zm0,0" transform="translate(-188.284 -176.144)"/><path d="M364.684,208.15a38.522,38.522,0,0,0-4.107-16.664,4.46,4.46,0,0,0-7.723-.425l-3.666,5.649a6.687,6.687,0,0,0-.214,6.972,26.289,26.289,0,0,0,7.906,8.677,5.293,5.293,0,0,0,5.178.272A4.919,4.919,0,0,0,364.684,208.15Zm-3.859,2.189a2.351,2.351,0,0,1-2.478-.13,23.68,23.68,0,0,1-7.111-7.814,4.094,4.094,0,0,1,.134-4.269l3.666-5.649a1.808,1.808,0,0,1,3.219.182,37.2,37.2,0,0,1,3.828,15.532,2.359,2.359,0,0,1-1.259,2.148Zm0,0" transform="translate(-287.815 -156.248)"/><path d="M73.015,21.522a4.961,4.961,0,0,0-2.322-8.655V5.937A5.943,5.943,0,0,0,64.757,0H53.5a5.943,5.943,0,0,0-5.936,5.936v6.93a4.962,4.962,0,0,0-2.523,8.474A51.871,51.871,0,0,0,31.657,59.426q.064,1.12.125,2.181H12.745a1.3,1.3,0,0,0,0,2.6H31.932c.117,2.035.224,3.895.323,5.594H10a6.894,6.894,0,0,1,0-13.789H26.974a1.3,1.3,0,0,0,0-2.6H10A9.49,9.49,0,0,0,3.905,70.185,5.394,5.394,0,0,0,2.388,79.3a5.4,5.4,0,0,0,3.511,9.5h67.33a11.99,11.99,0,0,0,11.96-11.277l.119-2.018a1.3,1.3,0,0,0-2.6-.152l-.118,2.018a9.387,9.387,0,0,1-9.363,8.828H44.664A9.387,9.387,0,0,1,35.3,77.365c-.1-1.73-.788-13.559-1.048-18.088A49.238,49.238,0,0,1,47.422,22.6c.337.072,22.863.093,23.1.057A49.07,49.07,0,0,1,83.638,59.277c-.229,3.989-.427,7.418-.6,10.366a1.248,1.248,0,0,0,1.3,1.376,1.323,1.323,0,0,0,1.3-1.225c.171-2.948.369-6.377.6-10.367a51.705,51.705,0,0,0-13.22-37.9Zm-35.8,64.671H5.9a2.8,2.8,0,0,1,0-5.594,1.3,1.3,0,0,0,0-2.6,2.8,2.8,0,0,1,0-5.594H32.407c.112,1.937.322,5.434.338,5.594h-20a1.3,1.3,0,0,0,0,2.6H33.3a12,12,0,0,0,3.92,5.594ZM53.5,2.6H64.757a3.338,3.338,0,0,1,3.334,3.335v6.846H50.168V5.937A3.338,3.338,0,0,1,53.5,2.6ZM48.469,20.114a2.365,2.365,0,1,1,0-4.73H69.791a2.365,2.365,0,0,1,0,4.73Zm0,0" transform="translate(-0.5 0)"/></g></g></svg>