<svg xmlns="http://www.w3.org/2000/svg" width="320.454" height="275.574" viewBox="0 0 320.454 275.574"><g transform="translate(170.96 -661.35)"><g transform="translate(-128.291 661.349)" opacity="0.67"><path d="M4.627,661.7c-20.814,2.412-38.353,16.583-46.78,35.242-11.2,24.789-7.228,55.243-16.436,80.983a77.24,77.24,0,0,1-36.341,42.13c-8.185,4.338-17.356,7.348-24.064,13.64-5.939,5.573-9.488,13.4-11.049,21.622-4.595,24.2,9.09,52.347,31.76,65.312,12.14,6.942,26,9.648,39.449,10.1,27.783.932,54.924-7.548,75.969-23.731,11.745-9.033,21.548-20.31,30.233-32.328,18.928-26.188,32.926-56.638,37-89.72,4.871-39.6-3.385-91.935-43.289-115.187C29.9,663.249,16.826,660.282,4.627,661.7Z" transform="translate(157.229 -661.35)" fill="#fff"/><path d="M-133.148,780.006c-1.137-2.6-2.9-5.582-5.656-5.872a4.826,4.826,0,0,0-2.889.7c-4.135,2.376-4.824,8.072-4.387,13.049a54.376,54.376,0,0,0,3.05,13.726,20.932,20.932,0,0,0,3.408,6.449,9.291,9.291,0,0,0,6.2,3.513C-117.539,812.6-130,787.214-133.148,780.006Z" transform="translate(146.194 -579.833)" fill="#fff"/></g><g transform="translate(-43.354 799.239)"><g transform="translate(0 59.595)"><path d="M-55.666,853.846c-5.577,0-14.922-.9-19.751-6.437-2.893-3.315-3.768-7.829-2.6-13.414,1.632-7.8-1.187-10.086-5.089-13.244-1.094-.885-2.226-1.8-3.372-2.927-5.51-5.4-4.716-8.193-3.129-13.754.708-2.491-.415-3.3-2.116-4.523a10.342,10.342,0,0,1-4.94-7.534,13.953,13.953,0,0,1,2.855-11.549,13.517,13.517,0,0,1,10.541-4.492h.088c6.509.031,7.681,4.779,8.623,8.592a11.776,11.776,0,0,0,1.792,4.64,6.587,6.587,0,0,0,3.685,1.949c2.384.655,5.091,1.4,7.079,6.835a23.4,23.4,0,0,1,1.222,9.118c-.062,3.356-.1,5.574,3.074,7.345a19.881,19.881,0,0,1,3.361,2.452l-.522.593a19.031,19.031,0,0,0-3.225-2.352c-3.592-2-3.541-4.671-3.479-8.051a22.427,22.427,0,0,0-1.173-8.832c-1.85-5.055-4.237-5.71-6.547-6.344a7.316,7.316,0,0,1-4.078-2.2c-1.032-1.215-1.482-3.036-1.957-4.964-.967-3.914-1.966-7.962-7.858-7.991h-.084a12.739,12.739,0,0,0-9.939,4.216,13.164,13.164,0,0,0-2.674,10.9,9.65,9.65,0,0,0,4.621,7.023c1.757,1.265,3.273,2.355,2.412,5.382-1.545,5.425-2.25,7.9,2.922,12.972,1.12,1.1,2.236,2,3.318,2.877,3.964,3.21,7.095,5.746,5.365,14.019-1.113,5.331-.3,9.614,2.422,12.734,5.827,6.678,18.7,6.318,22.508,6.052l.055.789C-53.054,853.787-54.236,853.846-55.666,853.846Z" transform="translate(96.895 -775.973)" fill="#124c64"/><g transform="translate(10.806 17.936)"><g transform="translate(3.368)"><path d="M-68.093,823.01q-6.81-13.85-14.384-27.3-2.564-4.561-5.212-9.073a.523.523,0,0,0-.9.529q8.492,14.485,16.13,29.45,1.757,3.447,3.465,6.923c.3.6,1.2.076.9-.527Z" transform="translate(88.668 -786.384)" fill="#124c64"/></g><g transform="translate(0 16.355)"><path d="M-90.123,796.927l11.705,1.213,1.685.176c.668.069.665-.979,0-1.048l-11.705-1.213-1.685-.176c-.668-.069-.663.979,0,1.048Z" transform="translate(90.623 -795.876)" fill="#124c64"/></g></g><g transform="translate(11.54 6.314)"><g transform="translate(0 20.099)"><path d="M-87.776,795.606a2.3,2.3,0,0,1-2.421-2.152,2.3,2.3,0,0,1,2.421-2.15,2.3,2.3,0,0,1,2.419,2.15A2.3,2.3,0,0,1-87.776,795.606Zm0-3.51a1.514,1.514,0,0,0-1.63,1.358,1.516,1.516,0,0,0,1.63,1.359,1.514,1.514,0,0,0,1.628-1.359A1.513,1.513,0,0,0-87.776,792.1Z" transform="translate(90.197 -791.304)" fill="#124c64"/></g><g transform="translate(4.781 3.045)"><path d="M-85,786.246a2.407,2.407,0,0,1-1.206-.322,2.411,2.411,0,0,1-1.127-1.47,2.394,2.394,0,0,1,.241-1.837,2.406,2.406,0,0,1,1.47-1.129,2.4,2.4,0,0,1,1.835.241,2.425,2.425,0,0,1,.887,3.308h0A2.421,2.421,0,0,1-85,786.246ZM-85,782.2a1.64,1.64,0,0,0-.426.057,1.616,1.616,0,0,0-.987.76,1.61,1.61,0,0,0-.164,1.234,1.619,1.619,0,0,0,.758.991,1.631,1.631,0,0,0,2.226-.6h0a1.633,1.633,0,0,0-.6-2.226A1.621,1.621,0,0,0-85,782.2Z" transform="translate(87.422 -781.405)" fill="#124c64"/></g><g transform="translate(11.666 49.833)"><path d="M-80.507,813.726a2.768,2.768,0,0,1-2.919-2.581,2.769,2.769,0,0,1,2.919-2.583,2.77,2.77,0,0,1,2.919,2.583A2.769,2.769,0,0,1-80.507,813.726Zm0-4.373a1.984,1.984,0,0,0-2.128,1.792,1.982,1.982,0,0,0,2.128,1.789,1.98,1.98,0,0,0,2.126-1.789A1.983,1.983,0,0,0-80.507,809.353Z" transform="translate(83.426 -808.562)" fill="#124c64"/></g><g transform="translate(3.148)"><path d="M-87.074,782.228a1.3,1.3,0,0,1-1.3-1.294,1.3,1.3,0,0,1,1.3-1.3,1.3,1.3,0,0,1,1.3,1.3A1.3,1.3,0,0,1-87.074,782.228Zm0-1.8a.5.5,0,0,0-.5.5.5.5,0,0,0,.5.5.5.5,0,0,0,.5-.5A.5.5,0,0,0-87.074,780.429Z" transform="translate(88.37 -779.638)" fill="#124c64"/></g></g></g><g transform="translate(75.904 66.468)"><path d="M-36.506,850.737c-6.108,0-11.559-.62-13.366-1.909-2.565-1.828-3.666-7.753-2.505-13.489.844-4.166,4.209-14.171,17.212-17.076,7.724-1.725,8.392-5.021,9.317-9.583a38.574,38.574,0,0,1,.979-4.047c2.154-6.869,5.029-7.308,10.761-8.184,2.581-.394,2.931-2.267,3.415-4.86.5-2.7,1.13-6.058,4.778-8.483,4.373-2.9,9.262-3.875,13.073-2.583,3.284,1.111,5.754,3.833,7.143,7.874,2.119,6.158-1.435,9.914-4.29,12.932a14.108,14.108,0,0,0-2.767,3.542c-.572,1.34-.32,2.872-.029,4.647.5,3.03,1.118,6.8-2.82,10.72a13.656,13.656,0,0,1-8.229,3.794c-2.552.434-4.092.7-4.13,3.711-.083,6.869-3.07,18.146-9.216,20.535C-21.326,849.889-29.365,850.735-36.506,850.737ZM3.577,780.753a16.735,16.735,0,0,0-9.054,3.012c-3.37,2.241-3.939,5.284-4.44,7.97-.481,2.581-.936,5.021-4.071,5.5-5.577.851-8.12,1.24-10.129,7.641a38.239,38.239,0,0,0-.958,3.964c-.946,4.672-1.694,8.361-9.919,10.2-12.55,2.8-15.8,12.444-16.609,16.46-1.216,6,.191,11.261,2.19,12.687h0c3.7,2.634,24.593,2.216,31.944-.646,6.015-2.336,8.642-14.052,8.713-19.8.047-3.675,2.243-4.051,4.788-4.483a12.987,12.987,0,0,0,7.8-3.575c3.649-3.628,3.091-7.031,2.6-10.032-.3-1.816-.581-3.53.084-5.086a14.6,14.6,0,0,1,2.917-3.773c2.851-3.011,6.08-6.426,4.118-12.131-1.327-3.854-3.563-6.337-6.649-7.381A10.369,10.369,0,0,0,3.577,780.753Z" transform="translate(52.839 -779.962)" fill="#124c64"/><g transform="translate(9.086 18.479)"><path d="M-46.695,843.25c2.683-3.2,5.47-6.321,8.161-9.519Q-28.506,821.8-18.944,809.5-12,800.57-5.316,791.443c.4-.544-.51-1.066-.9-.529q-11.234,15.361-23.223,30.152-7.458,9.221-15.189,18.22c-.93,1.078-1.888,2.133-2.8,3.225-.429.512.307,1.256.741.739Z" transform="translate(47.565 -790.688)" fill="#124c64"/></g></g><g transform="translate(33.885)"><path d="M-29.664,878.829l-36.894-.632-.114-.11c-4.917-4.79-15.528-17.26-7.853-29.568,3.932-6.306,8.334-8.935,11.872-11.049,5.176-3.091,8.3-4.958,6.146-15.42l-.448-2.162c-3.491-16.793-5.413-26.045,12.3-33.486,13.215-5.551,12.856-10.792,12.4-17.427a33.847,33.847,0,0,1,.072-7.557,23.232,23.232,0,0,1,11.1-16.371,26.128,26.128,0,0,1,22.425-2.071c4.355,1.494,7.383,5.623,8.52,11.631,1.768,9.34-1.346,21.142-6.8,25.773-3.727,3.165-2.083,6.12.193,10.206,2.774,4.984,6.225,11.187,2.129,20.761-3.8,8.88-10.542,11.8-15.959,14.148-5.534,2.4-9.529,4.128-8.885,10.641.2,2.005.482,4.073.782,6.261.195,1.43.4,2.882.574,4.349l-.784.095c-.179-1.459-.377-2.908-.574-4.335-.3-2.2-.586-4.271-.787-6.292-.7-7.086,3.961-9.107,9.359-11.445,5.565-2.41,11.872-5.143,15.547-13.735,3.944-9.214.6-15.231-2.1-20.061-2.272-4.083-4.233-7.61-.014-11.194,5.262-4.473,8.253-15.932,6.531-25.025-.765-4.042-2.774-9.238-8-11.03a25.356,25.356,0,0,0-21.757,2A22.449,22.449,0,0,0-31.4,761.531a33.46,33.46,0,0,0-.065,7.389c.455,6.674.848,12.439-12.887,18.209-17.114,7.19-15.348,15.682-11.831,32.6l.448,2.164c2.266,11.013-1.416,13.213-6.516,16.259-3.465,2.071-7.775,4.645-11.607,10.789-7.314,11.729,2.8,23.738,7.624,28.474l36.579.627Z" transform="translate(77.228 -741.383)" fill="#124c64"/><g transform="translate(17.363 13.044)"><path d="M-66.2,872.329q2.238-5.169,4.492-10.329,5.543-12.72,11.126-25.423,7.117-16.2,14.319-32.354,6.975-15.633,14.1-31.2c3.346-7.262,6.678-14.548,10.346-21.655.281-.544.565-1.089.855-1.628.319-.594-.584-1.123-.9-.529-3.51,6.55-6.6,13.339-9.719,20.077-4.685,10.1-9.261,20.258-13.807,30.423q-7.29,16.294-14.472,32.637-5.882,13.364-11.717,26.748c-1.819,4.17-3.739,8.313-5.451,12.527-.024.059-.05.117-.076.174-.264.612.637,1.146.9.529Z" transform="translate(67.15 -748.954)" fill="#124c64"/><g transform="translate(9.06 44.474)"><g transform="translate(24.865)"><path d="M-46.955,777.177l21.562-1.192,3.068-.171c.67-.036.674-1.084,0-1.046q-10.782.6-21.562,1.192l-3.068.171c-.67.036-.674,1.084,0,1.046Z" transform="translate(47.458 -774.767)" fill="#124c64"/></g><g transform="translate(0 55.274)"><path d="M-61.391,810.086l17.039-1.918,2.386-.267c.662-.076.67-1.124,0-1.048l-17.039,1.918q-1.194.132-2.386.267c-.662.076-.67,1.123,0,1.047Z" transform="translate(61.891 -806.85)" fill="#124c64"/></g></g><g transform="translate(7.204 40.586)"><path d="M-62.918,773.311q2.447,5.5,4.9,10.994,3.887,8.725,7.774,17.448.9,2.024,1.8,4.045c.272.615,1.175.083.9-.529q-2.447-5.5-4.9-10.992-3.884-8.725-7.772-17.448l-1.8-4.045c-.274-.615-1.175-.083-.9.527Z" transform="translate(62.968 -772.51)" fill="#124c64"/></g></g><g transform="translate(53.939 11.382)"><path d="M-42.967,756.042a2.9,2.9,0,0,1-1.645-.495c-1.561-1.063-1.752-3.511-.427-5.458a4.844,4.844,0,0,1,2.481-1.921,3.12,3.12,0,0,1,2.753.315,3.113,3.113,0,0,1,1.3,2.445,4.857,4.857,0,0,1-.877,3.013h0a4.851,4.851,0,0,1-2.481,1.921A3.612,3.612,0,0,1-42.967,756.042Zm1.511-7.262a2.82,2.82,0,0,0-.861.143,4.03,4.03,0,0,0-2.067,1.611c-1.08,1.587-.982,3.542.217,4.359a2.331,2.331,0,0,0,2.066.215,4.06,4.06,0,0,0,2.067-1.611h0a4.058,4.058,0,0,0,.743-2.517,2.333,2.333,0,0,0-.96-1.842A2.107,2.107,0,0,0-41.456,748.78Z" transform="translate(45.92 -747.989)" fill="#124c64"/></g><g transform="translate(57.255 24.589)"><path d="M-41.908,759.833A2.091,2.091,0,0,1-44,757.745a2.093,2.093,0,0,1,2.088-2.09,2.094,2.094,0,0,1,2.09,2.09A2.093,2.093,0,0,1-41.908,759.833Zm0-3.386a1.3,1.3,0,0,0-1.3,1.3,1.3,1.3,0,0,0,1.3,1.3,1.3,1.3,0,0,0,1.3-1.3A1.3,1.3,0,0,0-41.908,756.448Z" transform="translate(43.996 -755.655)" fill="#124c64"/></g><g transform="translate(66.339 66.671)"><path d="M-35.038,787.452a3.691,3.691,0,0,1-3.685-3.687,3.69,3.69,0,0,1,3.685-3.685,3.691,3.691,0,0,1,3.687,3.685A3.691,3.691,0,0,1-35.038,787.452Zm0-6.581a2.9,2.9,0,0,0-2.894,2.894,2.9,2.9,0,0,0,2.894,2.9,2.9,2.9,0,0,0,2.894-2.9A2.9,2.9,0,0,0-35.038,780.871Z" transform="translate(38.723 -780.08)" fill="#124c64"/></g></g></g><g transform="translate(-170.96 720.167)"><g transform="translate(35.557)"><g transform="translate(0.472 0.484)"><rect width="67.381" height="72.754" fill="#25ced1"/></g><path d="M-82.469,768.291h-66.347a3.331,3.331,0,0,0-.917,0,.448.448,0,0,1-.117,0l.436.436V697.069a3.681,3.681,0,0,0,0-.973.5.5,0,0,1,0-.124l-.436.436H-83.5a3.331,3.331,0,0,0,.917,0,.435.435,0,0,1,.115,0l-.436-.436v69.8c0,.932-.081,1.9,0,2.832,0,.041,0,.083,0,.124a.437.437,0,0,0,.874,0v-69.8c0-.932.079-1.9,0-2.832a.993.993,0,0,1,0-.124.442.442,0,0,0-.438-.436h-64.636a21.564,21.564,0,0,0-2.627,0,.873.873,0,0,1-.117,0,.442.442,0,0,0-.436.436v69.8c0,.932-.081,1.9,0,2.832,0,.041,0,.083,0,.124a.442.442,0,0,0,.436.436h64.636a21.567,21.567,0,0,0,2.629,0,.867.867,0,0,1,.115,0A.436.436,0,0,0-82.469,768.291Z" transform="translate(150.322 -695.489)" fill="#124c64"/><g transform="translate(5.484 8.561)"><g transform="translate(0.526 0.517)"><g transform="translate(0 28.345)"><path d="M-127.448,718h-6.33a.4.4,0,0,1-.4-.4.4.4,0,0,1,.4-.394h6.33a.4.4,0,0,1,.4.394A.4.4,0,0,1-127.448,718Zm-12.66,0h-6.33a.4.4,0,0,1-.4-.4.4.4,0,0,1,.4-.394h6.33a.4.4,0,0,1,.395.394A.4.4,0,0,1-140.108,718Z" transform="translate(146.834 -717.209)" fill="#ffcd91"/></g><g transform="translate(13.414)"><path d="M-138.652,707.631a.392.392,0,0,1-.109-.016.4.4,0,0,1-.288-.381v-6.083a.4.4,0,0,1,.4-.395.4.4,0,0,1,.395.395v5.58a.4.4,0,0,1,.072.5l-.131.21A.4.4,0,0,1-138.652,707.631Zm3.437-5.61a.378.378,0,0,1-.208-.059.4.4,0,0,1-.129-.544l.065-.1a.391.391,0,0,1,.544-.129.4.4,0,0,1,.129.546l-.066.1A.394.394,0,0,1-135.215,702.022Z" transform="translate(139.048 -700.757)" fill="#ffcd91"/></g></g><path d="M-118.9,756.174h-27.8l.436.436.286-15.8.453-25.158.1-5.732-.436.436a9.609,9.609,0,0,0,4.147-1.416,10.645,10.645,0,0,0,4.817-7.929l-.42.32,11.431,1.2-.42-.551a24.947,24.947,0,0,0-.593,5.265c-.043,3.029.417,6.34,2.317,8.8A8.271,8.271,0,0,0-119.864,719l-.26-.641a50.232,50.232,0,0,0-4.219,7.624,6.661,6.661,0,0,0-.746,3.186c.086.9.26,1.8.422,2.7,1.18,6.471,2.655,12.894,4.09,19.312q.62,2.773,1.251,5.544c.126.546.967.315.843-.233q-1.571-6.872-3.063-13.764c-.7-3.22-1.389-6.444-2.012-9.679-.348-1.806-1-3.806-.41-5.613a38.353,38.353,0,0,1,4.6-8.633.439.439,0,0,0-.26-.641c-6.344-1.515-6.893-8.892-6.134-14.259.079-.565.171-1.134.3-1.692a.444.444,0,0,0-.422-.551q-5.714-.6-11.431-1.2a.434.434,0,0,0-.42.319,9.841,9.841,0,0,1-4.538,7.481,9.105,9.105,0,0,1-3.585,1.225.446.446,0,0,0-.436.436l-.286,15.8-.453,25.156-.1,5.732a.442.442,0,0,0,.436.438h27.8A.437.437,0,0,0-118.9,756.174Z" transform="translate(147.139 -700.457)" fill="#124c64"/><g transform="translate(33.469 4.333)"><g transform="translate(1.805)"><path d="M-126.244,703.844h20.578a.436.436,0,0,0,0-.872h-20.578a.436.436,0,0,0,0,.872Z" transform="translate(126.665 -702.972)" fill="#124c64"/></g><g transform="translate(5.896 4.24)"><path d="M-123.869,706.307h16.486a.437.437,0,0,0,0-.874h-16.486a.437.437,0,0,0,0,.874Z" transform="translate(124.291 -705.433)" fill="#124c64"/></g><g transform="translate(0 8.482)"><path d="M-127.293,708.767h22.384a.436.436,0,0,0,0-.872h-22.384a.436.436,0,0,0,0,.872Z" transform="translate(127.713 -707.895)" fill="#124c64"/></g><g transform="translate(1.926 12.722)"><path d="M-126.174,711.228h20.458a.436.436,0,0,0,0-.872h-20.458a.436.436,0,0,0,0,.872Z" transform="translate(126.595 -710.356)" fill="#124c64"/></g><g transform="translate(6.017 16.962)"><path d="M-123.8,713.69h16.366a.437.437,0,0,0,0-.874H-123.8a.437.437,0,0,0,0,.874Z" transform="translate(124.221 -712.817)" fill="#124c64"/></g><g transform="translate(0.361 38.868)"><g transform="translate(3.129)"><path d="M-125.266,726.406h19.253a.437.437,0,0,0,0-.874h-19.253a.437.437,0,0,0,0,.874Z" transform="translate(125.687 -725.532)" fill="#124c64"/></g><g transform="translate(0 5.536)"><path d="M-127.082,729.619H-104.7a.437.437,0,0,0,0-.874h-22.382a.437.437,0,0,0,0,.874Z" transform="translate(127.504 -728.745)" fill="#124c64"/></g></g></g></g><g transform="translate(30.353 4.714)"><g transform="translate(0.427 0.434)"><circle cx="3.382" cy="3.382" r="3.382" fill="#fff"/></g><path d="M-125.948,702.042a2.979,2.979,0,0,1-1.933,2.769,2.987,2.987,0,0,1-3.3-.913,2.973,2.973,0,0,1-.238-3.368,2.969,2.969,0,0,1,3.062-1.389,2.986,2.986,0,0,1,2.414,2.9.436.436,0,0,0,.872,0,3.871,3.871,0,0,0-2.49-3.58,3.837,3.837,0,0,0-4.264,1.141,3.86,3.86,0,0,0-.346,4.392,3.867,3.867,0,0,0,4,1.8,3.857,3.857,0,0,0,3.1-3.749A.436.436,0,0,0-125.948,702.042Z" transform="translate(132.705 -698.224)" fill="#124c64"/></g></g><g transform="translate(0 66.157)"><g transform="translate(0.436 0.437)"><rect width="47.597" height="29.926" fill="#dcbfff"/></g><path d="M-122.926,763.814h-47.6l.436.436V734.323l-.436.438h47.6l-.436-.438V764.25a.436.436,0,0,0,.872,0V734.323a.443.443,0,0,0-.436-.436h-47.6a.442.442,0,0,0-.436.436V764.25a.442.442,0,0,0,.436.436h47.6A.436.436,0,0,0-122.926,763.814Z" transform="translate(170.96 -733.887)" fill="#124c64"/><g transform="translate(5.893 8.67)"><g transform="translate(4.273)"><path d="M-164.807,739.441h28.123a.261.261,0,0,0,0-.522h-28.123a.261.261,0,0,0,0,.522Z" transform="translate(165.059 -738.919)" fill="#124c64"/></g><g transform="translate(0 3.492)"><path d="M-167.287,741.468h36.668a.261.261,0,0,0,0-.522h-36.668a.261.261,0,0,0,0,.522Z" transform="translate(167.54 -740.946)" fill="#124c64"/></g><g transform="translate(5.835 6.985)"><path d="M-163.9,743.495h25a.261.261,0,0,0,0-.522h-25a.261.261,0,0,0,0,.522Z" transform="translate(164.153 -742.973)" fill="#124c64"/></g><g transform="translate(1.286 10.477)"><path d="M-166.54,745.522h34.1a.261.261,0,0,0,0-.522h-34.1a.261.261,0,0,0,0,.522Z" transform="translate(166.793 -745)" fill="#124c64"/></g><g transform="translate(10.982 13.969)"><path d="M-160.913,747.549h14.7a.261.261,0,0,0,0-.522h-14.7a.261.261,0,0,0,0,.522Z" transform="translate(161.165 -747.027)" fill="#124c64"/></g><g transform="translate(1.746 17.462)"><path d="M-166.274,749.576H-133.1a.261.261,0,0,0,0-.522h-33.178a.261.261,0,0,0,0,.522Z" transform="translate(166.526 -749.054)" fill="#124c64"/></g></g><g transform="translate(21.396 2.068)"><g transform="translate(0.256 0.26)"><path d="M-153.226,737.821a2.584,2.584,0,0,1-2.584,2.584,2.584,2.584,0,0,1-2.583-2.584,2.582,2.582,0,0,1,2.583-2.583A2.583,2.583,0,0,1-153.226,737.821Z" transform="translate(158.393 -735.238)" fill="#fff"/></g><path d="M-153.381,737.93a2.346,2.346,0,0,1-1.53,2.183,2.345,2.345,0,0,1-2.591-.715,2.337,2.337,0,0,1-.193-2.658,2.339,2.339,0,0,1,2.417-1.092,2.349,2.349,0,0,1,1.9,2.283.262.262,0,0,0,.524,0,2.885,2.885,0,0,0-1.85-2.664,2.862,2.862,0,0,0-3.187.853,2.874,2.874,0,0,0-.253,3.267,2.88,2.88,0,0,0,2.975,1.339,2.875,2.875,0,0,0,2.316-2.795A.262.262,0,0,0-153.381,737.93Z" transform="translate(158.542 -735.087)" fill="#124c64"/></g></g></g><path d="M-129.811,822.024H54.455c2.49,0,4.981.088,7.47,0,.109,0,.217,0,.326,0,.457,0,.457-1.745,0-1.745H-122.013c-2.49,0-4.981-.086-7.47,0-.109.005-.217,0-.327,0-.455,0-.457,1.745,0,1.745Z" transform="translate(29.5 114.861)" fill="#124c64"/><g transform="translate(-101.435 678.667)"><g transform="translate(100.591 15.961)"><path d="M-15.015,680.665s-31.918,26.1-57.207,26.586l4.438,28.879s37.311-4.995,54.392-26.627L-1.95,695.3Z" transform="translate(72.222 -680.665)" fill="#ea526f"/><g transform="translate(6.681 10.212)"><g transform="translate(3.744 26.2)"><path d="M-63.384,703.462l-2.67-1.218a.244.244,0,0,1-.086-.329.247.247,0,0,1,.331-.086l2.669,1.216a.242.242,0,0,1,.086.331.248.248,0,0,1-.329.086Z" transform="translate(66.171 -701.799)" fill="#fff"/></g><g transform="translate(0 19.14)"><path d="M-66.166,698.063a31.83,31.83,0,0,1-1.726,2.715.246.246,0,0,1-.329.086.242.242,0,0,1-.088-.329q.93-1.313,1.728-2.715a.241.241,0,0,1,.415.243Z" transform="translate(68.344 -697.702)" fill="#fff"/></g><g transform="translate(6.183 16.696)"><path d="M-61.76,698.807l-2.877-2.074a.248.248,0,0,1-.086-.329.244.244,0,0,1,.331-.086l2.876,2.073a.247.247,0,0,1,.086.329.242.242,0,0,1-.329.088Z" transform="translate(64.755 -696.283)" fill="#fff"/></g><g transform="translate(13.555 26.458)"><path d="M-59.06,702.244q-.468,1.341-.937,2.683c-.1.291-.567.167-.465-.128q.47-1.342.937-2.684c.1-.291.569-.165.465.129Z" transform="translate(60.476 -701.949)" fill="#fff"/></g><g transform="translate(6.266 32.827)"><path d="M-62.738,707.269l-1.85-1.173a.246.246,0,0,1-.086-.331.243.243,0,0,1,.329-.086l1.85,1.173a.247.247,0,0,1,.086.331.245.245,0,0,1-.329.086Z" transform="translate(64.707 -705.646)" fill="#fff"/></g><g transform="translate(19.278 30.568)"><path d="M-55.851,705.7l-1.184-.913a.262.262,0,0,1-.112-.145.246.246,0,0,1,.024-.184.247.247,0,0,1,.331-.088q.592.458,1.184.913a.274.274,0,0,1,.112.145.25.25,0,0,1-.024.186.244.244,0,0,1-.331.086Z" transform="translate(57.155 -704.335)" fill="#fff"/></g><g transform="translate(15.523 17.129)"><path d="M-57.3,696.9q-.8,1.473-1.592,2.943c-.146.274-.563.031-.415-.243l1.592-2.943c.146-.272.563-.029.415.243Z" transform="translate(59.334 -696.534)" fill="#fff"/></g><g transform="translate(22.653 22.833)"><path d="M-52.191,700.327h-2.772a.241.241,0,0,1,0-.482h2.772a.241.241,0,0,1,0,.482Z" transform="translate(55.196 -699.845)" fill="#fff"/></g><g transform="translate(24.435 11.491)"><path d="M-54.161,695.776l.2-2.274a.247.247,0,0,1,.241-.239.241.241,0,0,1,.241.239l-.2,2.274a.249.249,0,0,1-.241.241.243.243,0,0,1-.241-.241Z" transform="translate(54.161 -693.262)" fill="#fff"/></g><g transform="translate(31.15 17.185)"><path d="M-46.243,698.571-50.1,697.05c-.286-.114-.162-.581.127-.465l3.861,1.521c.284.112.16.579-.129.465Z" transform="translate(50.264 -696.566)" fill="#fff"/></g><g transform="translate(33.556 25.448)"><path d="M-47.961,701.66a12.147,12.147,0,0,0-.438,1.928.243.243,0,0,1-.3.169.246.246,0,0,1-.169-.3,12.354,12.354,0,0,1,.438-1.93c.091-.295.558-.169.465.129Z" transform="translate(48.867 -701.363)" fill="#fff"/></g><g transform="translate(34.896 7.465)"><path d="M-48.089,693.513a18.2,18.2,0,0,1,.438-2.416.241.241,0,0,1,.465.128,17.182,17.182,0,0,0-.42,2.288.248.248,0,0,1-.241.241.244.244,0,0,1-.241-.241Z" transform="translate(48.09 -690.925)" fill="#fff"/></g><g transform="translate(41.72 17.199)"><path d="M-40.2,697.488a23.755,23.755,0,0,1-3.758-.443c-.3-.06-.176-.525.127-.465a22.958,22.958,0,0,0,3.63.427c.31.01.312.493,0,.481Z" transform="translate(44.129 -696.575)" fill="#fff"/></g><g transform="translate(42.472 9.316)"><path d="M-41.429,692.409l-1.852,1.675a.246.246,0,0,1-.341,0,.243.243,0,0,1,0-.341l1.852-1.675a.247.247,0,0,1,.341,0,.245.245,0,0,1,0,.341Z" transform="translate(43.693 -691.999)" fill="#fff"/></g><g transform="translate(44.99)"><path d="M-40.286,687.367l-1.769-.3a.245.245,0,0,1-.169-.3.248.248,0,0,1,.3-.169l1.769.3a.242.242,0,0,1,.167.3.245.245,0,0,1-.3.169Z" transform="translate(42.231 -686.592)" fill="#fff"/></g><g transform="translate(53.067 6.621)"><path d="M-36.814,690.676q-.121.925-.245,1.849a.249.249,0,0,1-.241.241.242.242,0,0,1-.241-.241q.124-.923.245-1.849a.249.249,0,0,1,.241-.241c.117,0,.258.112.241.241Z" transform="translate(37.543 -690.435)" fill="#fff"/></g></g></g><g transform="translate(0 95.052)"><g transform="translate(0 45.967)"><g transform="translate(28.848 12.032)"><path d="M-113.862,771.131l17.849,8.511,4.535-10.714-18.23-8.692Z" transform="translate(113.862 -760.235)" fill="#fff"/><g transform="translate(3.183 3.514)"><path d="M-108.867,762.489a2.2,2.2,0,0,0-2.934,1.039,2.2,2.2,0,0,0,1.041,2.934,2.2,2.2,0,0,0,2.932-1.039A2.2,2.2,0,0,0-108.867,762.489Z" transform="translate(112.015 -762.274)" fill="#ea526f"/><path d="M-105.372,762.631a2.05,2.05,0,0,0-2.733.968,2.051,2.051,0,0,0,.968,2.733,2.05,2.05,0,0,0,2.733-.968A2.05,2.05,0,0,0-105.372,762.631Z" transform="translate(114.698 -762.161)" fill="#ea526f"/><path d="M-104.149,766.005a1.984,1.984,0,0,0-2.646.937,1.987,1.987,0,0,0,.939,2.646,1.983,1.983,0,0,0,2.645-.937A1.984,1.984,0,0,0-104.149,766.005Z" transform="translate(115.649 -759.717)" fill="#ea526f"/><path d="M-106.82,769.783a2.3,2.3,0,0,1-.648.806l-3.778-1.8a2.32,2.32,0,0,1,.219-1.011,2.33,2.33,0,0,1,3.106-1.1A2.331,2.331,0,0,1-106.82,769.783Z" transform="translate(112.571 -759.256)" fill="#ea526f"/><path d="M-105.335,771.363a2.4,2.4,0,0,1,.136-.381,2.417,2.417,0,0,1,3.222-1.142,2.4,2.4,0,0,1,.811.637l-1.011,2.391Z" transform="translate(116.844 -756.975)" fill="#ea526f"/><path d="M-99.258,765.849a2.02,2.02,0,0,1,0,.51l-.458,1.082a2.051,2.051,0,0,1-2.462.546,2.054,2.054,0,0,1-.972-2.739,2.054,2.054,0,0,1,.794-.875Z" transform="translate(118.28 -760.757)" fill="#ea526f"/></g></g><path d="M-130.266,787.974l16.674-34.367,19.955,10.624-8.9,15.6-8.185-3.355Z" transform="translate(130.853 -752.994)" fill="#fff"/><g transform="translate(10.028 21.958)"><g transform="translate(0 2.325)"><line x1="3.687" y1="4.398" transform="translate(0.345 0.377)" fill="#263238"/><path d="M-121.009,772.375l-3.234-3.856-.453-.541c-.3-.355.212-.87.512-.512q1.615,1.928,3.232,3.856l.453.543c.3.353-.212.869-.51.51Z" transform="translate(124.786 -767.346)" fill="#124c64"/></g><g transform="translate(3.26)"><line x1="3.687" y1="4.398" transform="translate(0.346 0.376)" fill="#263238"/><path d="M-119.117,771.027q-1.618-1.928-3.232-3.858l-.455-.541c-.3-.355.212-.868.512-.512q1.615,1.928,3.232,3.856l.455.543c.3.355-.212.868-.512.512Z" transform="translate(122.894 -765.996)" fill="#124c64"/></g><g transform="translate(8.722 2.066)"><g transform="translate(0 0.314)"><path d="M-118.926,767.725a36.762,36.762,0,0,0-.04,3.723,23.03,23.03,0,0,0,.283,3.079,6.835,6.835,0,0,0,.8,2.517,1.268,1.268,0,0,0,1.549.6,1.244,1.244,0,0,0,.984-1.234,5.727,5.727,0,0,0-.544-2.357,19.988,19.988,0,0,0-1.366-2.67,35.111,35.111,0,0,0-2.343-3.48c-.284-.369.345-.729.624-.365a34.982,34.982,0,0,1,2.226,3.284,21.757,21.757,0,0,1,1.49,2.877,6.646,6.646,0,0,1,.639,2.648,2,2,0,0,1-1,1.8,2.2,2.2,0,0,1-2.207,0,3.788,3.788,0,0,1-1.261-2.121,15.9,15.9,0,0,1-.524-3.182,35.3,35.3,0,0,1-.04-5.122C-119.619,767.263-118.9,767.26-118.926,767.725Z" transform="translate(119.724 -767.377)" fill="#124c64"/></g><g transform="translate(0.017)"><path d="M-111.978,774.233l-6.666-5.632-.949-.8c-.357-.3.157-.811.512-.512q3.331,2.814,6.664,5.632l.949.8c.357.3-.157.81-.51.512Z" transform="translate(119.714 -767.195)" fill="#124c64"/></g></g></g><g transform="translate(13.248 0.017)"><path d="M-110.686,758.115a7.983,7.983,0,0,1-10.522,3.379,8.044,8.044,0,0,1-1.365-.844l3.418-7.043Z" transform="translate(123.167 -753.011)" fill="#124c64"/><path d="M-109.916,758.669a8.674,8.674,0,0,1-12.71,2.752.627.627,0,0,1-.217-.825q1.711-3.522,3.418-7.043a.611.611,0,0,1,.824-.217l8.468,4.509c.686.365.078,1.406-.608,1.041l-8.468-4.509.825-.215L-121.8,761.2l-.217-.825a7.5,7.5,0,0,0,6.244,1.376,7.5,7.5,0,0,0,4.817-3.7C-110.581,757.382-109.54,757.989-109.916,758.669Z" transform="translate(122.917 -753.261)" fill="#124c64"/></g><path d="M-130.54,787.926q7.316-15.08,14.634-30.163,1.018-2.1,2.04-4.2c.338-.7,1.378-.088,1.041.608q-7.316,15.082-14.634,30.163-1.021,2.1-2.04,4.206c-.339.7-1.378.086-1.041-.61Z" transform="translate(130.607 -753.251)" fill="#124c64"/><g transform="translate(27.711 10.638)"><path d="M-104.5,760.327q-3.9,6.838-7.8,13.673l-1.1,1.928a.6.6,0,0,1-1.041-.608q3.9-6.836,7.8-13.673l1.1-1.928a.6.6,0,0,1,1.041.608Z" transform="translate(114.523 -759.426)" fill="#124c64"/></g></g><path d="M-81.452,812.59s6.2-1.849,13.249-12.937S-38.9,757.5-38.9,757.5l-35.576-30.926-16.049,57.934-10.823,1.258-6.228,18.816S-87.921,816.785-81.452,812.59Z" transform="translate(147.255 -726.571)" fill="#31d9e7"/><g transform="translate(39.074 57.905)"><path d="M-95.511,760.533c-1.7,5.25-4.707,16.045-7.081,22.434-2.4-1.3-4.984-2.939-4.984-2.939l6.228-18.816Z" transform="translate(108.181 -759.926)" fill="#2ab9c4"/><path d="M-94.676,760.948c-2.41,7.46-4.361,15.075-7.081,22.434a.612.612,0,0,1-.886.36q-2.535-1.39-4.983-2.939a.616.616,0,0,1-.277-.68q2.721-8.226,5.444-16.45.39-1.184.782-2.366a.633.633,0,0,1,.582-.443l5.837-.679c.768-.088.762,1.118,0,1.206l-5.837.677.581-.443q-2.721,8.226-5.444,16.45-.39,1.184-.782,2.367l-.277-.68q2.445,1.543,4.983,2.939l-.884.36c2.719-7.358,4.669-14.974,7.079-22.434C-95.6,759.894-94.437,760.207-94.676,760.948Z" transform="translate(107.927 -760.18)" fill="#124c64"/></g><g transform="translate(39.074 2.436)"><path d="M-100.513,784.9q-3.114,9.407-6.227,18.816l-.277-.68A75.125,75.125,0,0,0-91.9,810.379c2.839.97,6.533,2.174,9.51,1.106A18.286,18.286,0,0,0-77.873,809c4.045-2.962,7.086-7.071,9.772-11.247,1.768-2.748,3.6-5.453,5.446-8.153,4.735-6.931,9.56-13.8,14.405-20.652q4.525-6.4,9.083-12.775l.093.73-10.191-9.385-16.355-15.062L-69.37,729c-.57-.525.283-1.376.853-.851q5.1,4.691,10.193,9.385,8.177,7.528,16.355,15.06l3.749,3.453a.607.607,0,0,1,.095.73c-7.62,10.642-15.189,21.326-22.592,32.12-1.993,2.906-3.978,5.82-5.9,8.775-2.664,4.1-5.467,8.115-9.25,11.271a24.265,24.265,0,0,1-5.162,3.2c-2.7,1.313-5.667.939-8.542.2-6.345-1.638-12.5-4.822-18.056-8.266a.614.614,0,0,1-.277-.681q3.114-9.41,6.227-18.816c.243-.734,1.408-.42,1.163.321Z" transform="translate(107.927 -727.985)" fill="#124c64"/></g><g transform="translate(70.209 7.22)"><g transform="translate(12.689 97.245)"><g transform="translate(4.272)"><path d="M-68.382,806.978l.141-19.774-11.626.435-.144,20.2Z" transform="translate(80.012 -787.204)" fill="#fff"/><g transform="translate(0.066)"><path d="M-78.587,798.033A2.2,2.2,0,0,0-76.4,800.25a2.2,2.2,0,0,0,2.217-2.185,2.2,2.2,0,0,0-2.186-2.217A2.2,2.2,0,0,0-78.587,798.033Z" transform="translate(80.975 -780.955)" fill="#ea526f"/><path d="M-79.973,794.66a2.049,2.049,0,0,0,2.035,2.064,2.048,2.048,0,0,0,2.064-2.035,2.048,2.048,0,0,0-2.035-2.064A2.048,2.048,0,0,0-79.973,794.66Z" transform="translate(79.973 -783.285)" fill="#ea526f"/><path d="M-77.45,792.058a1.986,1.986,0,0,0,1.971,2,1.985,1.985,0,0,0,2-1.971,1.986,1.986,0,0,0-1.971-2A1.985,1.985,0,0,0-77.45,792.058Z" transform="translate(81.797 -785.12)" fill="#ea526f"/><path d="M-72.822,793.211a2.317,2.317,0,0,1,1,.245l-.029,4.187a2.3,2.3,0,0,1-1.008.229,2.329,2.329,0,0,1-2.314-2.346A2.33,2.33,0,0,1-72.822,793.211Z" transform="translate(83.446 -782.862)" fill="#ea526f"/><path d="M-72.018,790.7a2.22,2.22,0,0,1-.4.038,2.417,2.417,0,0,1-2.4-2.433,2.422,2.422,0,0,1,.233-1.006l2.595-.1Z" transform="translate(83.697 -787.204)" fill="#ea526f"/><path d="M-79.919,787.681a2.1,2.1,0,0,1,.462-.217l1.175-.043a2.052,2.052,0,0,1,1.539,2,2.055,2.055,0,0,1-2.071,2.04,2.031,2.031,0,0,1-1.128-.348Z" transform="translate(79.995 -787.047)" fill="#ea526f"/></g></g><g transform="translate(0 17.186)"><path d="M-81.237,797.522l18.208,3.025.277,15.9L-63.979,814l2.079,4.151,9.411,17.908-29.652-16.605Z" transform="translate(82.744 -796.932)" fill="#fff"/><g transform="translate(19.016 15.042)"><g transform="translate(0 8.321)"><g transform="translate(1.946 3.046)"><line x1="4.135" y2="3.12" transform="translate(0.362 0.365)" fill="#263238"/><path d="M-65.646,813.184q-1.809,1.367-3.62,2.731l-.515.389a.362.362,0,0,1-.494-.129.369.369,0,0,1,.129-.495q1.809-1.367,3.62-2.731l.515-.389a.365.365,0,0,1,.494.129.369.369,0,0,1-.129.495Z" transform="translate(70.325 -812.507)" fill="#124c64"/></g><line x1="4.135" y2="3.12" transform="translate(0.362 0.365)" fill="#263238"/><path d="M-66.774,811.418l-3.62,2.731-.515.388a.364.364,0,0,1-.5-.129.372.372,0,0,1,.131-.495l3.618-2.731.517-.389a.366.366,0,0,1,.494.129.373.373,0,0,1-.129.5Z" transform="translate(71.454 -810.739)" fill="#124c64"/></g><g transform="translate(2.095)"><g transform="translate(0.298 3.058)"><path d="M-69.72,811.176a33.382,33.382,0,0,0,3.372.208,21.976,21.976,0,0,0,2.8-.114,5.966,5.966,0,0,0,2.285-.608,1.114,1.114,0,0,0,.589-1.344,1.091,1.091,0,0,0-1.041-.9,5.2,5.2,0,0,0-2.176.4,18.082,18.082,0,0,0-2.415,1.087,31.434,31.434,0,0,0-3.229,1.943c-.384.265-.746-.362-.365-.625a31.427,31.427,0,0,1,3.044-1.844,20.134,20.134,0,0,1,2.658-1.218,6.152,6.152,0,0,1,2.424-.47,1.858,1.858,0,0,1,1.613.929,2.04,2.04,0,0,1-.033,2.054,3.3,3.3,0,0,1-1.959,1.084,14.168,14.168,0,0,1-2.95.341,31.763,31.763,0,0,1-4.616-.2C-70.177,811.844-70.184,811.121-69.72,811.176Z" transform="translate(70.065 -807.685)" fill="#124c64"/></g><path d="M-63.474,806.534q-2.7,2.882-5.4,5.763l-.753.8c-.319.339-.829-.172-.512-.512q2.7-2.881,5.4-5.763l.753-.8c.319-.341.829.172.512.512Z" transform="translate(70.238 -805.91)" fill="#124c64"/></g></g><g transform="translate(0 12.358)"><path d="M-81.648,804.7c4.252.246,7.305,3.8,7.52,8.1a19.674,19.674,0,0,1-1.018,5.382l-6.995-3.9Z" transform="translate(82.745 -804.098)" fill="#124c64"/><path d="M-81.4,804.354a8.6,8.6,0,0,1,7.334,5.26,9.375,9.375,0,0,1,.715,4.862,38.632,38.632,0,0,1-.967,4.119.609.609,0,0,1-.886.36q-3.5-1.949-6.995-3.9a.593.593,0,0,1-.3-.52l.493-9.579c.04-.772,1.246-.777,1.206,0l-.494,9.579-.3-.52,7,3.9-.886.36c.276-1.161.672-2.283.87-3.466a8.417,8.417,0,0,0-.424-4.385A7.4,7.4,0,0,0-81.4,805.56C-82.165,805.506-82.17,804.3-81.4,804.354Z" transform="translate(82.491 -804.352)" fill="#124c64"/></g><g transform="translate(0.003)"><g transform="translate(0.908)"><path d="M-81.207,797.189l15.911,2.643,2.3.382c.765.126.441,1.287-.32,1.161l-15.909-2.643-2.3-.383c-.763-.126-.439-1.289.32-1.161Z" transform="translate(81.963 -797.179)" fill="#124c64"/></g><g transform="translate(0 21.921)"><path d="M-52.541,827.63l-25.926-14.519-3.727-2.086a.6.6,0,0,1,.608-1.041L-55.66,824.5l3.727,2.086a.6.6,0,0,1-.608,1.041Z" transform="translate(82.49 -809.903)" fill="#124c64"/></g></g></g></g><path d="M-54.25,832.021l-22.434.2L-89.5,731.094l42.677,1.451Z" transform="translate(90.112 -730.521)" fill="#95f7ff"/><g transform="translate(8.528 6.153)"><path d="M-69.811,735.086c-.946,4.371-3.954,8.778-8.2,10.425a12.384,12.384,0,0,1-6.459.512c-.765-.122-.441-1.284.32-1.163a10.4,10.4,0,0,0,9.14-2.7,15.322,15.322,0,0,0,3.618-5.965,12.477,12.477,0,0,0,.417-1.425c.165-.758,1.327-.437,1.163.321Z" transform="translate(84.907 -734.333)" fill="#124c64"/></g><g transform="translate(16.927 14.93)"><path d="M-73.663,820.625q-1.08-13.661-2.157-27.322-1.711-21.644-3.418-43.289l-.791-10.008c-.06-.774,1.144-.77,1.206,0q1.078,13.661,2.157,27.323,1.708,21.644,3.418,43.288.4,5.006.789,10.008c.062.774-1.144.77-1.2,0Z" transform="translate(80.031 -739.427)" fill="#124c64"/></g><g transform="translate(12.116 95.527)"><path d="M-58.932,786.556l-.4,5.371-22.434.2-.706-5.566Z" transform="translate(83.078 -785.954)" fill="#31d9e7"/><path d="M-58.075,786.808q-.2,2.685-.4,5.372a.615.615,0,0,1-.6.6l-19.646.172-2.788.024a.621.621,0,0,1-.6-.6q-.351-2.783-.7-5.566a.606.606,0,0,1,.6-.6h23.54a.6.6,0,0,1,0,1.2h-23.54l.6-.6q.351,2.783.7,5.566l-.6-.6,19.648-.171,2.786-.024-.6.6q.2-2.688.4-5.372C-59.224,786.04-58.018,786.035-58.075,786.808Z" transform="translate(82.824 -786.207)" fill="#124c64"/></g><path d="M-54,832.863l-19.62.172-2.813.024a.621.621,0,0,1-.6-.6q-.636-5.029-1.275-10.062-1.533-12.082-3.063-24.162-1.853-14.614-3.7-29.227-1.6-12.63-3.2-25.256-.522-4.132-1.048-8.265a32.6,32.6,0,0,1-.5-3.973,1.615,1.615,0,0,0-.022-.178c-.1-.768,1.11-.76,1.206,0q.636,5.032,1.275,10.062,1.533,12.082,3.063,24.164l3.7,29.227q1.6,12.627,3.2,25.254.522,4.132,1.048,8.265l.329,2.6a5.561,5.561,0,0,1,.174,1.37.7.7,0,0,0,.022.177l-.6-.6,19.622-.171q1.406-.013,2.812-.024a.6.6,0,0,1,0,1.2Z" transform="translate(89.856 -730.761)" fill="#124c64"/></g></g><g transform="translate(68.053 39.71)"><path d="M-43.395,759.571c.069-1.387.126-2.781.155-4.193.5-24.477-6.371-48.265-14.569-57.317-2.638-2.912-5.239-3.758-7.951-3.049-12.749,3.332-24.32,27.037-24.989,59.386-.028,1.413-.029,2.81-.019,4.2Z" transform="translate(91.349 -694.214)" fill="#ea526f"/><path d="M-65.678,694.666c4.338-1.035,7.622,1.807,10.067,5.079a46.161,46.161,0,0,1,5.444,10.045,107.38,107.38,0,0,1,7.093,29.884,132.051,132.051,0,0,1,.524,20.134.613.613,0,0,1-.6.6l-15.983-.329q-12.751-.264-25.5-.526l-5.887-.122a.6.6,0,0,1,0-1.2l15.985.329,25.5.526,5.885.121-.6.6a129.3,129.3,0,0,0-2.465-32.62c-1.735-8.33-4.219-16.883-8.67-24.2-2.223-3.658-5.594-8.318-10.468-7.153-.755.179-1.075-.982-.32-1.163Z" transform="translate(91.107 -694.449)" fill="#124c64"/><g transform="translate(5.712 10.145)"><g transform="translate(31.342 8.072)"><path d="M-67.724,708.748l-1.845-3.363c-.148-.272.267-.515.417-.243l1.845,3.363c.148.272-.267.515-.417.243Z" transform="translate(69.6 -705.023)" fill="#fff"/></g><g transform="translate(25.644 10.414)"><path d="M-71.094,706.745l-1.365,2a.246.246,0,0,1-.329.088.244.244,0,0,1-.086-.331l1.363-2a.247.247,0,0,1,.329-.086.246.246,0,0,1,.088.331Z" transform="translate(72.908 -706.382)" fill="#fff"/></g><g transform="translate(25.833 0.833)"><path d="M-71.258,704.709q-.757-1.762-1.513-3.527a.251.251,0,0,1,.086-.331.242.242,0,0,1,.329.086l1.514,3.529a.248.248,0,0,1-.088.329.24.24,0,0,1-.329-.086Z" transform="translate(72.798 -700.821)" fill="#fff"/></g><g transform="translate(19.272 8.221)"><path d="M-74.349,705.593l-2.016.169a.243.243,0,0,1-.241-.241.245.245,0,0,1,.241-.241l2.016-.169a.244.244,0,0,1,.241.241.245.245,0,0,1-.241.241Z" transform="translate(76.606 -705.11)" fill="#fff"/></g><g transform="translate(19.764)"><path d="M-75.288,702.383l-1-1.685a.242.242,0,0,1,.417-.245q.5.845,1,1.687a.241.241,0,0,1-.417.243Z" transform="translate(76.321 -700.338)" fill="#fff"/></g><g transform="translate(17.642 13.934)"><path d="M-76.155,708.726a10.679,10.679,0,0,1-.953,2.61c-.143.276-.558.031-.415-.245a10.28,10.28,0,0,0,.9-2.493c.067-.3.532-.176.465.127Z" transform="translate(77.552 -708.425)" fill="#fff"/></g><g transform="translate(36.899 44.022)"><path d="M-64.807,728.251l-1.532-2a.24.24,0,0,1,.086-.329.247.247,0,0,1,.329.086l1.533,2a.242.242,0,0,1-.086.329.247.247,0,0,1-.331-.086Z" transform="translate(66.375 -725.889)" fill="#fff"/></g><g transform="translate(35.061 38.142)"><path d="M-65.333,722.888l-1.7,2a.242.242,0,0,1-.341,0,.247.247,0,0,1,0-.341l1.7-2a.242.242,0,0,1,.341,0,.247.247,0,0,1,0,.341Z" transform="translate(67.442 -722.476)" fill="#fff"/></g><g transform="translate(22.288 49.917)"><path d="M-72.747,729.722l-1.7,2a.242.242,0,0,1-.341,0,.247.247,0,0,1,0-.341l1.7-2a.243.243,0,0,1,.341,0,.247.247,0,0,1,0,.341Z" transform="translate(74.856 -729.311)" fill="#fff"/></g><g transform="translate(29.828 44.511)"><path d="M-68.835,726.535q-.6.917-1.194,1.837a.247.247,0,0,1-.329.086.246.246,0,0,1-.088-.331q.6-.917,1.194-1.837a.249.249,0,0,1,.331-.086.245.245,0,0,1,.086.331Z" transform="translate(70.479 -726.173)" fill="#fff"/></g><g transform="translate(3.667 49.999)"><path d="M-84.021,729.72l-1.194,1.837a.246.246,0,0,1-.329.088.244.244,0,0,1-.086-.331l1.194-1.837a.245.245,0,0,1,.329-.086.242.242,0,0,1,.086.329Z" transform="translate(85.664 -729.358)" fill="#fff"/></g><g transform="translate(12.866 49.836)"><path d="M-79.855,729.438l.336,2.166a.25.25,0,0,1-.169.3.242.242,0,0,1-.3-.169q-.168-1.083-.336-2.164a.247.247,0,0,1,.169-.3.242.242,0,0,1,.3.167Z" transform="translate(80.324 -729.263)" fill="#fff"/></g><g transform="translate(17.74 44.928)"><path d="M-77.012,726.656l.134,2.186a.242.242,0,0,1-.241.241.246.246,0,0,1-.241-.241l-.134-2.186a.244.244,0,0,1,.241-.241.245.245,0,0,1,.241.241Z" transform="translate(77.495 -726.415)" fill="#fff"/></g><g transform="translate(33.552 49.927)"><path d="M-67.874,729.435l.936,1.981a.249.249,0,0,1-.088.331.243.243,0,0,1-.329-.088q-.468-.99-.934-1.981a.247.247,0,0,1,.086-.329.241.241,0,0,1,.329.086Z" transform="translate(68.318 -729.317)" fill="#fff"/></g><g transform="translate(24.647 39.815)"><path d="M-73.141,727.718a21.121,21.121,0,0,0-.341-3.968c-.055-.3.41-.434.465-.127a21.755,21.755,0,0,1,.358,4.1.241.241,0,0,1-.482,0Z" transform="translate(73.487 -723.448)" fill="#fff"/></g><g transform="translate(8.378 42.14)"><path d="M-80.582,728.717a17.442,17.442,0,0,0-2.286-3.5c-.2-.234.14-.577.339-.341a17.919,17.919,0,0,1,2.364,3.6c.136.277-.279.522-.417.243Z" transform="translate(82.929 -724.797)" fill="#fff"/></g><g transform="translate(0 45.212)"><path d="M-87.287,726.813q-.01,1.142-.022,2.285a.241.241,0,0,1-.482,0q.013-1.142.022-2.285a.241.241,0,0,1,.482,0Z" transform="translate(87.792 -726.58)" fill="#fff"/></g></g></g><g transform="translate(111.073 0.6)"><path d="M-65.789,721a48.9,48.9,0,0,0,48.9,48.9,48.9,48.9,0,0,0,48.9-48.9,48.9,48.9,0,0,0-48.9-48.9A48.9,48.9,0,0,0-65.789,721Zm54.574,10.694a5.251,5.251,0,0,1,5.251-5.251,5.252,5.252,0,0,1,5.251,5.251,5.253,5.253,0,0,1-5.251,5.253A5.251,5.251,0,0,1-11.215,731.693Zm-.339-20.384A5.253,5.253,0,0,1-6.3,706.058a5.252,5.252,0,0,1,5.251,5.251A5.252,5.252,0,0,1-6.3,716.561,5.253,5.253,0,0,1-11.554,711.309Zm-9.746,0a5.253,5.253,0,0,1-5.253,5.251,5.252,5.252,0,0,1-5.251-5.251,5.252,5.252,0,0,1,5.251-5.251A5.253,5.253,0,0,1-21.3,711.309Zm-11.108,20.384a5.252,5.252,0,0,1,5.251-5.251,5.252,5.252,0,0,1,5.253,5.251,5.253,5.253,0,0,1-5.253,5.253A5.253,5.253,0,0,1-32.408,731.693Z" transform="translate(66.39 -671.497)" fill="#ffcd91"/><g transform="translate(54.235 33.963)"><path d="M-33.455,697.311a4.7,4.7,0,0,0,3.056,4.371,4.707,4.707,0,0,0,5.2-1.437,4.692,4.692,0,0,0,.381-5.32,4.684,4.684,0,0,0-4.836-2.188,4.706,4.706,0,0,0-3.8,4.574.6.6,0,0,1-1.2,0,5.932,5.932,0,0,1,3.811-5.484,5.882,5.882,0,0,1,6.547,1.75,5.914,5.914,0,0,1,.527,6.728,5.925,5.925,0,0,1-6.128,2.755,5.914,5.914,0,0,1-4.757-5.749A.6.6,0,0,1-33.455,697.311Z" transform="translate(34.659 -691.462)" fill="#124c64"/></g><g transform="translate(33.982 33.963)"><path d="M-45.208,697.311a4.7,4.7,0,0,0,3.056,4.371,4.708,4.708,0,0,0,5.2-1.437,4.692,4.692,0,0,0,.381-5.32,4.685,4.685,0,0,0-4.838-2.188,4.707,4.707,0,0,0-3.8,4.574.6.6,0,0,1-1.206,0,5.937,5.937,0,0,1,3.813-5.484,5.882,5.882,0,0,1,6.547,1.75,5.914,5.914,0,0,1,.527,6.728,5.925,5.925,0,0,1-6.128,2.755,5.916,5.916,0,0,1-4.759-5.749A.6.6,0,0,1-45.208,697.311Z" transform="translate(46.414 -691.462)" fill="#124c64"/></g><g transform="translate(33.379 54.346)"><path d="M-45.558,709.142a4.7,4.7,0,0,0,3.056,4.371,4.7,4.7,0,0,0,5.2-1.437,4.689,4.689,0,0,0,.381-5.318,4.687,4.687,0,0,0-4.838-2.19,4.709,4.709,0,0,0-3.8,4.574.6.6,0,0,1-1.206,0,5.936,5.936,0,0,1,3.813-5.484,5.88,5.88,0,0,1,6.547,1.752,5.912,5.912,0,0,1,.527,6.726,5.922,5.922,0,0,1-6.128,2.755,5.913,5.913,0,0,1-4.759-5.749A.6.6,0,0,1-45.558,709.142Z" transform="translate(46.764 -703.293)" fill="#124c64"/></g><g transform="translate(54.573 54.346)"><path d="M-33.259,709.142a4.7,4.7,0,0,0,3.058,4.371,4.7,4.7,0,0,0,5.2-1.437,4.686,4.686,0,0,0,.381-5.318,4.685,4.685,0,0,0-4.836-2.19,4.709,4.709,0,0,0-3.8,4.574.6.6,0,0,1-1.2,0,5.932,5.932,0,0,1,3.811-5.484,5.883,5.883,0,0,1,6.549,1.752,5.912,5.912,0,0,1,.525,6.726,5.922,5.922,0,0,1-6.128,2.755,5.913,5.913,0,0,1-4.757-5.749A.6.6,0,0,1-33.259,709.142Z" transform="translate(34.463 -703.293)" fill="#124c64"/></g><g transform="translate(15.708 15.74)"><path d="M-55.815,714.647a32.909,32.909,0,0,0,21.469,30.643,32.912,32.912,0,0,0,36.179-9.805,32.87,32.87,0,0,0,2.836-37.693,32.887,32.887,0,0,0-34.344-15.1,32.915,32.915,0,0,0-25.738,26.795,33.346,33.346,0,0,0-.4,5.158.6.6,0,0,1-1.206,0,34.155,34.155,0,0,1,22.053-31.7A34.082,34.082,0,0,1,2.886,693.2,34.1,34.1,0,0,1,5.71,732.111a34.131,34.131,0,0,1-35.545,15.683A34.075,34.075,0,0,1-56.626,719.8a35.583,35.583,0,0,1-.395-5.153A.6.6,0,0,1-55.815,714.647Z" transform="translate(57.021 -680.885)" fill="#124c64"/></g><g transform="translate(9.398 9.436)"><path d="M-59.477,717.292a39.281,39.281,0,0,0,25.628,36.577A39.285,39.285,0,0,0,9.373,742.114a39.232,39.232,0,0,0,3.308-45A39.265,39.265,0,0,0-28.38,679.175,39.277,39.277,0,0,0-58.993,711.11a39.922,39.922,0,0,0-.484,6.182.6.6,0,0,1-1.206,0,40.523,40.523,0,0,1,26.362-37.685A40.455,40.455,0,0,1,10.328,691.74a40.468,40.468,0,0,1,3.394,46.339A40.5,40.5,0,0,1-28.539,756.6a40.436,40.436,0,0,1-31.667-33.137,42.086,42.086,0,0,1-.477-6.175A.6.6,0,0,1-59.477,717.292Z" transform="translate(60.683 -677.226)" fill="#124c64"/></g><g transform="translate(48.92)"><path d="M2.866,694.216a48.722,48.722,0,0,0-29.3-20.065,49.106,49.106,0,0,0-10.732-1.2.6.6,0,0,1,0-1.2A49.868,49.868,0,0,1-2.89,685.532a50.659,50.659,0,0,1,6.8,8.073c.438.644-.606,1.247-1.041.61Z" transform="translate(37.744 -671.749)" fill="#124c64"/></g><g transform="translate(0 48.92)"><path d="M-64.934,700.725A48.767,48.767,0,0,0-33.27,746.084a48.9,48.9,0,0,0,16.635,2.939.6.6,0,0,1,0,1.2,49.751,49.751,0,0,1-28.621-9.109,49.955,49.955,0,0,1-17.789-23.137,49.826,49.826,0,0,1-3.093-17.257.6.6,0,0,1,1.2,0Z" transform="translate(66.138 -700.143)" fill="#124c64"/></g></g><g transform="translate(58.912 39.802)"><g transform="translate(53.486 15.517)"><path d="M-58.784,725.734s23.357-8.349,26.407-12.474c2.558-3.461-8.144,2-8.144,2s7.989-3.149,7.71-4.967-8.892,2.683-8.892,2.683,8.973-4.183,8.3-5.575-9.517,3.394-9.517,3.394,9.171-4.156,8.415-5.8-9.748,3.284-9.748,3.284,5.219-3.73,4.138-4.685-11.3,7.122-21.381,10.423S-58.784,725.734-58.784,725.734Z" transform="translate(65.369 -703.509)" fill="#e7ba8c"/><g transform="translate(22.587 3.113)"><g transform="translate(2.272 4.775)"><path d="M-44.007,708.986q-3.026,1.716-6.211,3.127a.5.5,0,0,1-.66-.172.485.485,0,0,1,.172-.66q3.181-1.411,6.213-3.127a.482.482,0,0,1,.486.832Z" transform="translate(50.94 -708.087)" fill="#cca47f"/></g><g transform="translate(1.287 2.408)"><path d="M-44.51,707.6a60.178,60.178,0,0,0-6.292,3.508c-.524.334-1.008-.5-.486-.832A60.319,60.319,0,0,1-45,706.766c.556-.269,1.048.562.488.832Z" transform="translate(51.512 -706.713)" fill="#cca47f"/></g><path d="M-45.164,706.217q-3.14,1.8-6.364,3.451c-.551.282-1.041-.55-.488-.832q3.223-1.651,6.366-3.453a.483.483,0,0,1,.486.834Z" transform="translate(52.259 -705.316)" fill="#cca47f"/></g></g><path d="M-64.773,694.848S-87.5,706.686-95.088,728.527c-7.267,20.925,26.846,28.486,66.414,3.821l-9.955-14.707-34.351,3.776" transform="translate(96.661 -694.253)" fill="#ea526f"/><path d="M-64.222,695.618a64.91,64.91,0,0,0-11.287,7.793c-7.465,6.213-13.981,13.888-17.753,22.915-1.33,3.184-2.448,6.633-1.742,10.113a11.325,11.325,0,0,0,4.536,6.84c6.306,4.621,15.3,4.642,22.709,3.754,13.928-1.666,27.211-7.619,39.027-14.955l-.215.823q-4.977-7.352-9.955-14.706l.52.3-30.1,3.311-4.254.467c-.77.084-.763-1.122,0-1.206l30.1-3.309,4.254-.467a.6.6,0,0,1,.52.3q4.977,7.355,9.955,14.707a.612.612,0,0,1-.215.825c-11.161,6.928-23.528,12.529-36.563,14.682-8.02,1.325-17.417,1.692-24.749-2.431a13.686,13.686,0,0,1-6-6.3,13.736,13.736,0,0,1-.443-8.966A45.179,45.179,0,0,1-89,716.151a67.374,67.374,0,0,1,9.586-10.92A69.207,69.207,0,0,1-64.83,694.577c.687-.36,1.3.68.608,1.041Z" transform="translate(96.413 -694.503)" fill="#124c64"/><g transform="translate(26.79 16.326)"><path d="M-75.54,704.88q-1.845,4.311-3.694,8.621c-.172.4-.346.81-.519,1.215a.608.608,0,0,1-.825.215.616.616,0,0,1-.215-.824q1.845-4.313,3.692-8.623c.174-.4.346-.81.52-1.213a.607.607,0,0,1,.825-.217.619.619,0,0,1,.215.825Z" transform="translate(80.864 -703.979)" fill="#124c64"/></g><g transform="translate(6.466 7.363)"><g transform="translate(51.366 27.2)"><path d="M-60.752,714.926-62.4,717.3a.248.248,0,0,1-.331.088.245.245,0,0,1-.086-.331l1.644-2.378a.247.247,0,0,1,.329-.086.244.244,0,0,1,.088.331Z" transform="translate(62.847 -714.563)" fill="#fff"/></g><g transform="translate(46.147 20.487)"><path d="M-65.847,713.145q.579-1.179,1.16-2.36a.244.244,0,0,1,.331-.086.246.246,0,0,1,.086.329q-.581,1.181-1.16,2.362a.246.246,0,0,1-.331.086.248.248,0,0,1-.086-.331Z" transform="translate(65.876 -710.667)" fill="#fff"/></g><g transform="translate(43.412 30.236)"><path d="M-64.973,716.678l-2.033,3.013c-.172.257-.589.016-.415-.243l2.031-3.013c.172-.257.591-.015.417.243Z" transform="translate(67.463 -716.325)" fill="#fff"/></g><g transform="translate(34.189 21.357)"><path d="M-70.212,713.922l-2.529-2.341c-.227-.212.114-.553.341-.341l2.529,2.343c.227.21-.114.551-.341.339Z" transform="translate(72.817 -711.172)" fill="#fff"/></g><g transform="translate(33.746 30.586)"><path d="M-70.667,716.941l-2,2.534a.243.243,0,0,1-.341,0,.247.247,0,0,1,0-.341l2-2.534a.242.242,0,0,1,.341,0,.247.247,0,0,1,0,.341Z" transform="translate(73.074 -716.529)" fill="#fff"/></g><g transform="translate(27.524 37.768)"><path d="M-74.314,723.677q-1.153-1.282-2.307-2.562c-.207-.231.134-.572.341-.341q1.153,1.282,2.307,2.562c.207.231-.134.572-.341.341Z" transform="translate(76.685 -720.697)" fill="#fff"/></g><g transform="translate(37.413 36.455)"><path d="M-70.307,720.176a7.066,7.066,0,0,1-.165,2.25c-.071.3-.536.174-.465-.129a6.6,6.6,0,0,0,.148-2.121.242.242,0,0,1,.241-.241.247.247,0,0,1,.241.241Z" transform="translate(70.945 -719.935)" fill="#fff"/></g><g transform="translate(25.801 23.36)"><path d="M-74.92,715.426a29.1,29.1,0,0,0-2.688-2.688c-.233-.2.109-.544.341-.341a29.288,29.288,0,0,1,2.688,2.688c.205.233-.136.575-.341.341Z" transform="translate(77.685 -712.335)" fill="#fff"/></g><g transform="translate(20.617 31.71)"><path d="M-77.222,717.66l-3.177,1.053c-.295.1-.422-.369-.127-.465l3.177-1.053c.295-.1.422.367.127.465Z" transform="translate(80.694 -717.181)" fill="#fff"/></g><g transform="translate(16.558 23.503)"><path d="M-81.418,712.723q-.579,1.434-1.154,2.865a.248.248,0,0,1-.3.169.242.242,0,0,1-.169-.3l1.154-2.865a.248.248,0,0,1,.3-.169.244.244,0,0,1,.169.3Z" transform="translate(83.05 -712.418)" fill="#fff"/></g><g transform="translate(16.9 39.818)"><path d="M-80.75,724.807a21.664,21.664,0,0,1-2.067-2.557.245.245,0,0,1,.088-.331.246.246,0,0,1,.329.088,21.126,21.126,0,0,0,1.992,2.46c.214.226-.127.567-.341.339Z" transform="translate(82.852 -721.887)" fill="#fff"/></g><g transform="translate(9.311 34.297)"><path d="M-84.1,719.092l-2.745,2.285a.245.245,0,0,1-.339,0,.242.242,0,0,1,0-.341l2.743-2.285a.248.248,0,0,1,.341,0,.242.242,0,0,1,0,.341Z" transform="translate(87.256 -718.683)" fill="#fff"/></g><g transform="translate(7.83 22.179)"><path d="M-86.069,715.7a23.194,23.194,0,0,0-2.005-3.7c-.172-.26.245-.5.415-.245a23.3,23.3,0,0,1,2.007,3.7c.121.281-.295.527-.417.243Z" transform="translate(88.116 -711.649)" fill="#fff"/></g><g transform="translate(0 32.224)"><path d="M-90.311,717.844q-.951,1.794-1.9,3.589c-.146.274-.562.031-.417-.245q.951-1.794,1.9-3.589c.145-.274.562-.031.417.245Z" transform="translate(92.66 -717.479)" fill="#fff"/></g><g transform="translate(4.312 39.147)"><path d="M-89.162,724.229a11.687,11.687,0,0,1-.985-2.433.241.241,0,0,1,.465-.127,11.032,11.032,0,0,0,.937,2.317c.148.272-.269.517-.417.243Z" transform="translate(90.158 -721.498)" fill="#fff"/></g><g transform="translate(0.293 22)"><path d="M-91.48,714.1q-.491-1.1-.982-2.195a.25.25,0,0,1,.086-.331.242.242,0,0,1,.329.086q.494,1.1.984,2.2a.247.247,0,0,1-.086.329.244.244,0,0,1-.331-.086Z" transform="translate(92.49 -711.545)" fill="#fff"/></g><g transform="translate(16.445 11.06)"><path d="M-81.125,708.783q-.977-1.615-1.954-3.229a.241.241,0,0,1,.415-.245q.979,1.615,1.955,3.231c.162.265-.255.508-.417.243Z" transform="translate(83.115 -705.195)" fill="#fff"/></g><g transform="translate(8.328 13.169)"><path d="M-84.569,706.863a12.462,12.462,0,0,1-2.953.906.248.248,0,0,1-.3-.169.243.243,0,0,1,.169-.3,12.027,12.027,0,0,0,2.838-.856.248.248,0,0,1,.329.086.24.24,0,0,1-.086.329Z" transform="translate(87.827 -706.42)" fill="#fff"/></g><g transform="translate(13.926 4.526)"><path d="M-84.42,703.326q-.078-.84-.157-1.681a.244.244,0,0,1,.241-.241.247.247,0,0,1,.241.241q.08.842.157,1.681a.243.243,0,0,1-.241.241.247.247,0,0,1-.241-.241Z" transform="translate(84.577 -701.403)" fill="#fff"/></g><g transform="translate(19.264 5.868)"><path d="M-78.6,702.638q-1.264.837-2.526,1.673c-.26.171-.5-.246-.245-.417l2.526-1.671c.26-.172.5.245.245.415Z" transform="translate(81.48 -702.182)" fill="#fff"/></g><g transform="translate(19.596)"><path d="M-80.815,700.766q-.23-.845-.462-1.69a.242.242,0,0,1,.465-.129q.23.845.462,1.692a.241.241,0,0,1-.465.128Z" transform="translate(81.286 -698.776)" fill="#fff"/></g></g></g><g transform="translate(167.414)"><path d="M-22.254,675.788a1.115,1.115,0,0,0,1.06.948c.942.05,1.849-.269,1.592-1.578s-3.33-2.453-3.94-1.868a2.806,2.806,0,0,0-2.129-.934c-1.151.157-1.168.781-1.168.781a2.161,2.161,0,0,0-1.818-1.2c-1.282-.028-1.216.848-1.216.848a2.273,2.273,0,0,0-2.338-1.359c-1.654.248-1.446,3.1-.476,4.032s2.409.117,2.748-1.087a1.64,1.64,0,0,0,1.258,1.964c1.6.393,2.093-.732,2.185-1.649,0,0,.825,2.093,2.083,2.369S-22,676.865-22.254,675.788Z" transform="translate(33.437 -671.401)" fill="#e7ba8c"/><g transform="translate(2.614 0.539)"><g transform="translate(6.806 1.285)"><path d="M-27.2,675.763c.467-.267.4-.879.245-1.311a3.611,3.611,0,0,0-.9-1.377c-.334-.326.177-.837.51-.512A4.283,4.283,0,0,1-26.2,674.43a1.674,1.674,0,0,1-.632,1.959.362.362,0,0,1-.365-.625Z" transform="translate(27.969 -672.459)" fill="#cca47f"/></g><g transform="translate(2.783 0.8)"><path d="M-30.125,675.285a1.9,1.9,0,0,0,.538-2.565.369.369,0,0,1,.129-.495.365.365,0,0,1,.494.129,3.091,3.091,0,0,1,.3,2.1,2.281,2.281,0,0,1-1.1,1.459c-.408.222-.774-.4-.364-.625Z" transform="translate(30.304 -672.178)" fill="#cca47f"/></g><path d="M-31.131,671.89a3.53,3.53,0,0,1-.115,3.2.361.361,0,0,1-.624-.363,2.77,2.77,0,0,0,.115-2.469.37.37,0,0,1,.129-.495.363.363,0,0,1,.494.129Z" transform="translate(31.92 -671.714)" fill="#cca47f"/></g></g><g transform="translate(75.292 4.058)"><g transform="translate(0 16.485)"><circle cx="8.15" cy="8.15" r="8.15" transform="translate(0 1.365)" fill="#124c64"/><circle cx="7.361" cy="7.361" r="7.361" transform="translate(21.187 10.41) rotate(-45)" fill="#124c64"/></g><path d="M-77.68,687.178a4.5,4.5,0,0,1,2.619.839v-2.7c0-4.275,3.072-7.772,6.826-7.772h5.646c3.756,0,6.828,3.5,6.828,7.772v8.754c0,4.274-3.072,7.772-6.828,7.772h-3.265v4.715a3.526,3.526,0,0,1-3.515,3.516H-71.61a3.526,3.526,0,0,1-3.515-3.516V695.607c0-.107.009-.212.019-.315a4.5,4.5,0,0,1-2.574.806,4.478,4.478,0,0,1-4.5-4.461A4.477,4.477,0,0,1-77.68,687.178Z" transform="translate(90.325 -671.014)" fill="#e7ba8c"/><g transform="translate(11.803 18.135)"><path d="M-77.142,687.359a2.707,2.707,0,0,0,0-.289c0-.045-.005-.09-.01-.134l-.007-.074c-.012-.114.012.074,0-.016a3.742,3.742,0,0,0-.076-.367c-.017-.064-.036-.128-.057-.19-.01-.034-.024-.071-.036-.105s-.057-.126-.016-.038a2.71,2.71,0,0,0-.229-.415c-.017-.022-.095-.117-.024-.034-.024-.029-.048-.059-.074-.088a1.78,1.78,0,0,0-.183-.179c-.019-.017-.124-.095-.04-.035-.034-.024-.067-.048-.1-.07a2.061,2.061,0,0,0-.248-.14s-.084-.036-.031-.014-.05-.019-.06-.022c-.053-.021-.109-.038-.164-.053s-.117-.031-.176-.043l-.062-.012c-.014,0-.146-.022-.062-.012a3.854,3.854,0,0,0-.891,0,.364.364,0,0,1-.362-.362.371.371,0,0,1,.362-.362,2.883,2.883,0,0,1,2.588.863,3.223,3.223,0,0,1,.675,1.8,2.771,2.771,0,0,1,.012.4.372.372,0,0,1-.362.362.365.365,0,0,1-.362-.362Z" transform="translate(80.055 -684.282)" fill="#cca47f"/></g><g transform="translate(18.837 13.829)"><g transform="translate(4.424 2.065)"><path d="M-73.4,684.254a1.274,1.274,0,0,0,1.273,1.273,1.274,1.274,0,0,0,1.273-1.273,1.273,1.273,0,0,0-1.273-1.273A1.274,1.274,0,0,0-73.4,684.254Z" transform="translate(73.404 -682.981)" fill="#030226"/><path d="M-68.566,684.066a1.086,1.086,0,0,0,1.085,1.087,1.086,1.086,0,0,0,1.087-1.087,1.086,1.086,0,0,0-1.087-1.085A1.085,1.085,0,0,0-68.566,684.066Z" transform="translate(76.901 -682.981)" fill="#030226"/></g><g transform="translate(0 4.854)"><path d="M-75.972,687.765a3.165,3.165,0,0,0,3.165,3.163,3.163,3.163,0,0,0,3.163-3.163,3.164,3.164,0,0,0-3.163-3.165A3.165,3.165,0,0,0-75.972,687.765Z" transform="translate(75.972 -684.6)" fill="#d37a9b"/><path d="M-66.159,685.039a2.409,2.409,0,0,1,.56.067v3.282a6.713,6.713,0,0,1-.119,1.427,2.827,2.827,0,0,1-.441.042,2.407,2.407,0,0,1-2.407-2.409A2.407,2.407,0,0,1-66.159,685.039Z" transform="translate(81.326 -684.283)" fill="#d37a9b"/></g><g transform="translate(9.548 1.716)"><path d="M-69.767,682.964a31.927,31.927,0,0,0,1.828,3.291.372.372,0,0,1-.131.494,7.852,7.852,0,0,1-1.828,1.01.365.365,0,0,1-.444-.251.371.371,0,0,1,.253-.446,7.171,7.171,0,0,0,1.656-.937l-.131.5a31.754,31.754,0,0,1-1.826-3.291c-.2-.417.422-.786.624-.365Z" transform="translate(70.43 -682.778)" fill="#cca47f"/></g><g transform="translate(3.696)"><path d="M-71.687,682.455q-.8.352-1.6.7a.388.388,0,0,1-.277.038.372.372,0,0,1-.217-.167.365.365,0,0,1,.131-.495l1.6-.7a.385.385,0,0,1,.279-.036.365.365,0,0,1,.215.165.366.366,0,0,1-.129.494Z" transform="translate(73.827 -681.783)" fill="#cca47f"/></g><g transform="translate(12.876 0.511)"><path d="M-67.03,683.064c-.4-.084-.8-.177-1.2-.277a.365.365,0,0,1-.253-.445.369.369,0,0,1,.446-.252c.4.1.8.191,1.2.276a.364.364,0,0,1,.252.445.369.369,0,0,1-.445.253Z" transform="translate(68.498 -682.079)" fill="#cca47f"/></g></g><path d="M-78.054,677.552c4.585-4.622,11.228-4.991,17.412-1.278s6.047,9.791,5.679,10.658a1.528,1.528,0,0,1-1.175,1.034,11.288,11.288,0,0,1-3.244-.4,15.055,15.055,0,0,1-8.055-5.324s.42.772-1.259,4.343c-1.259,2.679-4.462,4.336-6.1,5.021a3.723,3.723,0,0,0-.868-.951,4.088,4.088,0,0,0-2.345-.736,4.835,4.835,0,0,0-2.886,1C-82.144,688.494-82.272,681.805-78.054,677.552Z" transform="translate(90.699 -673.756)" fill="#124c64"/><g transform="translate(26.639 23.429)"><path d="M-66.8,687.7a2.354,2.354,0,0,1-1.521,2.178,2.33,2.33,0,0,1-2.56-.668,2.387,2.387,0,0,1-.56-1.509.362.362,0,0,1,.724,0,1.613,1.613,0,0,0,1.6,1.6,1.614,1.614,0,0,0,1.6-1.6.361.361,0,0,1,.722,0Z" transform="translate(71.444 -687.355)" fill="#cca47f"/></g><g transform="translate(13.16 33.857)"><g transform="translate(0 0)"><rect width="12.986" height="6.326" rx="1.499" transform="translate(0 0.145) rotate(-0.641)" fill="#fff"/><rect width="12.986" height="6.326" rx="1.499" transform="translate(0 0.145) rotate(-0.641)" fill="none" stroke="#124c64" stroke-miterlimit="10" stroke-width="1"/></g><g transform="translate(1.983 0.02)"><line y2="6.329" transform="translate(9.189)" fill="none" stroke="#124c64" stroke-miterlimit="10" stroke-width="1"/><line y2="6.329" transform="translate(6.892)" fill="none" stroke="#124c64" stroke-miterlimit="10" stroke-width="1"/><line y2="6.329" transform="translate(4.594)" fill="none" stroke="#124c64" stroke-miterlimit="10" stroke-width="1"/><line y2="6.329" transform="translate(2.297)" fill="none" stroke="#124c64" stroke-miterlimit="10" stroke-width="1"/><line y2="6.329" fill="none" stroke="#124c64" stroke-miterlimit="10" stroke-width="1"/></g></g></g></g><g transform="translate(-122.974 686.801)"><g transform="translate(0 213.327)"><path d="M-118.565,801.869h-23.578a.965.965,0,0,1-.965-.965.964.964,0,0,1,.965-.963h23.578a.964.964,0,0,1,.965.963A.965.965,0,0,1-118.565,801.869Z" transform="translate(143.108 -799.941)" fill="#124c64"/><g transform="translate(27.115)"><path d="M-120.511,801.869h-5.894a.965.965,0,0,1-.965-.965.964.964,0,0,1,.965-.963h5.894a.964.964,0,0,1,.965.963A.965.965,0,0,1-120.511,801.869Z" transform="translate(127.37 -799.941)" fill="#124c64"/></g><g transform="translate(36.35)"><path d="M-117.8,801.869h-3.242a.965.965,0,0,1-.965-.965.964.964,0,0,1,.965-.963h3.242a.964.964,0,0,1,.965.963A.965.965,0,0,1-117.8,801.869Z" transform="translate(122.01 -799.941)" fill="#124c64"/></g></g><g transform="translate(212.262 157.69)"><path d="M-11.785,769.578h-7.157a.965.965,0,0,1-.965-.965.965.965,0,0,1,.965-.965h7.157a.965.965,0,0,1,.965.965A.965.965,0,0,1-11.785,769.578Z" transform="translate(19.907 -767.648)" fill="#124c64"/></g><g transform="translate(237.013 130.475)"><path d="M.1,763.127a.967.967,0,0,1-.682-.282l-4.672-4.672a.97.97,0,0,1-.283-.682.963.963,0,0,1,.283-.682l4.672-4.673a.967.967,0,0,1,.682-.282h0a.967.967,0,0,1,.682.282l4.672,4.673a.965.965,0,0,1,0,1.363L.779,762.844A.967.967,0,0,1,.1,763.127Zm-3.31-5.637L.1,760.8l3.31-3.308L.1,754.18Z" transform="translate(5.541 -751.852)" fill="#124c64"/></g><g transform="translate(57.739 7.741)"><path d="M-103.2,693.4a6.4,6.4,0,0,1-6.394-6.392,6.4,6.4,0,0,1,6.394-6.394,6.4,6.4,0,0,1,6.392,6.394A6.4,6.4,0,0,1-103.2,693.4Zm0-10.856a4.468,4.468,0,0,0-4.464,4.464,4.468,4.468,0,0,0,4.464,4.462,4.468,4.468,0,0,0,4.462-4.462A4.468,4.468,0,0,0-103.2,682.545Z" transform="translate(109.595 -680.615)" fill="#124c64"/></g><g transform="translate(265.69 107.377)"><g transform="translate(0)"><path d="M16.917,745.224a.965.965,0,0,1-.682-.283l-4.85-4.85a.965.965,0,1,1,1.365-1.365l4.85,4.85a.965.965,0,0,1-.682,1.647Z" transform="translate(-11.104 -738.445)" fill="#124c64"/></g><g transform="translate(0)"><path d="M12.067,745.224a.965.965,0,0,1-.682-1.647l4.85-4.85a.965.965,0,0,1,1.365,1.365l-4.85,4.85A.967.967,0,0,1,12.067,745.224Z" transform="translate(-11.104 -738.445)" fill="#124c64"/></g></g><g transform="translate(202.653 96.902)"><g transform="translate(0)"><path d="M-19.671,739.144a.967.967,0,0,1-.682-.283l-4.85-4.85a.967.967,0,0,1,0-1.365.967.967,0,0,1,1.365,0l4.85,4.85a.967.967,0,0,1,0,1.364A.967.967,0,0,1-19.671,739.144Z" transform="translate(25.485 -732.365)" fill="#124c64"/></g><g transform="translate(0)"><path d="M-24.521,739.144a.967.967,0,0,1-.682-.283.967.967,0,0,1,0-1.364l4.85-4.85a.967.967,0,0,1,1.365,0,.967.967,0,0,1,0,1.365l-4.85,4.85A.964.964,0,0,1-24.521,739.144Z" transform="translate(25.485 -732.365)" fill="#124c64"/></g></g><g transform="translate(31.619)"><path d="M-118.942,682.9a.96.96,0,0,1-.682-.283l-4.85-4.848a.967.967,0,0,1,0-1.365.964.964,0,0,1,1.365,0l4.85,4.85a.965.965,0,0,1,0,1.363A.957.957,0,0,1-118.942,682.9Z" transform="translate(124.755 -676.122)" fill="#124c64"/><g transform="translate(0 0.001)"><path d="M-123.792,682.9a.96.96,0,0,1-.682-.283.965.965,0,0,1,0-1.363l4.85-4.85a.967.967,0,0,1,1.365,0,.967.967,0,0,1,0,1.365l-4.85,4.85A.963.963,0,0,1-123.792,682.9Z" transform="translate(124.755 -676.122)" fill="#124c64"/></g></g></g></g></svg>