<svg xmlns="http://www.w3.org/2000/svg" width="101" height="101" viewBox="0 0 101 101"><g transform="translate(-392 -3785)"><rect width="101" height="101" transform="translate(392 3785)" fill="none"/><g transform="translate(409.262 3791.607)"><path d="M107.6,92.708,102.6,12.817a5,5,0,1,1,9.986,0Z" transform="translate(-95.662 -6.216)" fill="#f0f6ff"/><path d="M287.089,473.5h21.3v5.325h-21.3Z" transform="translate(-248.526 -392.32)" fill="#f9e487"/><path d="M287.087,473.5h3.429v5.325h-3.429Z" transform="translate(-248.525 -392.322)" fill="#f9bf6c"/><path d="M287.089,7.5h21.3v5.325h-21.3Z" transform="translate(-248.526 -6.216)" fill="#f9e487"/><path d="M287.087,7.5h3.429v5.325h-3.429Z" transform="translate(-248.525 -6.214)" fill="#f9bf6c"/><path d="M256.027,38.564h31.952v74.555H256.027Z" transform="translate(-222.79 -31.953)" fill="#aee097"/><path d="M256.027,38.56h3.429v74.557h-3.429Z" transform="translate(-222.79 -31.949)" fill="#83d167"/><path d="M256.027,57.2l31.952-10.651V38.564L256.027,49.215Z" transform="translate(-222.79 -31.953)" fill="#83d167"/><path d="M259.456,94.02V102l-3.429,1.144V95.164Z" transform="translate(-222.79 -77.901)" fill="#54c032"/><path d="M256.027,151.034l31.952-10.651v-8.633L256.027,142.4Z" transform="translate(-222.79 -109.163)" fill="#83d167"/><path d="M259.456,187.21v8.632l-3.429,1.144v-8.632Z" transform="translate(-222.79 -155.114)" fill="#54c032"/><path d="M256.027,235.589l31.952-10.651v8l-31.952,10.651Z" transform="translate(-222.79 -186.374)" fill="#83d167"/><path d="M259.456,280.39v8l-3.429,1.143v-8Z" transform="translate(-222.79 -232.319)" fill="#54c032"/><path d="M256.027,336.757l31.952-10.651v-7.981l-31.952,10.651Z" transform="translate(-222.79 -263.585)" fill="#83d167"/><path d="M259.456,373.58v7.981l-3.429,1.144v-7.981Z" transform="translate(-222.79 -309.533)" fill="#54c032"/><path d="M256.027,421.962l31.952-10.651v10.651Z" transform="translate(-222.79 -340.795)" fill="#83d167"/><path d="M128.633,6.637a1.3,1.3,0,0,0-1.313-1.312h-4.012V1.286A1.286,1.286,0,0,0,122.021,0h-7.849a1.286,1.286,0,0,0,0,2.572h6.563V5.325h-18.73V2.572h6.563a1.286,1.286,0,1,0,0-2.572h-7.849a1.286,1.286,0,0,0-1.286,1.286v4.04H95.394a1.286,1.286,0,0,0-1.286,1.286V24.45l-3.145,1.577a3.924,3.924,0,0,0-2.18,3.53v17a1.377,1.377,0,1,1-2.753,0V14.6a3.954,3.954,0,0,0-3.95-3.948H80.121l.248-3.97A6.353,6.353,0,0,0,74.093,0a6.156,6.156,0,0,0-6.276,6.681l.248,3.97H66.105A3.953,3.953,0,0,0,62.157,14.6V27.912a1.286,1.286,0,1,0,2.572,0V14.6a1.378,1.378,0,0,1,1.377-1.377h2.12L72.81,86.572a1.286,1.286,0,0,0,2.566,0l4.584-73.349h2.12A1.379,1.379,0,0,1,83.459,14.6V46.552a3.948,3.948,0,1,0,7.9,0v-17a1.367,1.367,0,0,1,.76-1.23l1.994-1V81.141a1.311,1.311,0,0,0,1.314,1.312h4.012V86.5a1.286,1.286,0,0,0,1.286,1.286h21.3a1.286,1.286,0,0,0,1.286-1.286v-4.05h4.04a1.286,1.286,0,0,0,1.286-1.286ZM77.8,6.521l-.258,4.131H75.379V6.611a1.286,1.286,0,1,0-2.572,0V17.3a1.286,1.286,0,1,0,2.572,0v-4.08h2.005L74.093,65.879,70.383,6.521a3.717,3.717,0,1,1,7.42,0ZM96.68,7.9h22.743L96.68,15.478Zm24.055,77.319h-18.73V82.463h18.73Zm5.326-5.336H103.318L126.061,72.3v7.581Zm0-18.287-18.194,6.064a1.261,1.261,0,0,0-.813,1.626,1.193,1.193,0,0,0,1.626.813l17.381-5.793v5.284L96.68,79.383V74.1l6.68-2.227a1.286,1.286,0,0,0-.813-2.44L96.68,71.387v-5.27l29.381-9.794Zm0-7.981L96.68,63.407V58.14l29.381-9.794Zm0-7.978L96.68,55.429V50.141l29.381-9.793Zm0-15.343-6.521,2.174a1.286,1.286,0,0,0-.813,1.626q.645,1.121,1.626.813l5.708-1.9v4.634L96.68,47.431V42.8l18.355-6.119a1.286,1.286,0,0,0-.813-2.44L96.68,40.087V34.165l29.381-9.794Zm0-8.632L96.68,31.454V26.17l29.381-9.794Zm0-8L96.68,23.459v-5.27L126.061,8.4Z" transform="translate(-62.157)"/></g></g></svg>