<svg xmlns="http://www.w3.org/2000/svg" width="61.817" height="61.817" viewBox="0 0 61.817 61.817"><rect width="61.817" height="61.817" transform="translate(0 0)" fill="none"/><path d="M99.175,3.7a.725.725,0,0,0-.731-.73H96.209V.716A.716.716,0,0,0,95.493,0H91.123a.716.716,0,0,0,0,1.432h3.655V2.965H84.347V1.432H88A.716.716,0,0,0,88,0H83.631a.716.716,0,0,0-.716.716v2.25H80.666a.716.716,0,0,0-.716.716v9.933l-1.751.878a2.185,2.185,0,0,0-1.214,1.966v9.464a.767.767,0,1,1-1.533,0V8.13a2.2,2.2,0,0,0-2.2-2.2H72.161L72.3,3.721A3.538,3.538,0,0,0,68.8,0a3.428,3.428,0,0,0-3.5,3.72l.138,2.211H64.356a2.2,2.2,0,0,0-2.2,2.2v7.413a.716.716,0,0,0,1.432,0V8.13a.768.768,0,0,1,.767-.767h1.181l2.553,40.846a.716.716,0,0,0,1.429,0L72.071,7.364h1.18a.768.768,0,0,1,.768.767V25.923a2.2,2.2,0,1,0,4.4,0V16.459a.761.761,0,0,1,.423-.685l1.11-.557V45.185a.73.73,0,0,0,.732.73h2.234V48.17a.716.716,0,0,0,.716.716H95.493a.716.716,0,0,0,.716-.716V45.915h2.25a.716.716,0,0,0,.716-.716ZM70.87,3.631l-.144,2.3H69.52V3.682a.716.716,0,1,0-1.432,0V9.635a.716.716,0,1,0,1.432,0V7.364h1.117L68.8,36.686,66.738,3.631a2.07,2.07,0,1,1,4.132,0ZM81.382,4.4H94.047L81.382,8.619Zm13.4,43.057H84.347V45.921h10.43Zm2.966-2.971H85.078l12.665-4.222v4.222Zm0-10.183L87.611,37.677a.7.7,0,0,0-.453.906.664.664,0,0,0,.906.453l9.679-3.226v2.942L81.382,44.206V41.263l3.72-1.24a.716.716,0,1,0-.453-1.359l-3.267,1.089V36.818l16.361-5.454Zm0-4.445L81.382,35.309V32.376l16.361-5.454Zm0-4.443L81.382,30.867V27.922l16.361-5.454Zm0-8.544L94.112,18.08a.716.716,0,0,0-.453.906q.359.624.906.453l3.178-1.06v2.58L81.382,26.412v-2.58L91.6,20.425a.716.716,0,1,0-.453-1.359l-9.768,3.256v-3.3l16.361-5.454Zm0-4.807L81.382,17.516V14.573L97.743,9.12Zm0-4.452L81.382,13.064V10.129L97.743,4.675Z" transform="translate(-49.758 6.465)" fill="#bf3976"/></svg>