<svg xmlns="http://www.w3.org/2000/svg" width="105" height="105" viewBox="0 0 105 105"><g transform="translate(-392 -3521)"><g transform="translate(445 3574)" fill="#fff" stroke="#707070" stroke-width="1"><rect width="1" height="1" stroke="none"/><rect x="0.5" y="0.5" fill="none"/></g><rect width="105" height="105" transform="translate(392 3521)" fill="none"/><g transform="translate(404.434 3532.053)"><path d="M153.464,148.651l-4.809,4.809-4.81-4.809-4.809,4.809-4.81-4.809-4.809,4.809-4.809-4.809-4.81,4.809-4.809-4.809-4.81,4.809-4.809-4.809-4.809,4.809-4.81-4.809-4.809,4.809-4.81-4.809,4.81-4.81-4.81-4.809,4.81-4.81-4.81-4.809,4.81-4.81-4.81-4.809,4.81-4.81-4.81-4.809,4.81-4.81-4.81-4.809,4.81-4.81-4.81-4.809,4.81-4.81,4.809,4.81,4.81-4.81,4.809,4.81,4.81-4.81,4.809,4.81,4.81-4.81,4.809,4.81,4.81-4.81,4.809,4.81,4.81-4.81,4.809,4.81,4.81-4.81,4.808,4.81-4.809,4.809,4.809,4.81-4.809,4.809,4.809,4.809-4.809,4.81,4.809,4.809-4.809,4.81,4.809,4.809-4.809,4.81,4.809,4.809-4.809,4.809Zm0,0" transform="translate(-72.188 -72.185)" fill="#ff6977"/><path d="M77.33,72.521l-4.809,4.81-4.81-4.81L62.9,77.331l-4.809-4.81-4.81,4.81-4.809-4.81-4.81,4.81-4.809-4.81-4.81,4.81-4.809-4.81-4.81,4.81-4.809-4.81-4.81,4.81L10,72.521l4.809-4.809L10,62.9l4.809-4.809L10,53.284l4.809-4.81L10,43.665l4.809-4.81L10,34.047l4.809-4.81L10,24.428l4.809-4.809L10,14.809,14.809,10l4.81,4.809L24.428,10l4.81,4.809L34.047,10l4.809,4.809L43.665,10l4.809,4.809L53.284,10l4.809,4.809L62.9,10l4.81,4.809L72.521,10l4.81,4.809-4.81,4.81,4.81,4.809-4.81,4.81,4.81,4.809-4.81,4.81,4.81,4.809-4.81,4.81,4.81,4.809-4.81,4.81,4.81,4.809-4.81,4.81Zm0,0" transform="translate(-8.381 -8.381)" fill="#ffc15a"/><g transform="translate(13.267 12.981)"><path d="M94.8,83.787a3.135,3.135,0,0,0-3.384-1.354,2.948,2.948,0,0,0-5.729,0A2.948,2.948,0,0,0,82.822,87.4a2.947,2.947,0,0,0,2.865,4.961,2.947,2.947,0,0,0,5.729,0A2.947,2.947,0,0,0,94.281,87.4,3.136,3.136,0,0,0,94.8,83.787Zm0,0" transform="translate(-81.941 -80.18)" fill="#fff"/><path d="M284.868,83.787a3.136,3.136,0,0,0-3.384-1.354,2.948,2.948,0,0,0-5.729,0,2.948,2.948,0,0,0-2.865,4.962,2.947,2.947,0,0,0,2.865,4.961,2.947,2.947,0,0,0,5.729,0,2.947,2.947,0,0,0,2.865-4.961A3.135,3.135,0,0,0,284.868,83.787Zm0,0" transform="translate(-241.236 -80.18)" fill="#fff"/><path d="M94.8,277.377a3.134,3.134,0,0,1-3.384,1.354,2.947,2.947,0,0,1-5.729,0,2.947,2.947,0,0,1-2.865-4.961,2.948,2.948,0,0,1,2.865-4.962,2.948,2.948,0,0,1,5.729,0,2.948,2.948,0,0,1,2.865,4.962A3.135,3.135,0,0,1,94.8,277.377Zm0,0" transform="translate(-81.941 -236.379)" fill="#fff"/><path d="M284.868,277.377a3.134,3.134,0,0,1-3.384,1.354,2.947,2.947,0,0,1-5.729,0,2.947,2.947,0,0,1-2.865-4.961,2.948,2.948,0,0,1,2.865-4.962,2.948,2.948,0,0,1,5.729,0,2.948,2.948,0,0,1,2.865,4.962A3.134,3.134,0,0,1,284.868,277.377Zm0,0" transform="translate(-241.236 -236.379)" fill="#fff"/><path d="M189.963,176.974a3.135,3.135,0,0,0-3.384-1.354,2.948,2.948,0,0,0-5.73,0,2.948,2.948,0,0,0-2.864,4.962,2.947,2.947,0,0,0,2.864,4.961,2.948,2.948,0,0,0,5.73,0,2.947,2.947,0,0,0,2.864-4.961A3.135,3.135,0,0,0,189.963,176.974Zm0,0" transform="translate(-161.697 -158.279)" fill="#fff"/></g><path d="M82.895,28.374a1.619,1.619,0,0,0-.474-1.145l-3.664-3.665L82.421,19.9a1.618,1.618,0,0,0,0-2.289l-4.81-4.81a1.62,1.62,0,0,0-2.289,0l-3.664,3.665L67.993,12.8h0l-1.563-1.562,3.664-3.664a1.619,1.619,0,0,0,0-2.29L65.285.474A1.618,1.618,0,0,0,63,.474L59.331,4.139,55.667.474a1.619,1.619,0,0,0-2.29,0L49.712,4.139,46.048.474a1.619,1.619,0,0,0-2.29,0L40.094,4.139,36.429.474a1.618,1.618,0,0,0-2.289,0L30.475,4.139,26.81.474a1.618,1.618,0,0,0-2.289,0L20.857,4.139,17.192.474a1.618,1.618,0,0,0-2.289,0L11.238,4.139,7.574.474a1.619,1.619,0,0,0-2.29,0L.475,5.283a1.619,1.619,0,0,0,0,2.29l3.664,3.664L.475,14.9a1.618,1.618,0,0,0,0,2.289l3.664,3.664L.475,24.521a1.618,1.618,0,0,0,0,2.289l3.664,3.664L.475,34.139a1.619,1.619,0,0,0,0,2.29l3.664,3.664L.475,43.758a1.619,1.619,0,0,0,0,2.29l3.664,3.664L.475,53.377a1.618,1.618,0,0,0,0,2.289l3.664,3.665L.475,63a1.618,1.618,0,0,0,0,2.289l4.809,4.81a1.621,1.621,0,0,0,2.29,0l3.664-3.665L14.9,70.094h0l1.562,1.562L12.8,75.321a1.621,1.621,0,0,0,0,2.29l4.81,4.809a1.618,1.618,0,0,0,2.289,0l3.664-3.664,3.664,3.664a1.619,1.619,0,0,0,2.29,0l3.664-3.664,3.664,3.664a1.618,1.618,0,0,0,2.289,0L42.8,78.756l3.664,3.664a1.619,1.619,0,0,0,2.29,0l3.664-3.664,3.664,3.664a1.618,1.618,0,0,0,2.289,0l3.664-3.664L65.7,82.421a1.618,1.618,0,0,0,2.289,0l3.664-3.664,3.664,3.664a1.618,1.618,0,0,0,2.289,0l4.81-4.809a1.619,1.619,0,0,0,0-2.29l-3.664-3.664,3.664-3.664a1.618,1.618,0,0,0,0-2.289l-3.664-3.664,3.664-3.665a1.618,1.618,0,0,0,0-2.289L78.756,52.42l3.665-3.664a1.62,1.62,0,0,0,0-2.29L78.756,42.8l3.664-3.664a1.619,1.619,0,0,0,0-2.29l-3.664-3.664,3.664-3.664a1.617,1.617,0,0,0,.475-1.145ZM10.093,63,6.428,66.66l-2.52-2.52,3.664-3.664a1.618,1.618,0,0,0,0-2.289L3.909,54.521l3.664-3.664a1.618,1.618,0,0,0,0-2.289L3.909,44.9l3.664-3.664a1.619,1.619,0,0,0,0-2.29L5.528,36.9h8.018a1.619,1.619,0,1,0,0-3.238H5.528L7.574,31.62a1.621,1.621,0,0,0,0-2.29L3.909,25.666,7.574,22a1.619,1.619,0,0,0,0-2.29L3.909,16.047l3.665-3.664a1.62,1.62,0,0,0,0-2.289L3.909,6.428l2.52-2.52,3.665,3.665a1.62,1.62,0,0,0,2.289,0l3.664-3.665,3.664,3.665a1.621,1.621,0,0,0,2.29,0l3.664-3.665L29.33,7.574a1.62,1.62,0,0,0,2.289,0l3.664-3.665,3.664,3.665a1.62,1.62,0,0,0,2.289,0L44.9,3.909l3.664,3.665a1.62,1.62,0,0,0,2.289,0l3.664-3.665,3.664,3.665a1.621,1.621,0,0,0,2.29,0l3.664-3.665,2.52,2.52L63,10.093a1.618,1.618,0,0,0,0,2.289l3.664,3.664L63,19.711A1.619,1.619,0,0,0,63,22l3.665,3.664L63,29.33a1.618,1.618,0,0,0,0,2.289l3.664,3.665L63,38.949a1.618,1.618,0,0,0,0,2.289L66.66,44.9,63,48.567a1.618,1.618,0,0,0,0,2.289l3.664,3.664L63,58.186a1.619,1.619,0,0,0,0,2.29L66.66,64.14l-2.52,2.52L60.476,63a1.618,1.618,0,0,0-2.289,0L54.522,66.66,50.857,63a1.618,1.618,0,0,0-2.289,0L44.9,66.66,41.239,63a1.619,1.619,0,0,0-2.29,0L35.284,66.66,31.62,63a1.618,1.618,0,0,0-2.289,0L25.666,66.66,22,63a1.618,1.618,0,0,0-2.289,0L16.048,66.66l-.956-.957h0L12.383,63a1.618,1.618,0,0,0-2.289,0ZM75.322,32.038a1.618,1.618,0,0,0,0,2.289l3.664,3.664-3.664,3.664a1.619,1.619,0,0,0,0,2.29l3.664,3.664-3.664,3.664a1.619,1.619,0,0,0,0,2.29l3.664,3.664-3.664,3.664a1.619,1.619,0,0,0,0,2.29l3.664,3.664-3.665,3.664a1.62,1.62,0,0,0,0,2.289l3.664,3.664-2.52,2.52L72.8,75.321a1.618,1.618,0,0,0-2.289,0l-3.664,3.664-3.664-3.664a1.619,1.619,0,0,0-2.29,0l-3.664,3.664-3.664-3.664a1.618,1.618,0,0,0-2.289,0l-3.664,3.664-3.664-3.664a1.619,1.619,0,0,0-2.29,0l-3.664,3.664-3.664-3.664a1.618,1.618,0,0,0-2.289,0l-3.664,3.664L24.71,75.321a1.618,1.618,0,0,0-2.289,0l-3.664,3.664-2.52-2.52L19.9,72.8a1.618,1.618,0,0,0,0-2.289l-1.563-1.563,2.519-2.52,3.664,3.665a1.621,1.621,0,0,0,2.29,0l3.664-3.665,3.664,3.665a1.62,1.62,0,0,0,2.289,0l3.664-3.665,3.664,3.665a1.621,1.621,0,0,0,2.29,0l3.664-3.665,3.664,3.665a1.62,1.62,0,0,0,2.289,0l3.664-3.665L63,70.094a1.62,1.62,0,0,0,2.289,0l4.809-4.81a1.618,1.618,0,0,0,0-2.289L66.43,59.331l3.665-3.665a1.62,1.62,0,0,0,0-2.289L66.43,49.712l3.664-3.664a1.619,1.619,0,0,0,0-2.29L66.43,40.093l3.664-3.664a1.619,1.619,0,0,0,0-2.29L66.43,30.475l3.664-3.664a1.618,1.618,0,0,0,0-2.289L66.43,20.856l2.519-2.519L70.513,19.9a1.618,1.618,0,0,0,2.289,0l3.665-3.664,2.52,2.52-3.664,3.664a1.618,1.618,0,0,0,0,2.289l3.664,3.665Zm0,0" transform="translate(0 0)"/><path d="M80.145,87.849a4.552,4.552,0,0,0,3.838-2.188,4.46,4.46,0,0,0,3.838-6.647,4.461,4.461,0,0,0-3.838-6.648,4.461,4.461,0,0,0-7.676,0,4.461,4.461,0,0,0-3.838,6.648,4.46,4.46,0,0,0,3.838,6.647A4.553,4.553,0,0,0,80.145,87.849ZM75.3,81.813a1.558,1.558,0,0,1,.342-1.739,1.62,1.62,0,0,0,0-2.118,1.348,1.348,0,0,1,1.335-2.313,1.619,1.619,0,0,0,1.834-1.059,1.348,1.348,0,0,1,2.671,0,1.619,1.619,0,0,0,1.834,1.059,1.348,1.348,0,0,1,1.336,2.313,1.618,1.618,0,0,0,0,2.118,1.348,1.348,0,0,1-1.335,2.313,1.619,1.619,0,0,0-1.835,1.059,1.347,1.347,0,0,1-2.67,0,1.619,1.619,0,0,0-1.835-1.059A1.557,1.557,0,0,1,75.3,81.813Zm0,0" transform="translate(-60.268 -58.818)"/><path d="M114.267,117.976a1.617,1.617,0,1,0-1.145-.474A1.626,1.626,0,0,0,114.267,117.976Zm0,0" transform="translate(-94.411 -96.161)"/><path d="M262.562,83.431a4.551,4.551,0,0,0,3.813,2.23,4.461,4.461,0,0,0,7.675,0,4.461,4.461,0,0,0,3.838-6.648,4.46,4.46,0,0,0-3.838-6.647,4.461,4.461,0,0,0-7.675,0,4.461,4.461,0,0,0-3.838,6.647A4.552,4.552,0,0,0,262.562,83.431Zm3.146-5.476a1.348,1.348,0,0,1,1.336-2.313,1.619,1.619,0,0,0,1.834-1.059,1.348,1.348,0,0,1,2.671,0,1.619,1.619,0,0,0,1.834,1.059,1.348,1.348,0,0,1,1.335,2.313,1.62,1.62,0,0,0,0,2.118,1.348,1.348,0,0,1-1.335,2.313,1.618,1.618,0,0,0-1.834,1.059,1.348,1.348,0,0,1-2.671,0,1.618,1.618,0,0,0-1.834-1.059,1.348,1.348,0,0,1-1.335-2.313,1.619,1.619,0,0,0,0-2.118Zm0,0" transform="translate(-219.562 -58.817)"/><path d="M304.33,117.976a1.62,1.62,0,1,0-1.145-.474A1.624,1.624,0,0,0,304.33,117.976Zm0,0" transform="translate(-253.701 -96.161)"/><path d="M76.307,272.037a4.461,4.461,0,0,0,7.676,0,4.461,4.461,0,0,0,3.838-6.648,4.46,4.46,0,0,0-3.838-6.647,4.46,4.46,0,0,0-7.676,0,4.46,4.46,0,0,0-3.838,6.647,4.461,4.461,0,0,0,3.838,6.648Zm-.667-7.706a1.348,1.348,0,0,1,1.335-2.313,1.619,1.619,0,0,0,1.834-1.059,1.348,1.348,0,0,1,2.671,0,1.62,1.62,0,0,0,1.834,1.059,1.348,1.348,0,0,1,1.335,2.313,1.619,1.619,0,0,0,0,2.117,1.348,1.348,0,0,1-1.335,2.313,1.62,1.62,0,0,0-1.834,1.059,1.348,1.348,0,0,1-2.671,0,1.618,1.618,0,0,0-1.834-1.059,1.348,1.348,0,0,1-1.336-2.313A1.618,1.618,0,0,0,75.641,264.331Zm0,0" transform="translate(-60.268 -215.018)"/><path d="M114.26,304.359a1.621,1.621,0,1,0-1.145-.475A1.632,1.632,0,0,0,114.26,304.359Zm0,0" transform="translate(-94.404 -252.368)"/><path d="M277.863,260.972a4.55,4.55,0,0,0-3.813-2.229,4.46,4.46,0,0,0-7.675,0,4.461,4.461,0,0,0-3.838,6.647,4.46,4.46,0,0,0,3.838,6.647,4.46,4.46,0,0,0,7.676,0,4.46,4.46,0,0,0,3.838-6.647A4.552,4.552,0,0,0,277.863,260.972Zm-2.8,7.215a1.558,1.558,0,0,1-1.677.574,1.62,1.62,0,0,0-1.834,1.059,1.348,1.348,0,0,1-2.671,0,1.618,1.618,0,0,0-1.834-1.059,1.348,1.348,0,0,1-1.335-2.313,1.619,1.619,0,0,0,0-2.117,1.348,1.348,0,0,1,1.335-2.313,1.619,1.619,0,0,0,1.834-1.059,1.348,1.348,0,0,1,2.671,0,1.62,1.62,0,0,0,1.834,1.059,1.348,1.348,0,0,1,1.335,2.313,1.619,1.619,0,0,0,0,2.117A1.557,1.557,0,0,1,275.059,268.187Zm0,0" transform="translate(-219.562 -215.018)"/><path d="M304.33,301.121a1.619,1.619,0,1,0,1.145.474A1.628,1.628,0,0,0,304.33,301.121Zm0,0" transform="translate(-253.701 -252.368)"/><path d="M167.63,172.2a4.461,4.461,0,0,0,3.838,6.647,4.461,4.461,0,0,0,7.675,0,4.46,4.46,0,0,0,3.838-6.647,4.551,4.551,0,0,0-.025-4.417h0a4.551,4.551,0,0,0-3.813-2.229,4.46,4.46,0,0,0-7.675,0,4.461,4.461,0,0,0-3.838,6.647Zm3.171-1.059a1.348,1.348,0,0,1,1.335-2.313,1.619,1.619,0,0,0,1.834-1.059,1.348,1.348,0,0,1,2.671,0,1.619,1.619,0,0,0,1.834,1.059,1.348,1.348,0,0,1,1.335,2.313,1.619,1.619,0,0,0,0,2.117,1.348,1.348,0,0,1-1.335,2.313,1.62,1.62,0,0,0-1.834,1.059,1.348,1.348,0,0,1-2.671,0,1.618,1.618,0,0,0-1.834-1.059,1.348,1.348,0,0,1-1.335-2.313A1.619,1.619,0,0,0,170.8,171.143Zm0,0" transform="translate(-140.021 -136.918)"/><path d="M209.428,211.168a1.619,1.619,0,1,0-1.145-.474A1.623,1.623,0,0,0,209.428,211.168Zm0,0" transform="translate(-174.164 -174.265)"/><path d="M114.147,208.4a1.618,1.618,0,1,0,1.145-.474A1.624,1.624,0,0,0,114.147,208.4Zm0,0" transform="translate(-95.268 -174.265)"/></g></g></svg>