<svg xmlns="http://www.w3.org/2000/svg" width="61.817" height="61.817" viewBox="0 0 61.817 61.817"><rect width="61.817" height="61.817" transform="translate(0 0)" fill="none"/><g transform="translate(8.88 8.879)"><path d="M29.561,7.672C29.561,5.262,24.389,4,19.28,4S9,5.262,9,7.672s5.172,3.672,10.28,3.672S29.561,10.082,29.561,7.672Zm-19.092,0c0-.777,3.346-2.2,8.812-2.2s8.812,1.426,8.812,2.2-3.346,2.2-8.812,2.2S10.469,8.448,10.469,7.672Z" transform="translate(-2.391 -1.063)" fill="#bf3976"/><path d="M44.03,11.671c-.336-2.178-2.5-3.871-6.423-5.032a41.782,41.782,0,0,0-4.139-1.022C31.977,2.378,25.231,0,16.889,0,7.417,0,0,3.064,0,6.976v5.14c0,2.3,2.57,4.307,6.609,5.57v8.675C2.4,27.661,0,29.678,0,31.942v5.14c0,3.912,7.417,6.976,16.889,6.976s16.889-3.064,16.889-6.976v-5.14A3.984,3.984,0,0,0,32.4,29.1l2.233-1.989a.707.707,0,0,1,.673-.159,3.646,3.646,0,0,0,3.71-.9l3.541-3.541a5.133,5.133,0,0,0,.294-6.944A5.443,5.443,0,0,0,44.03,11.671Zm-1.452.22a3.843,3.843,0,0,1-.782,2.614,5.128,5.128,0,0,0-7.031.217l-3.541,3.541a3.654,3.654,0,0,0-.9,3.708.7.7,0,0,1-.156.673l-3,3.366V17.687c4.039-1.263,6.609-3.27,6.609-5.57V7.171c1.018.213,2.161.506,3.412.877,3.286.971,5.149,2.3,5.388,3.849ZM20.459,33.547a27.575,27.575,0,0,1-3.569.231c-5.466,0-8.812-1.426-8.812-2.2V29.917c1.925,1.127,5.453,1.658,8.812,1.658a26.694,26.694,0,0,0,5.861-.6Zm4.259-4.787a18.992,18.992,0,0,1-7.828,1.347c-5.466,0-8.812-1.426-8.812-2.2v-.955c1.9,1.114,5.365,1.689,8.812,1.689s6.915-.576,8.812-1.689v.712ZM1.469,12.116v-2.2a13.115,13.115,0,0,0,4.92,2.579.734.734,0,0,0,.448-1.4C3.473,10.02,1.469,8.481,1.469,6.976c0-2.605,6.333-5.507,15.42-5.507s15.42,2.9,15.42,5.507-6.333,5.507-15.42,5.507a38.845,38.845,0,0,1-5.044-.317.734.734,0,0,0-.192,1.456,40.249,40.249,0,0,0,5.236.33c6.96,0,12.807-1.656,15.42-4.086v2.25c0,2.605-6.333,5.507-15.42,5.507s-15.42-2.9-15.42-5.507ZM8.077,18.1a37.072,37.072,0,0,0,8.812.994A37.072,37.072,0,0,0,25.7,18.1v.994c0,.777-3.346,2.2-8.812,2.2s-8.812-1.426-8.812-2.2Zm0,2.977c1.9,1.114,5.365,1.689,8.812,1.689s6.915-.576,8.812-1.689v.955c0,.777-3.346,2.2-8.812,2.2s-8.812-1.426-8.812-2.2Zm0,2.937c1.9,1.114,5.365,1.689,8.812,1.689s6.915-.576,8.812-1.689v.955c0,.777-3.346,2.2-8.812,2.2s-8.812-1.426-8.812-2.2ZM16.889,42.59c-9.088,0-15.42-2.9-15.42-5.507v-2.2a13.063,13.063,0,0,0,4.92,2.575.734.734,0,0,0,.441-1.4c-3.356-1.068-5.36-2.607-5.36-4.116,0-1.469,1.947-2.979,5.14-4.039v3.672c0,2.523,5.329,3.672,10.28,3.672.721,0,1.43-.026,2.123-.073L16.985,37.45h-.1a37.5,37.5,0,0,1-5.041-.324.734.734,0,0,0-.2,1.455,37.918,37.918,0,0,0,4.05.319,1.9,1.9,0,0,0,2.717,2.644l3.262-2.9c4.882-.573,8.673-1.976,10.628-3.8v2.244c0,2.605-6.33,5.507-15.418,5.507ZM32.31,31.942c0,2-3.571,3.97-8.622,4.911l7.61-6.775A2.69,2.69,0,0,1,32.31,31.942ZM42.59,18.877a3.649,3.649,0,0,1-1.076,2.6l-3.541,3.541a2.19,2.19,0,0,1-2.225.541,2.187,2.187,0,0,0-2.094.459L17.444,40.447a.436.436,0,0,1-.616-.614L31.263,23.62a2.179,2.179,0,0,0,.457-2.094,2.19,2.19,0,0,1,.542-2.223L35.8,15.762a3.65,3.65,0,0,1,5.078-.094A14.062,14.062,0,0,1,39.8,16.73a2.644,2.644,0,0,0-3.219.329L34.5,19.137a2.57,2.57,0,0,0,3.635,3.635l2.077-2.077a2.558,2.558,0,0,0,.539-2.851,15.357,15.357,0,0,0,1.136-1.1,3.634,3.634,0,0,1,.7,2.135Zm-3.089,0a1.1,1.1,0,0,1-.322.779L37.1,21.736a1.1,1.1,0,0,1-1.56-1.56L37.618,18.1a1.1,1.1,0,0,1,.779-.322c.026,0,.05.006.073.007a.731.731,0,0,0,.855,1.184c.018-.012.084-.058.169-.119A.074.074,0,0,1,39.5,18.877Z" transform="translate(0 0)" fill="#bf3976"/></g></svg>