<svg xmlns="http://www.w3.org/2000/svg" width="1240" height="500" viewBox="0 0 1240 500"><g transform="translate(0 -3647.521)"><rect width="1240" height="500" transform="translate(0 3647.521)" fill="#f5f5f5"/><g transform="translate(29.527 3658.343)"><g transform="translate(0 13.586)"><path d="M261.961,3856.458H191.089l-10.546-59.06,3.542-.633,10.017,56.094h64.846l10.017-56.094,3.542.633Z" transform="translate(-180.543 -3796.765)"/><g transform="translate(4.289 8.384)"><path d="M279.231,3855.608a9.3,9.3,0,0,1-6.273-2.363,5.953,5.953,0,0,0-8.158,0,9.5,9.5,0,0,1-12.546,0,5.953,5.953,0,0,0-8.157,0,9.506,9.506,0,0,1-12.545,0,5.953,5.953,0,0,0-8.158,0,9.506,9.506,0,0,1-12.545,0,5.77,5.77,0,0,0-4.079-1.618v-3.6a9.3,9.3,0,0,1,6.273,2.363,5.952,5.952,0,0,0,8.158,0,9.506,9.506,0,0,1,12.546,0,5.952,5.952,0,0,0,8.157,0,9.506,9.506,0,0,1,12.545,0,5.953,5.953,0,0,0,8.158,0,9.506,9.506,0,0,1,12.546,0,5.953,5.953,0,0,0,8.158,0,9.3,9.3,0,0,1,6.273-2.363v3.6a5.771,5.771,0,0,0-4.08,1.618A9.3,9.3,0,0,1,279.231,3855.608Z" transform="translate(-206.77 -3848.029)"/></g></g><g transform="translate(12.31 190.897)"><path d="M323.157,4948.287H255.812v-67.345h67.345Zm-63.746-3.6h60.148V4884.54H259.41Z" transform="translate(-255.812 -4880.942)"/><g transform="translate(5.826 5.827)"><path d="M319.283,4972.261a27.846,27.846,0,1,1,27.846-27.847A27.878,27.878,0,0,1,319.283,4972.261Zm0-52.094a24.248,24.248,0,1,0,24.247,24.247A24.274,24.274,0,0,0,319.283,4920.167Z" transform="translate(-291.437 -4916.569)"/></g></g><g transform="translate(134.165 190.898)"><path d="M1068.243,4948.287H1000.9v-67.345h67.345Zm-63.746-3.6h60.148v-60.147H1004.5Z" transform="translate(-1000.898 -4880.942)"/><g transform="translate(5.826 5.826)"><path d="M1064.369,4972.259a27.846,27.846,0,1,1,27.846-27.846A27.877,27.877,0,0,1,1064.369,4972.259Zm0-52.094a24.248,24.248,0,1,0,24.248,24.248A24.275,24.275,0,0,0,1064.369,4920.166Z" transform="translate(-1036.523 -4916.567)"/></g><g transform="translate(29.204 29.204)"><circle cx="4.468" cy="4.468" r="4.468"/></g></g><g transform="translate(255.919 190.898)"><path d="M1812.708,4948.287h-67.345v-67.345h67.345Zm-63.746-3.6h60.148v-60.147h-60.148Z" transform="translate(-1745.363 -4880.942)"/><g transform="translate(5.826 5.826)"><path d="M1808.835,4972.259a27.846,27.846,0,1,1,27.846-27.846A27.877,27.877,0,0,1,1808.835,4972.259Zm0-52.094a24.248,24.248,0,1,0,24.248,24.248A24.275,24.275,0,0,0,1808.835,4920.166Z" transform="translate(-1780.989 -4916.567)"/></g><g transform="translate(36.316 29.204)"><circle cx="4.468" cy="4.468" r="4.468"/></g><g transform="translate(22.093 29.204)"><circle cx="4.468" cy="4.468" r="4.468"/></g></g><path d="M2523.537,4895.117l5.222-3.354-1.945-3.027-3.277,2.1v-9.9h-67.344v9.9l-3.277-2.1-1.945,3.027,5.222,3.354v39l-5.222,3.355,1.945,3.027,3.277-2.106v9.9h67.344v-9.9l3.277,2.106,1.945-3.027-5.222-3.355Zm-63.746,2.313,5.732,3.683a27.766,27.766,0,0,0,0,27.005l-5.732,3.683Zm60.148,47.26h-60.148v-8.611l7.679-4.935a27.814,27.814,0,0,0,44.789,0l7.68,4.935Zm-26.746-30.074,17.984-11.556a24.216,24.216,0,0,1,0,23.112Zm16.033,14.579a24.22,24.22,0,0,1-38.722,0l19.361-12.44Zm-19.361-16.718-19.361-12.44a24.22,24.22,0,0,1,38.722,0Zm-3.328,2.139-17.984,11.556a24.216,24.216,0,0,1,0-23.112Zm33.4,17.186-5.732-3.683a27.767,27.767,0,0,0,0-27.005l5.732-3.683Zm0-38.648-7.68,4.935a27.814,27.814,0,0,0-44.789,0l-7.679-4.935v-8.61h60.148Z" transform="translate(-2079.653 -4690.045)"/><path d="M1041.535,5494.846l5.222-3.355-1.945-3.027-3.277,2.105v-9.9H974.19v9.9l-3.277-2.105-1.945,3.027,5.222,3.355v39l-5.222,3.355,1.945,3.027,3.277-2.105v9.9h67.345v-9.9l3.277,2.105,1.945-3.027-5.222-3.355Zm-3.6,36.684-26.745-17.186,26.745-17.186Zm-60.148-47.259h60.148v8.61l-30.074,19.324-30.074-19.324Zm0,12.888,26.745,17.186-26.745,17.186Zm60.148,47.26H977.788v-8.611l30.074-19.324,30.074,19.324Z" transform="translate(-840.025 -5191.691)"/><g transform="translate(497.268 190.898)"><path d="M3288.444,4948.287H3221.1v-67.345h67.345Zm-63.746-3.6h60.148v-60.147H3224.7Z" transform="translate(-3221.099 -4880.942)"/><g transform="translate(45.582 13.366)"><rect width="3.599" height="40.612"/></g><g transform="translate(31.873 13.366)"><rect width="3.599" height="40.612"/></g><g transform="translate(18.164 13.366)"><rect width="3.599" height="40.612"/></g></g><g transform="translate(1101.292 91.94)"><path d="M6981.753,4343.208h-67.345v-67.345h67.345Zm-63.747-3.6h60.147v-60.147h-60.147Z" transform="translate(-6914.408 -4275.864)"/></g><g transform="translate(618.041 190.898)"><path d="M4026.907,4948.287h-67.345v-67.345h67.345Zm-63.746-3.6h60.147v-60.147h-60.147Z" transform="translate(-3959.563 -4880.942)"/><g transform="translate(13.366 31.873)"><rect width="40.612" height="3.599"/></g></g><path d="M4698.254,4880.942v67.345H4765.6v-67.345Zm60.873,3.6a47.321,47.321,0,0,1-27.2,8.479,48.017,48.017,0,0,1-27.2-8.479Zm-57.275,60.147v-57.778a51.615,51.615,0,0,0,30.074,9.708,50.884,50.884,0,0,0,30.073-9.7v57.768Z" transform="translate(-3959.404 -4690.045)"/><path d="M5435.627,4880.942v67.345h67.344v-67.345Zm3.6,21.625,18.026-18.026h12.159l-30.186,30.186Zm12.938-18.026-12.938,12.938v-12.938Zm47.209,60.147h-60.148v-24.874l35.274-35.274h24.874Z" transform="translate(-4576.183 -4690.045)"/><path d="M6174.113,4880.942v67.345h67.345v-67.345Zm10.221,9.915-6.623,6.622v-10.706A51.358,51.358,0,0,0,6184.334,4890.857Zm-3.554-6.316h9.871l-3.634,3.633A47.765,47.765,0,0,1,6180.78,4884.542Zm-3.068,18.026,10.087-10.086a51.76,51.76,0,0,0,9.21,2.949l-19.3,19.3Zm12.844-12.844,5.183-5.183H6207.9l-7.815,7.814A48.091,48.091,0,0,1,6190.556,4889.724Zm22.431-5.183h22.193a47.32,47.32,0,0,1-27.2,8.479c-1.118,0-2.232-.05-3.343-.128Zm-35.275,60.147v-24.874l23.63-23.63a51.414,51.414,0,0,0,36.518-9.129v57.632Z" transform="translate(-5193.894 -4690.045)"/><g transform="translate(1101.292 190.898)"><path d="M6914.408,4880.942v67.345h67.345v-67.345Zm18.164,13.366v5.853l-14.566,14.566v-12.159l18.027-18.026h12.159l-12.021,12.021v-2.254Zm-1.627-9.767-12.938,12.938v-12.938Zm47.209,60.147h-60.147v-24.874l14.566-14.566v29.672h3.6v-33.271l17.11-17.109h24.873Z" transform="translate(-6914.408 -4880.942)"/><rect width="3.599" height="40.612" transform="translate(45.582 13.366)"/><rect width="3.599" height="40.612" transform="translate(31.873 13.366)"/></g><g transform="translate(12.31 288.98)"><path d="M255.812,5480.672v67.345h67.345v-67.345Zm3.6,21.625,18.027-18.026H289.6l-30.186,30.186Zm12.938-18.026-12.938,12.938v-12.937Zm47.209,60.147H259.41v-24.873l35.274-35.274h24.873Z" transform="translate(-255.812 -5480.672)"/><rect width="40.612" height="3.599" transform="translate(13.366 31.873)"/></g><g transform="translate(852.883 104.716)"><g transform="translate(23.054 32.96)"><g transform="translate(14.223)"><circle cx="4.468" cy="4.468" r="4.468"/></g><g transform="translate(28.446)"><circle cx="4.468" cy="4.468" r="4.468"/></g><circle cx="4.468" cy="4.468" r="4.468"/></g><path d="M5475.978,4405.518h-80.466l.392-2.125c3.18-17.257,13.746-26.379,30.559-26.379h39.8l-2.9-13.712a7.252,7.252,0,0,0-7.062-5.722H5417.08a1.8,1.8,0,1,1,0-3.6H5456.3a10.866,10.866,0,0,1,10.581,8.575l3.354,15.834c.008.033.015.065.021.1Zm-76.093-3.6h71.652l-4.513-21.306h-40.562C5412.1,4380.613,5403.168,4387.778,5399.885,4401.919Z" transform="translate(-5395.512 -4353.981)"/></g><g transform="translate(732.29 104.716)"><g transform="translate(29.223 32.96)"><g transform="translate(14.223)"><circle cx="4.468" cy="4.468" r="4.468"/></g><circle cx="4.468" cy="4.468" r="4.468"/></g><path d="M4738.6,4405.518h-80.466l.392-2.125c3.179-17.257,13.746-26.379,30.559-26.379h39.8l-2.9-13.712a7.252,7.252,0,0,0-7.061-5.722h-39.217a1.8,1.8,0,1,1,0-3.6h39.217a10.867,10.867,0,0,1,10.582,8.575l3.354,15.834c.008.033.015.065.021.1Zm-76.094-3.6h71.653l-4.513-21.306h-40.562C4674.727,4380.613,4665.794,4387.778,4662.511,4401.919Z" transform="translate(-4658.139 -4353.981)"/></g><g transform="translate(121.855 99.323)"><path d="M1007.047,4380.7H936.176l-10.547-59.061,3.542-.632,10.017,56.094h64.846l10.017-56.094,3.542.632Z" transform="translate(-925.629 -4321.007)"/><g transform="translate(4.289 8.384)"><path d="M1024.316,4379.85a9.3,9.3,0,0,1-6.273-2.363,5.954,5.954,0,0,0-8.158,0,9.506,9.506,0,0,1-12.545,0,5.954,5.954,0,0,0-8.158,0,9.506,9.506,0,0,1-12.545,0,5.954,5.954,0,0,0-8.158,0,9.507,9.507,0,0,1-12.546,0,5.77,5.77,0,0,0-4.079-1.617v-3.6a9.3,9.3,0,0,1,6.273,2.363,5.954,5.954,0,0,0,8.158,0,9.506,9.506,0,0,1,12.545,0,5.954,5.954,0,0,0,8.158,0,9.506,9.506,0,0,1,12.545,0,5.953,5.953,0,0,0,8.157,0,9.507,9.507,0,0,1,12.546,0,5.955,5.955,0,0,0,8.158,0,9.3,9.3,0,0,1,6.273-2.363v3.6a5.773,5.773,0,0,0-4.08,1.617A9.3,9.3,0,0,1,1024.316,4379.85Z" transform="translate(-951.856 -4372.271)"/></g><g transform="translate(41.399 29.276)"><circle cx="4.297" cy="4.297" r="4.297"/></g></g><g transform="translate(243.609 99.494)"><g transform="translate(49.534 29.276)"><circle cx="4.297" cy="4.297" r="4.297"/></g><g transform="translate(33.836 29.276)"><circle cx="4.297" cy="4.297" r="4.297"/></g><path d="M1751.512,4381.747H1680.64l-10.546-59.061,3.542-.632,10.017,56.094H1748.5l10.017-56.094,3.542.632Z" transform="translate(-1670.094 -4322.054)"/><g transform="translate(4.289 8.384)"><path d="M1768.779,4380.9a9.293,9.293,0,0,1-6.273-2.364,5.953,5.953,0,0,0-8.157,0,9.5,9.5,0,0,1-12.546,0,5.953,5.953,0,0,0-8.157,0,9.5,9.5,0,0,1-12.545,0,5.951,5.951,0,0,0-8.158,0,9.5,9.5,0,0,1-12.545,0,5.774,5.774,0,0,0-4.079-1.617v-3.6a9.3,9.3,0,0,1,6.273,2.363,5.95,5.95,0,0,0,8.157,0,9.507,9.507,0,0,1,12.546,0,5.95,5.95,0,0,0,8.157,0,9.507,9.507,0,0,1,12.545,0,5.95,5.95,0,0,0,8.158,0,9.508,9.508,0,0,1,12.546,0,5.951,5.951,0,0,0,8.158,0,9.3,9.3,0,0,1,6.273-2.363v3.6a5.771,5.771,0,0,0-4.079,1.618A9.3,9.3,0,0,1,1768.779,4380.9Z" transform="translate(-1696.318 -4373.317)"/></g></g><g transform="translate(364.229 99.323)"><g transform="translate(41.399 29.276)"><circle cx="4.297" cy="4.297" r="4.297"/></g><g transform="translate(27.758 29.276)"><circle cx="4.297" cy="4.297" r="4.297"/></g><g transform="translate(55.04 29.276)"><circle cx="4.297" cy="4.297" r="4.297"/></g><path d="M2489.048,4380.7h-70.872l-10.546-59.061,3.542-.632,10.017,56.094h64.846l10.017-56.094,3.542.632Z" transform="translate(-2407.63 -4321.007)"/><g transform="translate(4.289 8.384)"><path d="M2506.318,4379.85a9.3,9.3,0,0,1-6.273-2.363,5.954,5.954,0,0,0-8.158,0,9.507,9.507,0,0,1-12.546,0,5.953,5.953,0,0,0-8.157,0,9.507,9.507,0,0,1-12.546,0,5.954,5.954,0,0,0-8.158,0,9.506,9.506,0,0,1-12.545,0,5.771,5.771,0,0,0-4.079-1.617v-3.6a9.3,9.3,0,0,1,6.273,2.363,5.954,5.954,0,0,0,8.158,0,9.506,9.506,0,0,1,12.545,0,5.954,5.954,0,0,0,8.158,0,9.505,9.505,0,0,1,12.545,0,5.954,5.954,0,0,0,8.158,0,9.506,9.506,0,0,1,12.545,0,5.955,5.955,0,0,0,8.159,0,9.3,9.3,0,0,1,6.273-2.363v3.6a5.772,5.772,0,0,0-4.08,1.617A9.3,9.3,0,0,1,2506.318,4379.85Z" transform="translate(-2433.857 -4372.271)"/></g></g><g transform="translate(611.48 104.716)"><g transform="translate(37.277 32.96)"><circle cx="4.468" cy="4.468" r="4.468"/></g><path d="M3999.915,4405.518h-80.466l.392-2.125c3.179-17.257,13.746-26.379,30.559-26.379h39.8l-2.9-13.712a7.252,7.252,0,0,0-7.061-5.722h-39.217a1.8,1.8,0,0,1,0-3.6h39.217a10.867,10.867,0,0,1,10.581,8.575l3.354,15.834c.008.033.015.065.021.1Zm-76.094-3.6h71.653l-4.513-21.306H3950.4C3936.037,4380.613,3927.1,4387.778,3923.821,4401.919Z" transform="translate(-3919.449 -4353.981)"/></g><g transform="translate(490.708 104.716)"><path d="M3261.45,4405.518h-80.466l.392-2.125c3.179-17.257,13.746-26.379,30.558-26.379h39.8l-2.9-13.712a7.252,7.252,0,0,0-7.061-5.722h-39.218a1.8,1.8,0,0,1,0-3.6h39.218a10.867,10.867,0,0,1,10.581,8.575l3.354,15.834c.008.033.015.065.021.1Zm-76.094-3.6h71.653l-4.512-21.306h-40.563C3197.571,4380.613,3188.639,4387.778,3185.356,4401.919Z" transform="translate(-3180.984 -4353.981)"/></g><path d="M6214.464,4405.518l-5.729-27.053c0-.017-.007-.035-.011-.052l-1.7-8.021,7.22-4.639-1.945-3.027-6.072,3.9-.862-4.07a10.869,10.869,0,0,0-10.582-8.575h-39.217a1.8,1.8,0,0,0,0,3.6h39.217a7.253,7.253,0,0,1,7.062,5.722l1.145,5.405-12.928,8.307h-25.113c-1.381,0-2.716.068-4.013.19l-22.534-14.479-1.945,3.027,19.211,12.344c-11.44,2.876-18.731,11.473-21.277,25.3l-.392,2.125h11.7l-9.246,5.94,1.945,3.027,13.957-8.968h45.985l13.957,8.968,1.945-3.027-9.246-5.94Zm-4.44-3.6H6199.4l-20.721-13.313,12.439-7.993h14.394Zm-6.236-29.447.962,4.542h-8.032Zm-19.327,8.141-9.11,5.854-9.111-5.854Zm-46.09,21.306c2.894-12.46,10.175-19.5,21.69-21l11.962,7.686-20.721,13.313Zm19.588,0,17.393-11.175,17.392,11.175Z" transform="translate(-5160.34 -4249.265)"/><path d="M3237.419,5469.97l-37.065,69.1h74.13Zm18.507,42.113,12.544,23.384h-25.088Zm-16.627,23.384h-15.452l22.311-41.592,7.726,14.4Zm-1.88-57.884,6.7,12.486-24.353,45.4h-13.4Z" transform="translate(-2706.478 -5182.739)"/><g transform="translate(252.526 287.177)"><path d="M1798.748,5538.74h-74.13l37.065-69.1Zm-68.116-3.6h62.1l-31.051-57.883Z" transform="translate(-1724.618 -5469.645)"/></g><path d="M4012.948,5539.182l-18.991-35.4,17.353-14.839-2.338-2.735-16.756,14.329-16.333-30.447-16.128,30.064-16.309-13.946-2.338,2.735,16.906,14.457-19.2,35.785h8.2l-6.564,5.613,2.338,2.735,9.763-8.349h47.3l9.763,8.349,2.338-2.735-6.564-5.613Zm-37.065-61.481,13.533,25.228-13.207,11.293-13.654-11.676Zm-24.655,57.883h-6.4l15.982-29.792,12.627,10.8Zm5.537,0,19.444-16.627,19.444,16.627Zm22.213-18.995,12.179-10.415,15.776,29.41h-5.743Z" transform="translate(-3324.17 -5182.838)"/><path d="M261.961,4374.486l10.546-59.06-3.542-.632-1.5,8.389a9.315,9.315,0,0,0-6.095,2.359,5.775,5.775,0,0,1-4.08,1.617,5.687,5.687,0,0,1-1.88-.281l9.248-7.908-2.339-2.735-10.059,8.6a8.745,8.745,0,0,0-5.321-1.658,9.3,9.3,0,0,0-6.273,2.363,5.954,5.954,0,0,1-8.158,0,9.507,9.507,0,0,0-12.545,0,5.954,5.954,0,0,1-8.158,0,9.3,9.3,0,0,0-6.273-2.363,8.7,8.7,0,0,0-5.032,1.463l-9.832-8.407-2.339,2.735,9.084,7.769a5.363,5.363,0,0,1-2.232.42,5.774,5.774,0,0,1-4.079-1.617,9.393,9.393,0,0,0-5.517-2.335l-1.5-8.413-3.542.632,10.547,59.06H194.2l-6.58,5.627,2.339,2.735,9.779-8.362h53.517l9.779,8.362,2.339-2.735-6.58-5.627Zm-4.668-43.729a9.3,9.3,0,0,0,6.273-2.363,6.063,6.063,0,0,1,3.25-1.566l-7.868,44.06h-4.365l-25.319-21.651,23.181-19.823A8.7,8.7,0,0,0,257.293,4330.757Zm-51.758-3.98a5.772,5.772,0,0,1,4.079,1.617,9.507,9.507,0,0,0,12.545,0,5.952,5.952,0,0,1,8.157,0,9.508,9.508,0,0,0,12.545,0,5.772,5.772,0,0,1,4.079-1.617,5.225,5.225,0,0,1,2.443.52L226.5,4346.87l-23.064-19.723A5.449,5.449,0,0,1,205.535,4326.777ZM194.1,4370.888l-7.85-43.958a6.681,6.681,0,0,1,2.659,1.464,9.3,9.3,0,0,0,6.273,2.363,8.717,8.717,0,0,0,5.139-1.533l23.4,20.013-25.319,21.651Zm9.844,0L226.5,4351.6l22.55,19.284Z" transform="translate(-180.543 -4216.487)"/><path d="M4751.639,5539.968l-19.093-35.594,17.129-14.647-2.338-2.734-16.532,14.137-16.23-30.256-16.23,30.256-16.532-14.137-2.339,2.734,17.13,14.647-19.094,35.594h7.875l-6.564,5.613,2.338,2.735,9.763-8.349h47.305l9.763,8.349,2.338-2.735-6.564-5.613Z" transform="translate(-3942.052 -5183.495)"/><g transform="translate(373.147 287.23)"><path d="M2536.284,5539.065h-74.13l37.065-69.1Zm-68.116-3.6h62.1l-31.051-57.884Z" transform="translate(-2462.154 -5469.97)"/><g transform="translate(23.375 36.537)"><g transform="translate(18.356)"><path d="M2721.16,5712.811v-19.435h-3.838v22.983H2728.7v-3.548Z" transform="translate(-2717.322 -5693.375)"/></g><g transform="translate(0 0)"><path d="M2615.5,5696.808a6.025,6.025,0,0,1,3.424.868V5693.9a11.012,11.012,0,0,0-3.452-.526,9.766,9.766,0,0,0-7.572,3.13,12.024,12.024,0,0,0-2.82,8.361h0a12.023,12.023,0,0,0,2.82,8.361,9.768,9.768,0,0,0,7.572,3.13,11.026,11.026,0,0,0,3.452-.526v-3.774a6.025,6.025,0,0,1-3.424.869,5.811,5.811,0,0,1-4.72-2.042,11.168,11.168,0,0,1,0-12.036A5.812,5.812,0,0,1,2615.5,5696.808Z" transform="translate(-2605.082 -5693.376)"/></g></g></g><g transform="translate(243.609 13.586)"><path d="M1751.512,3856.458H1680.64l-10.546-59.06,3.542-.633,10.017,56.094H1748.5l10.017-56.094,3.542.633Z" transform="translate(-1670.094 -3796.765)"/><g transform="translate(4.289 8.384)"><path d="M1768.779,3855.608a9.3,9.3,0,0,1-6.273-2.364,5.952,5.952,0,0,0-8.157,0,9.507,9.507,0,0,1-12.546,0,5.953,5.953,0,0,0-8.157,0,9.506,9.506,0,0,1-12.545,0,5.951,5.951,0,0,0-8.158,0,9.508,9.508,0,0,1-12.545,0,5.77,5.77,0,0,0-4.079-1.618v-3.6a9.3,9.3,0,0,1,6.273,2.363,5.952,5.952,0,0,0,8.157,0,9.507,9.507,0,0,1,12.546,0,5.952,5.952,0,0,0,8.157,0,9.506,9.506,0,0,1,12.545,0,5.953,5.953,0,0,0,8.158,0,9.506,9.506,0,0,1,12.546,0,5.953,5.953,0,0,0,8.158,0,9.3,9.3,0,0,1,6.273-2.363v3.6a5.771,5.771,0,0,0-4.079,1.618A9.3,9.3,0,0,1,1768.779,3855.608Z" transform="translate(-1696.318 -3848.029)"/></g><g transform="translate(27.658 22.708)"><path d="M1851.3,3947.774a6.285,6.285,0,0,1,3.661,2.411,7.019,7.019,0,0,1,1.285,4.2,7.557,7.557,0,0,1-2.464,5.85,9.658,9.658,0,0,1-12.09.248,7.223,7.223,0,0,1-2.482-5.3h3.457a4.657,4.657,0,0,0,1.294,3.3,5.509,5.509,0,0,0,7.436-.124,5.519,5.519,0,0,0,1.392-3.9,4.844,4.844,0,0,0-1.444-3.767,6.036,6.036,0,0,0-4.21-1.321h-1.276v-2.606h.762q4.857,0,4.857-4.467a4.04,4.04,0,0,0-1.063-3.014,4.094,4.094,0,0,0-3-1.046q-3.971,0-4.431,4.13h-3.439a7.17,7.17,0,0,1,2.517-5.025,8.149,8.149,0,0,1,5.283-1.729,7.859,7.859,0,0,1,5.531,1.889,6.306,6.306,0,0,1,2.057,4.866,5.985,5.985,0,0,1-.9,3.146A5.647,5.647,0,0,1,1851.3,3947.774Z" transform="translate(-1839.212 -3935.613)"/><g transform="translate(20.226)"><path d="M1971.343,3935.613q8.473,0,8.473,13.473,0,13.4-8.473,13.4-8.456,0-8.456-13.4Q1962.887,3935.614,1971.343,3935.613Zm0,24.251a4.042,4.042,0,0,0,3.74-2.375q1.276-2.375,1.277-8.4,0-6.045-1.277-8.447a4.1,4.1,0,0,0-7.463,0q-1.276,2.4-1.277,8.447,0,6.027,1.277,8.4A4.03,4.03,0,0,0,1971.343,3959.864Z" transform="translate(-1962.887 -3935.613)"/></g></g><g transform="translate(63.954 17.924)"><path d="M2065.187,3914.456a4.048,4.048,0,1,1,4.049-4.048A4.053,4.053,0,0,1,2065.187,3914.456Zm0-6.554a2.506,2.506,0,1,0,2.506,2.506A2.509,2.509,0,0,0,2065.187,3907.9Z" transform="translate(-2061.139 -3906.359)"/></g></g><g transform="translate(364.229 13.586)"><path d="M2489.048,3856.458h-70.872l-10.546-59.06,3.542-.633,10.017,56.094h64.846l10.017-56.094,3.542.633Z" transform="translate(-2407.63 -3796.765)"/><g transform="translate(4.289 8.384)"><path d="M2506.318,3855.608a9.3,9.3,0,0,1-6.273-2.363,5.952,5.952,0,0,0-8.158,0,9.505,9.505,0,0,1-12.546,0,5.953,5.953,0,0,0-8.157,0,9.505,9.505,0,0,1-12.546,0,5.952,5.952,0,0,0-8.158,0,9.507,9.507,0,0,1-12.545,0,5.77,5.77,0,0,0-4.079-1.618v-3.6a9.3,9.3,0,0,1,6.273,2.363,5.952,5.952,0,0,0,8.158,0,9.506,9.506,0,0,1,12.545,0,5.953,5.953,0,0,0,8.158,0,9.505,9.505,0,0,1,12.545,0,5.953,5.953,0,0,0,8.158,0,9.506,9.506,0,0,1,12.545,0,5.954,5.954,0,0,0,8.159,0,9.3,9.3,0,0,1,6.273-2.363v3.6a5.771,5.771,0,0,0-4.08,1.618A9.3,9.3,0,0,1,2506.318,3855.608Z" transform="translate(-2433.857 -3848.029)"/></g><g transform="translate(26.613 22.708)"><g transform="translate(0 0.106)"><path d="M2588.312,3956.384h-3.51v6.2h-3.35v-6.2h-11.1v-2.942l11.824-17.178h2.623v17.178h3.51Zm-6.86-2.942v-11.913l-7.978,11.913Z" transform="translate(-2570.354 -3936.264)"/></g><g transform="translate(21.273)"><path d="M2708.882,3935.613q8.473,0,8.473,13.473,0,13.4-8.473,13.4-8.456,0-8.456-13.4Q2700.426,3935.614,2708.882,3935.613Zm0,24.251a4.042,4.042,0,0,0,3.74-2.375q1.276-2.375,1.277-8.4,0-6.045-1.277-8.447a4.1,4.1,0,0,0-7.463,0q-1.277,2.4-1.277,8.447,0,6.027,1.277,8.4A4.03,4.03,0,0,0,2708.882,3959.864Z" transform="translate(-2700.426 -3935.613)"/></g></g><g transform="translate(63.954 17.924)"><path d="M2802.726,3914.456a4.048,4.048,0,1,1,4.048-4.048A4.052,4.052,0,0,1,2802.726,3914.456Zm0-6.554a2.506,2.506,0,1,0,2.506,2.506A2.509,2.509,0,0,0,2802.726,3907.9Z" transform="translate(-2798.678 -3906.359)"/></g></g><g transform="translate(484.959 13.586)"><path d="M3227.249,3856.458h-70.872l-10.546-59.06,3.542-.633,10.017,56.094h64.845l10.017-56.094,3.542.633Z" transform="translate(-3145.83 -3796.765)"/><g transform="translate(4.289 8.384)"><path d="M3244.519,3855.608a9.3,9.3,0,0,1-6.273-2.363,5.953,5.953,0,0,0-8.158,0,9.5,9.5,0,0,1-12.545,0,5.953,5.953,0,0,0-8.157,0,9.506,9.506,0,0,1-12.546,0,5.952,5.952,0,0,0-8.157,0,9.508,9.508,0,0,1-12.545,0,5.77,5.77,0,0,0-4.079-1.618v-3.6a9.3,9.3,0,0,1,6.273,2.363,5.952,5.952,0,0,0,8.157,0,9.506,9.506,0,0,1,12.545,0,5.953,5.953,0,0,0,8.158,0,9.506,9.506,0,0,1,12.545,0,5.953,5.953,0,0,0,8.158,0,9.506,9.506,0,0,1,12.545,0,5.954,5.954,0,0,0,8.159,0,9.3,9.3,0,0,1,6.273-2.363v3.6a5.772,5.772,0,0,0-4.08,1.618A9.3,9.3,0,0,1,3244.519,3855.608Z" transform="translate(-3172.058 -3848.029)"/></g><g transform="translate(27.588 22.708)"><g transform="translate(0 0.443)"><path d="M3318.841,3948.624a7.43,7.43,0,0,1,4.822-1.56,7.936,7.936,0,0,1,5.655,2.3,8.061,8.061,0,0,1,2.411,6.124,9.431,9.431,0,0,1-2.419,6.639,8.331,8.331,0,0,1-6.444,2.633,8.89,8.89,0,0,1-5.637-1.826,7.522,7.522,0,0,1-2.712-5.443h3.457a5.178,5.178,0,0,0,1.64,3.5,4.881,4.881,0,0,0,3.253,1.144,4.817,4.817,0,0,0,3.909-1.826,6.9,6.9,0,0,0,1.5-4.521,5.939,5.939,0,0,0-1.524-4.308,5.252,5.252,0,0,0-3.954-1.578,6.109,6.109,0,0,0-4.715,2.145h-2.624l1.1-13.72h13.934v3.084h-11.08Z" transform="translate(-3314.516 -3938.324)"/></g><g transform="translate(20.298)"><path d="M3447.083,3935.613q8.474,0,8.473,13.473,0,13.4-8.473,13.4-8.456,0-8.456-13.4Q3438.627,3935.614,3447.083,3935.613Zm0,24.251a4.043,4.043,0,0,0,3.74-2.375q1.276-2.375,1.276-8.4,0-6.045-1.276-8.447a4.1,4.1,0,0,0-7.463,0q-1.276,2.4-1.277,8.447,0,6.027,1.277,8.4A4.029,4.029,0,0,0,3447.083,3959.864Z" transform="translate(-3438.627 -3935.613)"/></g></g><g transform="translate(63.954 17.924)"><path d="M3540.926,3914.456a4.048,4.048,0,1,1,4.048-4.048A4.053,4.053,0,0,1,3540.926,3914.456Zm0-6.554a2.506,2.506,0,1,0,2.506,2.506A2.509,2.509,0,0,0,3540.926,3907.9Z" transform="translate(-3536.878 -3906.359)"/></g></g><g transform="translate(605.731 13.586)"><path d="M3965.712,3856.458H3894.84l-10.546-59.06,3.542-.633,10.017,56.094H3962.7l10.018-56.094,3.542.633Z" transform="translate(-3884.294 -3796.765)"/><g transform="translate(4.289 8.384)"><path d="M3982.982,3855.608a9.3,9.3,0,0,1-6.272-2.363,5.951,5.951,0,0,0-8.158,0,9.506,9.506,0,0,1-12.545,0,5.952,5.952,0,0,0-8.158,0,9.506,9.506,0,0,1-12.545,0,5.952,5.952,0,0,0-8.157,0,9.508,9.508,0,0,1-12.545,0,5.771,5.771,0,0,0-4.079-1.618v-3.6a9.3,9.3,0,0,1,6.273,2.363,5.952,5.952,0,0,0,8.157,0,9.506,9.506,0,0,1,12.545,0,5.952,5.952,0,0,0,8.158,0,9.506,9.506,0,0,1,12.545,0,5.952,5.952,0,0,0,8.158,0,9.506,9.506,0,0,1,12.545,0,5.953,5.953,0,0,0,8.158,0,9.3,9.3,0,0,1,6.273-2.363v3.6a5.771,5.771,0,0,0-4.08,1.618A9.3,9.3,0,0,1,3982.982,3855.608Z" transform="translate(-3910.522 -3848.029)"/></g><g transform="translate(27.694 22.708)"><path d="M4057.017,3948.022a7.8,7.8,0,0,1,5.9-2.818,7.287,7.287,0,0,1,5.5,2.367,8.4,8.4,0,0,1,2.242,6.018,9.359,9.359,0,0,1-2.225,6.3,7.4,7.4,0,0,1-5.912,2.6,7.617,7.617,0,0,1-6.559-3.253q-2.34-3.253-2.34-9.351,0-14.27,9.183-14.271a7.624,7.624,0,0,1,4.946,1.631,7.191,7.191,0,0,1,2.464,4.839h-3.438q-.444-3.846-4.148-3.847a4.4,4.4,0,0,0-3.874,2.526A16.387,16.387,0,0,0,4057.017,3948.022Zm-.036,2.588a13.6,13.6,0,0,0,1.542,6.86,4.457,4.457,0,0,0,3.936,2.393,4.1,4.1,0,0,0,3.457-1.737,7.038,7.038,0,0,0,1.294-4.326,6.772,6.772,0,0,0-1.321-4.308,4.265,4.265,0,0,0-3.536-1.684Q4059.6,3947.809,4056.982,3950.61Z" transform="translate(-4053.631 -3935.613)"/><g transform="translate(20.191)"><path d="M4185.547,3935.613q8.473,0,8.473,13.473,0,13.4-8.473,13.4-8.457,0-8.456-13.4Q4177.091,3935.614,4185.547,3935.613Zm0,24.251a4.041,4.041,0,0,0,3.74-2.375q1.277-2.375,1.277-8.4,0-6.045-1.277-8.447a4.1,4.1,0,0,0-7.462,0q-1.277,2.4-1.277,8.447,0,6.027,1.277,8.4A4.029,4.029,0,0,0,4185.547,3959.864Z" transform="translate(-4177.091 -3935.613)"/></g></g><g transform="translate(63.954 17.924)"><path d="M4279.39,3914.456a4.048,4.048,0,1,1,4.048-4.048A4.053,4.053,0,0,1,4279.39,3914.456Zm0-6.554a2.506,2.506,0,1,0,2.506,2.506A2.509,2.509,0,0,0,4279.39,3907.9Z" transform="translate(-4275.342 -3906.359)"/></g></g><g transform="translate(726.54 13.586)"><path d="M4704.4,3856.458h-70.872l-10.547-59.06,3.543-.633,10.017,56.094h64.846l10.018-56.094,3.542.633Z" transform="translate(-4622.984 -3796.765)"/><g transform="translate(4.289 8.384)"><path d="M4721.672,3855.608a9.3,9.3,0,0,1-6.272-2.363,5.951,5.951,0,0,0-8.158,0,9.507,9.507,0,0,1-12.546,0,5.952,5.952,0,0,0-8.157,0,9.508,9.508,0,0,1-12.545,0,5.952,5.952,0,0,0-8.158,0,9.506,9.506,0,0,1-12.545,0,5.772,5.772,0,0,0-4.08-1.618v-3.6a9.3,9.3,0,0,1,6.273,2.363,5.952,5.952,0,0,0,8.158,0,9.506,9.506,0,0,1,12.545,0,5.953,5.953,0,0,0,8.158,0,9.506,9.506,0,0,1,12.545,0,5.952,5.952,0,0,0,8.157,0,9.507,9.507,0,0,1,12.546,0,5.953,5.953,0,0,0,8.158,0,9.3,9.3,0,0,1,6.273-2.363v3.6a5.771,5.771,0,0,0-4.08,1.618A9.3,9.3,0,0,1,4721.672,3855.608Z" transform="translate(-4649.211 -3848.029)"/></g><g transform="translate(27.801 22.708)"><g transform="translate(0 0.443)"><path d="M4809.795,3940.682l-9.448,23.63h-3.74l9.7-22.9h-13.331v-3.084h16.823Z" transform="translate(-4792.972 -3938.324)"/></g><g transform="translate(20.085)"><path d="M4924.236,3935.613q8.473,0,8.474,13.473,0,13.4-8.474,13.4-8.455,0-8.456-13.4Q4915.78,3935.614,4924.236,3935.613Zm0,24.251a4.044,4.044,0,0,0,3.741-2.375q1.277-2.375,1.276-8.4,0-6.045-1.276-8.447a4.1,4.1,0,0,0-7.463,0q-1.277,2.4-1.276,8.447,0,6.027,1.276,8.4A4.03,4.03,0,0,0,4924.236,3959.864Z" transform="translate(-4915.78 -3935.613)"/></g></g><g transform="translate(63.954 17.924)"><path d="M5018.082,3914.456a4.048,4.048,0,1,1,4.048-4.048A4.053,4.053,0,0,1,5018.082,3914.456Zm0-6.554a2.506,2.506,0,1,0,2.506,2.506A2.509,2.509,0,0,0,5018.082,3907.9Z" transform="translate(-5014.033 -3906.359)"/></g></g><g transform="translate(847.134 13.586)"><path d="M5441.776,3856.458H5370.9l-10.546-59.06,3.542-.633,10.017,56.094h64.846l10.017-56.094,3.542.633Z" transform="translate(-5360.358 -3796.765)"/><g transform="translate(4.289 8.384)"><path d="M5459.045,3855.608a9.3,9.3,0,0,1-6.272-2.363,5.952,5.952,0,0,0-8.158,0,9.506,9.506,0,0,1-12.545,0,5.952,5.952,0,0,0-8.157,0,9.508,9.508,0,0,1-12.546,0,5.952,5.952,0,0,0-8.157,0,9.507,9.507,0,0,1-12.546,0,5.768,5.768,0,0,0-4.078-1.618v-3.6a9.294,9.294,0,0,1,6.272,2.363,5.952,5.952,0,0,0,8.157,0,9.507,9.507,0,0,1,12.546,0,5.952,5.952,0,0,0,8.157,0,9.507,9.507,0,0,1,12.546,0,5.952,5.952,0,0,0,8.157,0,9.507,9.507,0,0,1,12.546,0,5.952,5.952,0,0,0,8.157,0,9.3,9.3,0,0,1,6.274-2.363v3.6a5.773,5.773,0,0,0-4.08,1.618A9.3,9.3,0,0,1,5459.045,3855.608Z" transform="translate(-5386.585 -3848.029)"/></g><g transform="translate(27.588 22.708)"><path d="M5540.777,3948.394q5.408,2.5,5.407,6.753a6.659,6.659,0,0,1-2.366,5.309,10.494,10.494,0,0,1-12.409,0,6.656,6.656,0,0,1-2.366-5.309q0-4.254,5.406-6.753-4.4-2.535-4.4-6.346a5.852,5.852,0,0,1,2.082-4.627,9.187,9.187,0,0,1,10.947,0,5.865,5.865,0,0,1,2.073,4.627Q5545.156,3945.859,5540.777,3948.394Zm1.95,6.753a3.943,3.943,0,0,0-1.223-2.9,4.352,4.352,0,0,0-7.782,0,3.944,3.944,0,0,0-1.224,2.9,4.41,4.41,0,0,0,1.4,3.458,6.1,6.1,0,0,0,7.419,0A4.4,4.4,0,0,0,5542.728,3955.148Zm-5.123-8.136q4.113-1.844,4.113-4.963a3.627,3.627,0,0,0-1.091-2.8,5,5,0,0,0-6.026,0,3.627,3.627,0,0,0-1.091,2.8Q5533.51,3945.167,5537.6,3947.011Z" transform="translate(-5529.043 -3935.613)"/><g transform="translate(20.298)"><path d="M5661.609,3935.613q8.473,0,8.473,13.473,0,13.4-8.473,13.4-8.457,0-8.456-13.4Q5653.153,3935.614,5661.609,3935.613Zm0,24.251a4.043,4.043,0,0,0,3.74-2.375q1.277-2.375,1.276-8.4,0-6.045-1.276-8.447a4.1,4.1,0,0,0-7.463,0q-1.277,2.4-1.276,8.447,0,6.027,1.276,8.4A4.03,4.03,0,0,0,5661.609,3959.864Z" transform="translate(-5653.153 -3935.613)"/></g></g><g transform="translate(63.954 17.924)"><path d="M5755.454,3914.456a4.048,4.048,0,1,1,4.049-4.048A4.052,4.052,0,0,1,5755.454,3914.456Zm0-6.554a2.506,2.506,0,1,0,2.506,2.506A2.508,2.508,0,0,0,5755.454,3907.9Z" transform="translate(-5751.406 -3906.359)"/></g></g><g transform="translate(967.91 13.586)"><path d="M6180.264,3856.458h-70.873l-10.546-59.06,3.542-.633,10.017,56.094h64.846l10.017-56.094,3.542.633Z" transform="translate(-6098.845 -3796.765)"/><g transform="translate(4.289 8.384)"><path d="M6197.534,3855.608a9.3,9.3,0,0,1-6.272-2.363,5.952,5.952,0,0,0-8.158,0,9.506,9.506,0,0,1-12.545,0,5.952,5.952,0,0,0-8.157,0,9.508,9.508,0,0,1-12.545,0,5.952,5.952,0,0,0-8.158,0,9.506,9.506,0,0,1-12.545,0,5.769,5.769,0,0,0-4.079-1.618v-3.6a9.3,9.3,0,0,1,6.273,2.363,5.952,5.952,0,0,0,8.157,0,9.506,9.506,0,0,1,12.545,0,5.952,5.952,0,0,0,8.158,0,9.506,9.506,0,0,1,12.545,0,5.953,5.953,0,0,0,8.158,0,9.506,9.506,0,0,1,12.545,0,5.953,5.953,0,0,0,8.158,0,9.3,9.3,0,0,1,6.273-2.363v3.6a5.771,5.771,0,0,0-4.08,1.618A9.3,9.3,0,0,1,6197.534,3855.608Z" transform="translate(-6125.073 -3848.029)"/></g><g transform="translate(27.588 22.708)"><path d="M6281.181,3950.06a7.8,7.8,0,0,1-5.921,2.837,7.269,7.269,0,0,1-5.487-2.367,8.4,8.4,0,0,1-2.242-6.019,9.356,9.356,0,0,1,2.225-6.3,7.4,7.4,0,0,1,5.912-2.6,7.623,7.623,0,0,1,6.559,3.245q2.339,3.244,2.34,9.36,0,14.271-9.2,14.271a7.632,7.632,0,0,1-4.937-1.631,7.107,7.107,0,0,1-2.455-4.839h3.439q.425,3.847,4.147,3.847a4.383,4.383,0,0,0,3.865-2.526A16.673,16.673,0,0,0,6281.181,3950.06Zm.035-2.57a13.6,13.6,0,0,0-1.542-6.869,4.459,4.459,0,0,0-3.935-2.384,4.1,4.1,0,0,0-3.457,1.737,7.04,7.04,0,0,0-1.294,4.325,6.734,6.734,0,0,0,1.321,4.3,4.273,4.273,0,0,0,3.536,1.675Q6278.592,3950.273,6281.215,3947.49Z" transform="translate(-6267.531 -3935.613)"/><g transform="translate(20.297)"><path d="M6400.094,3935.613q8.473,0,8.474,13.473,0,13.4-8.474,13.4-8.454,0-8.456-13.4Q6391.638,3935.614,6400.094,3935.613Zm0,24.251a4.044,4.044,0,0,0,3.741-2.375q1.276-2.375,1.276-8.4,0-6.045-1.276-8.447a4.1,4.1,0,0,0-7.464,0q-1.276,2.4-1.276,8.447,0,6.027,1.276,8.4A4.031,4.031,0,0,0,6400.094,3959.864Z" transform="translate(-6391.638 -3935.613)"/></g></g><g transform="translate(63.954 17.924)"><path d="M6493.938,3914.456a4.048,4.048,0,1,1,4.048-4.048A4.052,4.052,0,0,1,6493.938,3914.456Zm0-6.554a2.506,2.506,0,1,0,2.506,2.506A2.508,2.508,0,0,0,6493.938,3907.9Z" transform="translate(-6489.89 -3906.359)"/></g></g><g transform="translate(1088.982 13.586)"><path d="M6920.557,3856.458h-70.872l-10.546-59.06,3.542-.633,10.017,56.094h64.846l10.017-56.094,3.542.633Z" transform="translate(-6839.138 -3796.765)"/><g transform="translate(4.289 8.384)"><path d="M6937.824,3855.608a9.3,9.3,0,0,1-6.273-2.364,5.952,5.952,0,0,0-8.157,0,9.507,9.507,0,0,1-12.546,0,5.953,5.953,0,0,0-8.157,0,9.507,9.507,0,0,1-12.546,0,5.951,5.951,0,0,0-8.158,0,9.508,9.508,0,0,1-12.545,0,5.769,5.769,0,0,0-4.079-1.618v-3.6a9.294,9.294,0,0,1,6.272,2.363,5.952,5.952,0,0,0,8.158,0,9.507,9.507,0,0,1,12.546,0,5.952,5.952,0,0,0,8.157,0,9.506,9.506,0,0,1,12.545,0,5.952,5.952,0,0,0,8.158,0,9.507,9.507,0,0,1,12.546,0,5.953,5.953,0,0,0,8.158,0,9.3,9.3,0,0,1,6.273-2.363v3.6a5.769,5.769,0,0,0-4.079,1.618A9.3,9.3,0,0,1,6937.824,3855.608Z" transform="translate(-6865.363 -3848.029)"/></g><g transform="translate(27.587 22.708)"><path d="M7021.471,3950.06a7.8,7.8,0,0,1-5.921,2.837,7.27,7.27,0,0,1-5.486-2.367,8.4,8.4,0,0,1-2.242-6.019,9.354,9.354,0,0,1,2.225-6.3,7.393,7.393,0,0,1,5.912-2.6,7.624,7.624,0,0,1,6.559,3.245q2.34,3.244,2.339,9.36,0,14.271-9.2,14.27a7.632,7.632,0,0,1-4.937-1.631,7.11,7.11,0,0,1-2.456-4.839h3.439q.426,3.847,4.148,3.846a4.382,4.382,0,0,0,3.865-2.526A16.665,16.665,0,0,0,7021.471,3950.06Zm.036-2.57a13.6,13.6,0,0,0-1.542-6.869,4.46,4.46,0,0,0-3.936-2.384,4.1,4.1,0,0,0-3.457,1.737,7.04,7.04,0,0,0-1.294,4.325,6.73,6.73,0,0,0,1.321,4.3,4.27,4.27,0,0,0,3.536,1.676Q7018.883,3950.273,7021.506,3947.49Z" transform="translate(-7007.821 -3935.613)"/><g transform="translate(20.191 0.443)"><path d="M7135.606,3948.621a7.424,7.424,0,0,1,4.821-1.561,7.937,7.937,0,0,1,5.655,2.3,8.062,8.062,0,0,1,2.411,6.124,9.429,9.429,0,0,1-2.42,6.638,8.33,8.33,0,0,1-6.444,2.633,8.887,8.887,0,0,1-5.637-1.826,7.518,7.518,0,0,1-2.712-5.442h3.456a5.189,5.189,0,0,0,1.64,3.5,4.881,4.881,0,0,0,3.253,1.143,4.816,4.816,0,0,0,3.909-1.825,6.892,6.892,0,0,0,1.5-4.521,5.94,5.94,0,0,0-1.525-4.308,5.254,5.254,0,0,0-3.953-1.578,6.11,6.11,0,0,0-4.715,2.145h-2.624l1.1-13.721h13.934v3.084h-11.08Z" transform="translate(-7131.281 -3938.321)"/></g></g><g transform="translate(66.01 17.924)"><path d="M7246.805,3914.456a4.048,4.048,0,1,1,4.049-4.048A4.052,4.052,0,0,1,7246.805,3914.456Zm0-6.554a2.506,2.506,0,1,0,2.506,2.506A2.508,2.508,0,0,0,7246.805,3907.9Z" transform="translate(-7242.757 -3906.359)"/></g></g><path d="M1014.051,3727.281l-1.5,8.389a9.316,9.316,0,0,0-6.095,2.359,5.953,5.953,0,0,1-8.158,0,9.3,9.3,0,0,0-6.273-2.363,9.994,9.994,0,0,0-1.843.169,80.625,80.625,0,0,0-2.494-8.519,51.632,51.632,0,0,1-2.507-12.36,1.262,1.262,0,0,0-1.26-1.26H961.057a1.263,1.263,0,0,0-1.26,1.267,26.291,26.291,0,0,1-3.328,12.124,25.427,25.427,0,0,0-3.663,8.814,9.808,9.808,0,0,0-2.185-.235,9.3,9.3,0,0,0-6.273,2.363,5.952,5.952,0,0,1-8.158,0,9.388,9.388,0,0,0-5.518-2.334l-1.5-8.413-3.542.633,10.546,59.06h70.872l10.546-59.06Zm-51.777-10.827a.235.235,0,0,1,.23-.224h20a.232.232,0,0,1,.23.21,64.144,64.144,0,0,0,2.552,11.675c1.438,4.326,2.925,8.8,2.925,12.463v18.616a1.931,1.931,0,0,1-1.929,1.929h-.064a1.931,1.931,0,0,1-1.929-1.929v-11.359a1.268,1.268,0,1,0-2.535,0V3768.1a2.358,2.358,0,0,1-2.355,2.356h-.073a2.358,2.358,0,0,1-2.355-2.356v-20.263a1.267,1.267,0,1,0-2.535,0v24.21a2.358,2.358,0,0,1-2.355,2.355h-.073a2.358,2.358,0,0,1-2.355-2.355v-24.21a1.267,1.267,0,1,0-2.535,0V3768.1a2.358,2.358,0,0,1-2.355,2.356h-.073a2.359,2.359,0,0,1-2.355-2.356v-26.8a1.268,1.268,0,1,0-2.535,0v9.4a2.358,2.358,0,0,1-2.355,2.355h-.073a2.358,2.358,0,0,1-2.355-2.355V3739.75c0-5.154,1.852-8.321,3.644-11.384A30.83,30.83,0,0,0,962.274,3716.455Zm41.76,66.921H939.188l-7.85-43.958a6.686,6.686,0,0,1,2.659,1.464,9.5,9.5,0,0,0,12.546,0,6.091,6.091,0,0,1,5.94-1.343c0,.072,0,.14,0,.212V3750.7a4.9,4.9,0,0,0,4.89,4.89h.073a4.863,4.863,0,0,0,2.355-.609V3768.1a4.9,4.9,0,0,0,4.89,4.891h.073a4.87,4.87,0,0,1,7.23,3.946h.089a4.882,4.882,0,0,1,7.245-3.946h.073a4.9,4.9,0,0,0,4.89-4.891v-4.879a4.4,4.4,0,0,0,1.929.44h.064a4.469,4.469,0,0,0,4.464-4.464v-18.616c0-.388-.018-.783-.045-1.182a6.284,6.284,0,0,1,1.328-.132,5.772,5.772,0,0,1,4.079,1.617,9.506,9.506,0,0,0,12.546,0,6.062,6.062,0,0,1,3.25-1.566Z" transform="translate(-803.774 -3713.696)"/><g transform="translate(1100.701 287.799)"><g transform="translate(23.273 17.066)"><path d="M7075.078,5582.126h-17.113v10.325h14.507v4.326h-14.507V5614.4H7053.1v-36.6h21.98Z" transform="translate(-7053.098 -5577.8)"/></g><path d="M6945.059,5541.974a34.264,34.264,0,1,1,34.264-34.264A34.3,34.3,0,0,1,6945.059,5541.974Zm0-64.658a30.395,30.395,0,1,0,30.4,30.395A30.429,30.429,0,0,0,6945.059,5477.315Z" transform="translate(-6910.796 -5473.446)"/></g><g transform="translate(979.629 287.799)"><g transform="translate(24.378 17.066)"><path d="M6341.542,5582.126h-17.113v10.325h14.507v4.326h-14.507V5614.4h-4.868v-36.6h21.981Z" transform="translate(-6319.561 -5577.8)"/></g><path d="M6204.764,5541.974a34.264,34.264,0,1,1,34.264-34.264A34.3,34.3,0,0,1,6204.764,5541.974Zm0-64.658a30.395,30.395,0,1,0,30.4,30.395A30.429,30.429,0,0,0,6204.764,5477.315Z" transform="translate(-6170.501 -5473.446)"/></g><g transform="translate(858.853 287.799)"><path d="M5466.277,5541.975a34.263,34.263,0,1,1,34.263-34.263A34.3,34.3,0,0,1,5466.277,5541.975Zm0-64.657a30.394,30.394,0,1,0,30.394,30.394A30.429,30.429,0,0,0,5466.277,5477.318Z" transform="translate(-5432.014 -5473.449)"/></g><path d="M6200.425,6083.4a34.053,34.053,0,0,0-4.916-17.664l12.463-8.009-2.091-3.254-12.562,8.071a34.208,34.208,0,0,0-54.316,0l-12.561-8.071-2.092,3.254,12.464,8.009a34.18,34.18,0,0,0-.916,33.706l-11.548,7.419,2.092,3.255,11.463-7.366a34.226,34.226,0,0,0,56.513,0l11.463,7.366,2.091-3.255-11.547-7.419A34.048,34.048,0,0,0,6200.425,6083.4Zm-3.868,0a30.2,30.2,0,0,1-3.4,13.941l-23.417-15.047,22.513-14.465A30.21,30.21,0,0,1,6196.557,6083.4Zm-30.4-30.395a30.349,30.349,0,0,1,23.891,11.639l-23.891,15.351-23.891-15.351A30.349,30.349,0,0,1,6166.162,6053Zm-30.394,30.395a30.2,30.2,0,0,1,4.3-15.571l22.513,14.465-23.417,15.047A30.2,30.2,0,0,1,6135.768,6083.4Zm30.394,30.395a30.378,30.378,0,0,1-25-13.137l25-16.064,25,16.064A30.378,30.378,0,0,1,6166.162,6113.79Z" transform="translate(-5152.269 -5667.182)"/><path d="M6940.719,6083.4a34.049,34.049,0,0,0-4.916-17.663l12.464-8.008-2.091-3.254-12.562,8.071a34.209,34.209,0,0,0-54.316,0l-12.561-8.071-2.091,3.254,12.463,8.008a34.179,34.179,0,0,0-.916,33.705l-11.547,7.42,2.091,3.254,11.463-7.366a34.225,34.225,0,0,0,56.512,0l11.463,7.366,2.091-3.254-11.547-7.42A34.053,34.053,0,0,0,6940.719,6083.4Z" transform="translate(-5771.493 -5667.184)"/><g transform="translate(133.574 382.187)"><g transform="translate(25.201 17.066)"><path d="M1173.921,6166a11.816,11.816,0,0,1-.848,4.511,10.807,10.807,0,0,1-2.372,3.6,12.169,12.169,0,0,1-4.474,2.839,19.12,19.12,0,0,1-6.515.947h-3.47v13.643h-4.868v-36.6h8.534a24.109,24.109,0,0,1,5.58.553,12.57,12.57,0,0,1,4.056,1.733,9.884,9.884,0,0,1,3.233,3.491A10.925,10.925,0,0,1,1173.921,6166Zm-5.064.123a7.621,7.621,0,0,0-.664-3.294,5.52,5.52,0,0,0-2.016-2.286,8.139,8.139,0,0,0-2.692-1.094,18.25,18.25,0,0,0-3.822-.333h-3.421v14.627h2.708a17.857,17.857,0,0,0,4.794-.528,6.791,6.791,0,0,0,3-1.684,7.046,7.046,0,0,0,1.635-2.483A8.421,8.421,0,0,0,1168.857,6166.12Z" transform="translate(-1151.375 -6154.935)"/></g><path d="M1031.549,6119.109a34.263,34.263,0,1,1,34.263-34.263A34.3,34.3,0,0,1,1031.549,6119.109Zm0-64.657a30.394,30.394,0,1,0,30.395,30.394A30.428,30.428,0,0,0,1031.549,6054.452Z" transform="translate(-997.286 -6050.583)"/></g><g transform="translate(496.678 381.95)"><g transform="translate(17.694 14.856)"><path d="M3358.817,6176.574h-5.187l-3.589-10.2h-15.831l-3.589,10.2h-4.941l13.324-36.6h6.49Zm-10.276-14.381-6.416-17.97-6.441,17.97Z" transform="translate(-3325.679 -6139.97)"/></g><path d="M3251.749,6117.661a34.263,34.263,0,1,1,34.263-34.264A34.3,34.3,0,0,1,3251.749,6117.661Zm0-64.658a30.395,30.395,0,1,0,30.395,30.394A30.429,30.429,0,0,0,3251.749,6053Z" transform="translate(-3217.486 -6049.135)"/></g><g transform="translate(617.45 381.949)"><g transform="translate(13.461 19.807)"><path d="M4075.316,6170.244l-7.007,27.714-6.9-27.714H4056.7l-6.9,27.714-7.007-27.714h-4.544l8.82,33.333h5.516l6.466-26.118,6.466,26.118h5.516l8.82-33.333Z" transform="translate(-4038.255 -6170.244)"/></g><path d="M3990.213,6117.658a34.263,34.263,0,1,1,34.263-34.263A34.3,34.3,0,0,1,3990.213,6117.658Zm0-64.658a30.395,30.395,0,1,0,30.395,30.395A30.429,30.429,0,0,0,3990.213,6053Z" transform="translate(-3955.949 -6049.131)"/></g><g transform="translate(255.328 381.91)"><g transform="translate(25.201 17.066)"><path d="M1918.385,6164.306a11.821,11.821,0,0,1-.848,4.512,10.8,10.8,0,0,1-2.372,3.6,12.163,12.163,0,0,1-4.474,2.839,19.133,19.133,0,0,1-6.514.946h-3.47v13.644h-4.868v-36.6h8.534a24.134,24.134,0,0,1,5.58.553,12.561,12.561,0,0,1,4.056,1.733,9.89,9.89,0,0,1,3.233,3.49A10.932,10.932,0,0,1,1918.385,6164.306Zm-5.064.124a7.623,7.623,0,0,0-.664-3.294,5.523,5.523,0,0,0-2.016-2.286,8.123,8.123,0,0,0-2.692-1.094,18.29,18.29,0,0,0-3.823-.332h-3.421v14.627h2.707a17.834,17.834,0,0,0,4.794-.529,6.788,6.788,0,0,0,3-1.684,7.052,7.052,0,0,0,1.635-2.483A8.42,8.42,0,0,0,1913.321,6164.429Z" transform="translate(-1895.839 -6153.244)"/></g><path d="M1776.012,6117.418a34.263,34.263,0,1,1,34.263-34.263A34.3,34.3,0,0,1,1776.012,6117.418Zm0-64.657a30.394,30.394,0,1,0,30.395,30.394A30.429,30.429,0,0,0,1776.012,6052.762Z" transform="translate(-1741.749 -6048.893)"/><g transform="translate(0 73.771)"><path d="M1808.341,6503.833h-64.658a1.934,1.934,0,1,1,0-3.869h64.658a1.934,1.934,0,0,1,0,3.869Z" transform="translate(-1741.749 -6499.965)"/></g></g><g transform="translate(1100.701 360.711)"><path d="M6977.388,5923.141H6912.73a1.935,1.935,0,0,1,0-3.869h64.657a1.935,1.935,0,0,1,0,3.869Z" transform="translate(-6910.796 -5919.271)"/></g><g transform="translate(738.259 381.848)"><g transform="translate(13.46 19.807)"><path d="M4814.007,6169.624,4807,6197.337l-6.9-27.713h-4.713l-6.9,27.713-7.007-27.713h-4.544l8.82,33.333h5.516l6.466-26.118,6.466,26.118h5.517l8.82-33.333Z" transform="translate(-4776.946 -6169.624)"/></g><path d="M4728.9,6117.038a34.263,34.263,0,1,1,34.264-34.264A34.3,34.3,0,0,1,4728.9,6117.038Zm0-64.658a30.395,30.395,0,1,0,30.4,30.395A30.429,30.429,0,0,0,4728.9,6052.38Z" transform="translate(-4694.642 -6048.511)"/><g transform="translate(0 74.876)"><path d="M4761.234,6510.211h-64.657a1.934,1.934,0,1,1,0-3.869h64.657a1.934,1.934,0,1,1,0,3.869Z" transform="translate(-4694.642 -6506.343)"/></g></g><g transform="translate(858.853 382.016)"><g transform="translate(13.461 19.808)"><path d="M5551.381,6170.652l-7.007,27.714-6.9-27.714h-4.713l-6.895,27.714-7.007-27.714h-4.544l8.82,33.333h5.517l6.466-26.117,6.466,26.117h5.517l8.82-33.333Z" transform="translate(-5514.32 -6170.652)"/></g><path d="M5466.277,6118.064a34.263,34.263,0,1,1,34.263-34.263A34.3,34.3,0,0,1,5466.277,6118.064Zm0-64.658a30.395,30.395,0,1,0,30.394,30.395A30.428,30.428,0,0,0,5466.277,6053.407Z" transform="translate(-5432.014 -6049.538)"/><g transform="translate(0 74.876)"><path d="M5498.606,6511.239h-64.658a1.934,1.934,0,0,1,0-3.869h64.658a1.934,1.934,0,0,1,0,3.869Z" transform="translate(-5432.014 -6507.37)"/></g><g transform="translate(0 84.087)"><path d="M5498.606,6567.559h-64.658a1.934,1.934,0,0,1,0-3.869h64.658a1.934,1.934,0,0,1,0,3.869Z" transform="translate(-5432.014 -6563.69)"/></g></g><g transform="translate(375.948 381.91)"><g transform="translate(25.201 17.066)"><path d="M2655.921,6164.309a11.82,11.82,0,0,1-.849,4.511,10.809,10.809,0,0,1-2.372,3.6,12.173,12.173,0,0,1-4.474,2.839,19.144,19.144,0,0,1-6.514.946h-3.47v13.643h-4.868v-36.6h8.534a24.142,24.142,0,0,1,5.581.553,12.575,12.575,0,0,1,4.056,1.733,9.886,9.886,0,0,1,3.232,3.491A10.926,10.926,0,0,1,2655.921,6164.309Zm-5.064.122a7.615,7.615,0,0,0-.664-3.293,5.52,5.52,0,0,0-2.015-2.286,8.121,8.121,0,0,0-2.692-1.094,18.214,18.214,0,0,0-3.822-.333h-3.42v14.627h2.708a17.858,17.858,0,0,0,4.794-.528,6.8,6.8,0,0,0,3-1.684,7.047,7.047,0,0,0,1.634-2.483A8.417,8.417,0,0,0,2650.857,6164.431Z" transform="translate(-2633.375 -6153.246)"/></g><path d="M2513.549,6117.419a34.263,34.263,0,1,1,34.263-34.263A34.3,34.3,0,0,1,2513.549,6117.419Zm0-64.657a30.394,30.394,0,1,0,30.395,30.394A30.429,30.429,0,0,0,2513.549,6052.762Z" transform="translate(-2479.286 -6048.893)"/><g transform="translate(0 73.771)"><path d="M2545.878,6503.836H2481.22a1.934,1.934,0,1,1,0-3.868h64.658a1.934,1.934,0,1,1,0,3.868Z" transform="translate(-2479.286 -6499.968)"/></g><g transform="translate(0 82.982)"><path d="M2545.878,6560.153H2481.22a1.934,1.934,0,0,1,0-3.868h64.658a1.934,1.934,0,1,1,0,3.868Z" transform="translate(-2479.286 -6556.285)"/></g></g><g transform="translate(11.719 382.187)"><g transform="translate(24.378 17.066)"><path d="M423.24,6159.262H406.127v10.324h14.507v4.327H406.127v17.626h-4.868v-36.6H423.24Z" transform="translate(-401.259 -6154.935)"/></g><path d="M286.463,6119.11a34.263,34.263,0,1,1,34.263-34.264A34.3,34.3,0,0,1,286.463,6119.11Zm0-64.658a30.395,30.395,0,1,0,30.395,30.394A30.429,30.429,0,0,0,286.463,6054.453Z" transform="translate(-252.2 -6050.584)"/><g transform="translate(0 73.771)"><path d="M318.794,6505.526H254.136a1.935,1.935,0,0,1,0-3.869h64.658a1.935,1.935,0,0,1,0,3.869Z" transform="translate(-252.202 -6501.657)"/></g><g transform="translate(0 82.981)"><path d="M318.794,6561.842H254.136a1.934,1.934,0,0,1,0-3.869h64.658a1.934,1.934,0,0,1,0,3.869Z" transform="translate(-252.202 -6557.973)"/></g></g></g></g></svg>