<svg xmlns="http://www.w3.org/2000/svg" width="140.983" height="129.772" viewBox="0 0 140.983 129.772"><path d="M-943.87,526.267a5.823,5.823,0,0,1,1.654-3.788,1.271,1.271,0,0,0,.313-1.5,23.555,23.555,0,0,1-1.215-4.906c.677.184.746.774.9,1.319.287,1.04.58,2.08.89,3.113.119.4.089,1,.823.734.562-.207.588-.606.422-1.1-.127-.376-.215-.765-.329-1.146A28.092,28.092,0,0,1-942,510.487c.027-1.654.413-3.248,2.015-4.065a6.465,6.465,0,0,1,6.229,0c1.868,1.008,2.021,2.873,2,4.753a13.481,13.481,0,0,1-.422,3.2c-.491,1.916-.943,3.842-1.448,5.754-.13.49-.219.865.363,1.1.746.306.693-.279.822-.688.7-2.222,1.239-4.481,1.728-6.76.389-1.811.077-3.626.3-5.426,1.159,1.407.64,3.031.491,4.554a33.8,33.8,0,0,1-1.705,7.287,2.37,2.37,0,0,0,.42,2.632,7.011,7.011,0,0,1,1.392,5.639c-.187,1.712.833,1.5,1.869,1.5s1.657-.113,1.485-1.522c-.271-2.21-.038-4.427,1.754-6.081.631-.582.324-1.116.157-1.7a43.434,43.434,0,0,1-1.913-8.638c-.21-2.7.011-5.339,2.483-7.022a8.349,8.349,0,0,1,8.147-.594,5.077,5.077,0,0,1,3.088,3.438,10.891,10.891,0,0,1-.226,7.009c-.638-.73-.212-1.511-.108-2.274.807-5.91-2.578-9.163-8.295-7.969a5.074,5.074,0,0,0-4.309,4.627c-.49,3.423.523,6.638,1.43,9.854.211.749.1,2.055,1.012,2.092,1.46.058-.021-1.418.69-1.916a2.084,2.084,0,0,0,2.781,1.216,2.961,2.961,0,0,1,1.517.067c.934.26,1.348-.053,1.534-.979.362-1.794.881-3.541,1.16-5.373a18.934,18.934,0,0,0,.515-4.436,3.3,3.3,0,0,0-2.1-3.046c-3.946-1.585-6.933.5-6.711,4.706a10.208,10.208,0,0,0,.165,1.352c.379,2,.773,4,1.162,6-.215-.17-.565-.3-.626-.516-.8-2.837-1.644-5.682-1.328-8.681a4.032,4.032,0,0,1,2.228-3.412c4.127-2.041,8.027.369,7.935,4.916a22.815,22.815,0,0,1-.287,2.7,43.016,43.016,0,0,1-1.62,6.423.727.727,0,0,0,.494,1.05c.617.227.618-.29.722-.649.347-1.2.618-2.423,1.048-3.589.272-.738-.064-1.787.995-2.167a23.59,23.59,0,0,1-1.275,5.624c-.154.579-.525,1.208.032,1.765a7.189,7.189,0,0,1,1.848,6.156c-.184,1.834.984,1.472,2.031,1.567,1.157.106,1.6-.193,1.495-1.474-.176-2.192.1-4.343,1.758-6.024.625-.633.313-1.264.125-1.9a50.144,50.144,0,0,1-1.838-7.876c-.522-4.033.632-6.827,3.4-8.2a3.876,3.876,0,0,1,1.956-.5c.512.614.7.215.859-.274l2.556.212.685.078c3.475,1.426,4.8,3.419,4.668,7.237a33.887,33.887,0,0,1-1.949,9.307,2,2,0,0,0,.44,2.264,6.724,6.724,0,0,1,1.451,5.6c-.2,1.368.262,1.707,1.476,1.613.986-.076,2.118.219,1.871-1.51a9,9,0,0,1,.987-5.285,2.894,2.894,0,0,0,.948-1.563c.082-.265.068-.69.428-.588,2.792.794,1.324-1.153,1.136-1.921-.7-2.87-1.642-5.692-1.545-8.7.058-1.786.532-3.4,2.348-4.215,4.39-1.97,8.033.432,7.885,5.192a14.854,14.854,0,0,1-.157,1.524,44.713,44.713,0,0,1-1.725,7.112c-.144.47-.234.865.319,1.149s.734-.076.84-.472c.962-3.614,2.374-7.172,1.932-11.006-.435-3.773-2.645-5.392-6.827-5.229-3.667.143-5.7,2.088-5.909,5.707a15.415,15.415,0,0,0,.126,2.548,38.289,38.289,0,0,0,1.293,5.994c.126.456.664,1.163-.44,1.217-.5-2.39-1.3-4.714-1.567-7.157a12.669,12.669,0,0,1,.21-4.576,5.177,5.177,0,0,1,2.737-3.534,8.5,8.5,0,0,1,8.2.064c2.583,1.425,3.036,4,2.944,6.648a37.222,37.222,0,0,1-1.938,9.155c-.182.621-.535,1.212.131,1.869a6.828,6.828,0,0,1,1.76,6.007c-.21,1.688.784,1.528,1.811,1.572,1.065.045,1.81-.025,1.631-1.513a7.1,7.1,0,0,1,1.808-6.167c.549-.552.246-1.028.1-1.556-.742-2.736-1.7-5.423-1.842-8.293.742-.625.648-1.123-.228-1.5,0-.12.007-.239.01-.36.235-.087.513-.126.564-.439.047-.285-.19-.315-.375-.386.459-4.123,3-6.2,7.371-6.033,4.209.163,6.578,2.5,6.7,6.6.1,3.532-.958,6.845-1.886,10.185-.161.578-.55,1.175.021,1.751,1.762,1.778,2.054,4.022,1.831,6.337-.162,1.682.929,1.332,1.835,1.349.933.018,1.736.085,1.564-1.41-.265-2.3.019-4.565,1.83-6.323.6-.582.165-1.166-.01-1.736a31.25,31.25,0,0,1-1.861-10.313c.129-3.583,2.007-5.761,5.3-6.281,4.083-.646,7.208.69,8.312,3.665.949,2.557.562,5.169-.012,7.735a55.067,55.067,0,0,1-1.516,5.463c-.183.548-.309.968.088,1.363,1.823,1.817,2.067,4.1,1.938,6.484-.04.737-.072,1.39.97,1.336,1.4-.073,1.086.958,1.125,1.771.053,1.132-.761.99-1.4.869-1.025-.2-1.461.2-1.6,1.173a8.318,8.318,0,0,1-.471,1.811c-.661,1.7-.929,3.213.476,4.829,1.165,1.34,1,3.212.9,4.924-.054.874.07,1.424,1.12,1.4,1.333-.034.889,1.015.971,1.723.108.933-.506,1.087-1.181.928-1.32-.313-1.694.4-1.854,1.494a7.631,7.631,0,0,1-.434,1.648c-.634,1.637-.929,3.063.487,4.645,1.161,1.3.993,3.213.887,4.928-.054.873.093,1.433,1.12,1.407,1.455-.037.968,1.079,1.033,1.83.1,1.174-.744.95-1.378.809-1.118-.249-1.524.289-1.694,1.27a9.773,9.773,0,0,1-.444,1.645c-.631,1.745-.994,3.3.515,4.982,1.109,1.237.947,3.107.855,4.767-.045.818-.04,1.48,1.059,1.461,1.44-.026.967,1.092,1.028,1.844.1,1.239-.835.844-1.4.75-1.022-.169-1.456.219-1.585,1.2a7.945,7.945,0,0,1-.474,1.813c-.637,1.643-.852,3.086.471,4.663,1.172,1.4,1,3.331.893,5.1-.053.873.053,1.421,1.1,1.424,1.438,0,.917,1.138.983,1.886.094,1.065-.7.879-1.27.74-1.184-.29-1.665.192-1.789,1.32a5.508,5.508,0,0,1-.429,1.643,3.973,3.973,0,0,0,.5,4.647c1.161,1.414,1,3.333.9,5.1-.047.831.121,1.312,1.073,1.256,1.328-.078.962.937,1.036,1.665.108,1.058-.6,1.128-1.308.97-1.108-.246-1.475.25-1.725,1.243-.652,2.586-1.409,5.146-2.124,7.717-1.087-.036-.578-.7-.444-1.178.663-2.349,1.343-4.693,2.019-7.038.151-.526.245-1.04-.47-1.211s-.66.433-.774.836c-.939,3.334-1.9,6.663-2.8,10.008a3.6,3.6,0,0,0,1.97,4.555,10.419,10.419,0,0,0,3.572,1.076c.465.073,1.234.453,1.36-.466s-.632-.729-1.159-.8a6.84,6.84,0,0,1-3.921-1.484c-1.072-.979-1.02-2.484.051-2.943-.206,2.554.744,3.4,4.182,3.776.657.072,1.533-.231,1.583,1s-.134,2.016-1.635,1.663c-.883-.208-1.808-.26-2.671-.526-3.709-1.141-4.831-3.148-3.816-6.847.812-2.96,1.713-5.9,2.533-8.854.151-.544.544-1.2-.274-1.646-2.837-1.563-3.14-3.94-2.116-6.725.495-1.345-.066-1.686-1.363-1.616-1.056.057-1.419.282-1.045,1.407.519,1.565.987,3.2.134,4.807-.26.49-.606,1.116-1.062,1.29-2.189.835-1.485,2.349-1.047,3.846.782,2.672,1.593,5.336,2.307,8.026.767,2.888-.146,4.792-2.883,5.915a12.6,12.6,0,0,1-9.814.066c-2.75-1.115-3.694-2.983-2.95-5.852.827-3.192,1.778-6.351,2.663-9.528.182-.653.34-1.21-.436-1.767-2.7-1.938-2.957-2.87-2.056-6.271.247-.932.748-1.93-.978-1.943-1.286-.01-1.745.283-1.274,1.667.922,2.714.824,5.194-2.174,6.676-.76.376-.4.952-.256,1.472.857,3.067,1.765,6.119,2.579,9.2.93,3.516-.209,5.545-3.662,6.656a13.222,13.222,0,0,1-8.715-.205c-2.911-1.044-3.994-3.044-3.223-6.022.826-3.193,1.781-6.352,2.67-9.529.181-.647.389-1.188-.451-1.721-2.406-1.528-2.843-2.81-2.206-5.632.088-.389.192-.773.277-1.162.094-.427.413-1.008-.118-1.218a2.948,2.948,0,0,0-2.176.012c-.526.222-.242.8-.125,1.221a7.37,7.37,0,0,1,.378,4.181,3.792,3.792,0,0,1-1.995,2.443c-.953.452-1.03,1-.765,1.9.906,3.053,1.787,6.114,2.623,9.187.886,3.257-.155,5.289-3.346,6.4a12.176,12.176,0,0,1-9.789-.428c-2.674-1.347-3.053-2.841-2.4-5.7.728-3.211,1.724-6.364,2.658-9.526a1.3,1.3,0,0,0-.671-1.761c-2.447-1.627-2.91-3.143-1.853-6.378.161-.493.707-1.142.011-1.51a2.437,2.437,0,0,0-2.155,0c-.589.294-.234.925-.11,1.388.4,1.49.885,2.973.168,4.493-.344.73-.78,1.593-1.533,1.759-2.095.462-1.377,1.9-.984,2.93a90.347,90.347,0,0,1,2.646,8.8,4.342,4.342,0,0,1-2.746,5.674,12.562,12.562,0,0,1-10.433-.13c-2.582-1.138-3.416-2.951-2.7-5.694.777-2.971,1.63-5.923,2.534-8.857.392-1.272.531-2.317-.977-2.9a.34.34,0,0,1-.137-.553,4.537,4.537,0,0,1,.794.238,13.116,13.116,0,0,0,9.093,1.077c3.325-.748,4.65-2.751,3.78-5.915-.187-.679-.077-2.023-.953-1.825-1.432.323-.343,1.516-.2,2.241.447,2.247-.05,3.247-2.247,4.014a12.126,12.126,0,0,1-6.715.15c-2.924-.636-3.646-1.846-2.881-4.759.072-.273.171-.54.257-.81a.78.78,0,0,0-.557-1.067c-.6-.2-.564.366-.694.7-.788,2.04-.961,4.046.34,5.967a3.157,3.157,0,0,1-1.637-3.693c.139-.829.377-1.643.57-2.463.143-.329.553-.78-.062-.935a3.074,3.074,0,0,0-2.458.09c-.49.335-.037,1.025.2,1.527.118,1.336.776,2.637.2,4.019a3.383,3.383,0,0,1-1.548,1.972c-1.561.678-1.4,1.7-.992,3.018.9,2.874,1.728,5.772,2.506,8.681.764,2.855-.186,4.793-2.91,5.892a12.479,12.479,0,0,1-9.654.1c-3.223-1.314-4.039-3.372-2.965-7.068.819-2.818,1.8-5.594,2.581-8.428.163-.592.39-1.185-.4-1.612-2.71-1.468-3.04-3.783-2.109-6.43.363-1.03.35-1.764-.793-2.168l.679-.093,1.7.086a4.829,4.829,0,0,1,2.433,4.7c-.01.454-.039.907-.03,1.36a.69.69,0,0,0,.785.7c.472,0,.475-.406.5-.736.206-2.432-.066-5.63-3.017-6.966a8.18,8.18,0,0,0-4.4-.57,5.431,5.431,0,0,0-1.978.3c-2.5,1.2-3.338,3.27-3.413,5.8-.022.744-.389,2.047.692,2.049,1.114,0,.567-1.279.572-1.967.019-2.623,1.33-5.284,4.771-4.656a1.324,1.324,0,0,0-.779,1.927c.938,2.709.831,5.187-2.122,6.7-.738.379-.449.934-.3,1.467.883,3.171,1.811,6.33,2.65,9.513.816,3.1-.209,5.033-3.208,6.156a13.045,13.045,0,0,1-9.338-.056c-2.821-1.041-3.89-2.993-3.156-5.91.817-3.246,1.767-6.461,2.73-9.668.26-.866.167-1.365-.7-1.746-1.551-.68-1.95-2.231-2.569-3.6l-.012-.01c.652-1.153.566-2.519,1.059-3.722.066-.161-.021-.55-.126-.588a3.469,3.469,0,0,0-2.328-.037c-.713.255-.243.9-.106,1.307a9.341,9.341,0,0,1,.283,3.01l.036.7-.08.743c-.313-.033-.743.069-.552-.514.457-1.4-.141-2.681-.468-3.986-.094-.376-.019-1.049-.747-.835-.639.187-.655.67-.452,1.233.173.479.277.983.4,1.477a2.612,2.612,0,0,1-1.72,3.42,10.864,10.864,0,0,1-8.613-.049c-1.434-.636-2.123-1.64-1.62-3.26a19.364,19.364,0,0,0,.456-1.987c.078-.4-.167-.625-.5-.795-.351-.18-.454.024-.619.3-1.862,3.088-.672,6.236,2.769,7.335a12.761,12.761,0,0,0,10.6-1.362c.026.293.023.661-.257.757-2.117.732-1.38,2.2-.98,3.606.807,2.821,1.6,5.646,2.406,8.467a4.189,4.189,0,0,1-2.18,5.189,12.056,12.056,0,0,1-11.462.014c-2.125-1.093-2.779-2.917-2.089-5.531.826-3.129,1.737-6.237,2.675-9.335a1.435,1.435,0,0,0-.756-2.017c-2.193-1.311-2.542-2.942-1.679-6.293.414-1.6.171-1.856-1.484-1.709-.789.07-1.168.338-.927,1.177.157.546.288,1.1.415,1.653.544,2.376.072,3.872-1.932,5.139a1.612,1.612,0,0,0-.792,2.087c.364,1.536,1.115,2.989,1.035,4.623l-.417.346q-.246-.869-.492-1.739c-.295-1.138-.582-2.278-.888-3.413-.106-.392-.007-1-.709-.894s-.7.592-.529,1.144c.382,1.226.751,2.456,1.126,3.684l.372,1.253.29,1.043.193.628c.274,1.1.508,2.207.831,3.291a2.579,2.579,0,0,1-1.666,3.423,9.859,9.859,0,0,1-3.293.808c-.469.037-.746.2-.725.718.018.424.225.54.636.593,4.258.544,7.169-2.732,6.028-6.811-.122-.438-.3-.864-.378-1.308-.088-.474.315-.327.558-.365.117.32.255.633.347.96,1.455,5.169-1.529,8.664-6.983,8.243-.818-.063-.958-.457-.892-1.092.068-.652-.352-1.583.909-1.6a9.392,9.392,0,0,0,3.485-.76,1.936,1.936,0,0,0,1.323-2.567c-.96-3.335-1.923-6.669-2.825-10.019-.225-.836-.687-.86-1.378-.791s-1.594.383-1.528-.9c.041-.8-.3-1.847,1.137-1.726.8.068.958-.4.915-1.066-.162-2.508.129-4.88,1.984-6.806.383-.4.138-.872.026-1.3-.246-.934-.6-1.845-.791-2.789-.281-1.388-.61-2.576-2.474-1.97-.584.19-.892-.189-.775-.747.134-.639-.532-1.772.58-1.826,1.648-.08,1.57-.993,1.49-2.142a7.265,7.265,0,0,1,1.72-5.716,1.435,1.435,0,0,0,.209-1.578,24.063,24.063,0,0,1-.853-2.947c-.219-1.352-.6-2.247-2.254-1.865-.964.224-.953-.562-.9-1.193.049-.563-.409-1.518.9-1.265.946.183,1.183-.427,1.141-1.227-.134-2.5.1-4.894,2-6.808.388-.391.131-.869.014-1.294-.288-1.041-.7-2.057-.889-3.114-.234-1.342-.632-2.255-2.268-1.849-.8.2-.968-.394-.93-1.026.036-.61-.41-1.592.676-1.592,1.615,0,1.482-1,1.431-2.053a7.077,7.077,0,0,1,1.729-5.539c.858-.9.229-1.795-.119-2.51a7.757,7.757,0,0,1-.858-3.212c.043-.73-.409-.993-1.111-.849-1.29.265-1.908-.127-1.742-1.571.079-.687.24-1.121.96-1.07,1.072.076,1.2-.513,1.146-1.378-.144-2.328.085-4.564,1.848-6.343.445-.449.252-.952.117-1.44-.272-.987-.6-1.958-.835-2.954-.291-1.259-.492-2.487-2.326-1.99-.8.217-.945-.432-.88-1.058.063-.6-.364-1.58.742-1.553,1.36.033,1.413-.7,1.34-1.717a7.4,7.4,0,0,1,1.809-6.019c.636-.659.194-1.295.02-1.906-.951-3.341-1.979-6.664-1.85-10.2a6.51,6.51,0,0,1,4.893-6.433,7.126,7.126,0,0,1,9.273,7.539,38.113,38.113,0,0,1-1.912,9.161,2,2,0,0,0,.4,2.289c1.51,1.621,1.67,3.729,1.438,5.789-.159,1.416.518,1.514,1.544,1.447.9-.059,2,.311,1.846-1.367-.206-2.312.054-4.573,1.818-6.351.58-.585.21-1.181.044-1.749a51.034,51.034,0,0,1-1.712-7.13,18.532,18.532,0,0,1-.186-2.038c-.087-2.824.451-5.444,3.261-6.79a8.25,8.25,0,0,1,8.723.719c1.551,1.085,2.021,2.842,2.147,4.643.239,3.417-.726,6.65-1.676,9.868-.366,1.239-.575,2.229.495,3.352a5.948,5.948,0,0,1,1.2,4.679c-.145,2.01-.429,2.172,2.224,2.162a7.819,7.819,0,0,0,1.011-.132c.236-.143.515-.453.7-.4,1.9.493,1.319-.89,1.39-1.782.041-.509.043-1.024.129-1.525a3.864,3.864,0,0,1,3.268-3.469c2.135-.4,4.218-.393,5.845,1.361.315.34.682,1.28.514,1.264-1.494-.145-.886,1.5-1.74,1.985-.345-1,.19-1.743.352-2.532a.764.764,0,0,0-.471-.96c-.326-.153-.5.031-.68.288a4.625,4.625,0,0,0,2.024,7,12.124,12.124,0,0,0,7.689.515c3.8-.89,4.883-2.657,3.865-6.437-.141-.525.1-1.662-.921-1.394-.882.232-.414,1.134-.284,1.774.068.333.148.665.248.989a2.466,2.466,0,0,1-1.643,3.277,10.85,10.85,0,0,1-8.622.023,2.325,2.325,0,0,1-1.672-1.868c.823-.085.8.942,1.511.8.439-.876-.106-1.922.466-3.207a9.541,9.541,0,0,1,.339,3.332.66.66,0,0,0,.6.7c.423.064.577-.153.7-.536a6.256,6.256,0,0,0-3.986-7.53c-.54-.169-1.165-.171-1.18-.959.4.041.925.457,1.123-.234.952-3.333,2.314-6.583,2.082-10.16-.148-2.276-1.2-3.419-3.445-3.71-3.986-.518-5.894,1.47-5.368,5.688a39.806,39.806,0,0,0,2.007,8.262c.371.444,1.177.806-.165,1.168a4.9,4.9,0,0,0-3.62,3.872C-943.159,525.905-943.256,526.322-943.87,526.267Zm23.388,36.8-.042.068-.778.925c-.486.8-2.191.551-1.83,2.051.331,1.375.765,2.725,1.141,4.089.129.468.28.744.894.769,4.074.162,4.074.183,5.114-3.778a.889.889,0,0,1,.049-.163c.63-1.327.121-2.135-1.177-2.584l-1.6-2.085.009-.06a10.531,10.531,0,0,1,.5-4.168c.1-.417.6-1.041-.112-1.33a2.741,2.741,0,0,0-2.3.05c-.505.273-.277.965-.088,1.387a8.349,8.349,0,0,1,.527,4.15l-.02.041A.648.648,0,0,0-920.482,563.07Zm-37-21.67-.106.421c-1.288.542-1.555,1.556-.963,3.7a1.285,1.285,0,0,0,.839-1.464,1.314,1.314,0,0,1,.587-1.291q0,1.243,0,2.486c-1.771,2.524-7.907,2.867-10.945,1.005a2.219,2.219,0,0,1-1.081-2.764,21.184,21.184,0,0,0,.487-2.154.732.732,0,0,0-.45-.824c-.331-.182-.456-.018-.637.262a4.678,4.678,0,0,0,2.532,7.276,12.059,12.059,0,0,0,6.706.371c1.611-.394,3.208-.787,4.155-2.344a2.876,2.876,0,0,0,.566-2.386c-.113-.77-.477-1.526-.067-2.309.116.12.29.22.341.363,1.039,2.916.581,4.494-1.977,6.31a1.159,1.159,0,0,0-.547,1.566c.649,1.5.149,3.835,1.823,4.474,2.825,1.078,4.219.062,5-2.838a8.058,8.058,0,0,1,.324-1.147,1.556,1.556,0,0,0-.831-2.321,3.934,3.934,0,0,1-1.919-4.535,12,12,0,0,1,.5-1.979c.348-.971.061-1.424-.969-1.362-.551.033-1.144-.163-1.637.251l-1.313.366-.411.27C-957.744,541-957.721,541.2-957.481,541.4Zm4.2,21.727-.041-.051a6.976,6.976,0,0,1-.038-4.327c.16-.626.9-1.479.049-1.962a2.309,2.309,0,0,0-2.288.049c-.646.463-.011,1.219.152,1.819a5.909,5.909,0,0,1-.264,4.763l-1.711,1.472-.351.22-.306.155-1.409.486a.371.371,0,0,0-.309.106c-.637-.228-.573.617-1.026.669-1.405-.832-2.93-.109-4.386-.312-.088-.012-.276.323-.334.52-.475,1.634-.931,3.273-1.389,4.911a.891.891,0,0,0,.252.93,6.848,6.848,0,0,1,1.768,6.136c-.194,1.4.523,1.6,1.671,1.568,1.1-.034,2.033.035,1.8-1.592-.239-1.65-.22-3.543.891-4.738,1.718-1.846.99-3.49.254-5.262a2.3,2.3,0,0,1-.175-1.146l.674.005a16.107,16.107,0,0,0,.947,3.22c.189.355.1,1.027.829.757.686-.255.459-.731.324-1.259-.3-1.175-.932-2.3-.7-3.746.883,1.079.921,2.309,1.332,3.391.155.407.169,1.005.739,1.02,1.359.037,2.843.312,4.04-.137.881-.33.86-1.833,1.05-2.879,1.245.089.549.9.383,1.3-.554,1.312-.475,2.291,1.05,2.773a1.511,1.511,0,0,0-.068.329c-.743.405-1.242-.289-1.858-.438-4.678-1.127-9.505.194-9.051,6.738.033.474-.262,1.285.706,1.208.753-.06.593-.683.6-1.179a18.522,18.522,0,0,1,.042-2.04c.3-2.445,1.957-3.77,4.784-3.879s4.62,1.085,5.2,3.387a10.207,10.207,0,0,1,.176,2.875c-.016.457.125.8.619.839.606.053.577-.434.592-.812.088-2.182.081-4.34-1.66-6.025-.177-.171-.469-.374-.154-.682,2.448,1.234,2.5,3.567,2.56,5.817.054,2.19.17,2.344,2.473,2.138.778-.069,1.062-.255.956-1.128-.214-1.758-.327-3.726.83-5.071,1.489-1.73,1.156-3.3.5-5.086a21.317,21.317,0,0,1-.55-2.135c.941-.182.75.646.932,1.09.582,1.421.562,3.078,1.745,4.244a6.975,6.975,0,0,0-2.82,6.893c.092.372.1.834.685.77.529-.057.594-.414.586-.854a15.65,15.65,0,0,1,.027-2.042c.329-2.9,2.126-4.276,5.37-4.169,3.09.1,4.7,1.627,4.813,4.566.023.624-.01,1.249-.005,1.874,0,.418.265.594.645.635.446.049.548-.241.649-.6a6.021,6.021,0,0,0-5.26-7.63,17.171,17.171,0,0,0-2.887.06c-.838.072-1.31,0-1.462-1.051a27.516,27.516,0,0,0-1.107-4.1c-.106-.343-.036-1.147-.749-.794-1.236.612-2.559.234-3.813.51-1.6-.449-2.52.033-2.713,1.805a21.149,21.149,0,0,1-.725,2.914c-.6.075-.685-.231-.547-.719.2-.711.394-1.424.59-2.136.622-2.266.622-2.266-1.4-2.285-.218-1.113-1.368-1.14-2.028-1.737l-.327-.411a.33.33,0,0,0-.139-.252Zm47.127-47.169.661.034c.338,1.185.757,2.354.99,3.559.216,1.117.821,1.339,1.789,1.109.615.855,1.1.572,1.531-.176a3.259,3.259,0,0,0,1.839.192c.687.165,1.473,1.652,2.024-.107a40.873,40.873,0,0,0,1.978-9.124c.228-3.021-1.022-5.442-3.253-6.377-2.836-1.189-6.5-.5-8.3,1.562a7.775,7.775,0,0,0-1.227,5.656,44.821,44.821,0,0,0,1.918,8.281c.123.405.085,1,.815.735.579-.211.515-.585.366-1.09C-905.436,518.806-905.782,517.378-906.156,515.958Zm60.317-10.554a7.344,7.344,0,0,0-7.284.02c-2.186,1.111-2.611,3.284-2.557,5.544a30.776,30.776,0,0,0,1.616,8.479,8.3,8.3,0,0,0,.283,1.139c.128.325.133.876.7.754a.721.721,0,0,0,.547-1.03c-.1-.319-.23-.628-.347-.941l-1-4.1.677.014c.438,1.562.9,3.119,1.3,4.689a.822.822,0,0,0,1.095.72,9.87,9.87,0,0,1,3.051.011.79.79,0,0,0,1.012-.636c.758-2.848,1.73-5.652,1.831-8.635.138-4.108-2.226-5.89-6.257-4.75a3.38,3.38,0,0,0-2.585,3.32c-.042,1.3-.1,2.6-.143,3.9a1.053,1.053,0,0,1-.31-.034,6.726,6.726,0,0,0-.121-1.008c-1.251-4.577,1.618-7.85,6.231-7.044a15.142,15.142,0,0,1,2.386.831,4.851,4.851,0,0,1,1.385,2.822,25.762,25.762,0,0,1-1.65,10.21,3.18,3.18,0,0,0-.036,1.756c-1.018-.045-2.036-.115-3.055-.131-4.54-.069-6.612,1.942-6.573,6.455.005.616-.522,1.781.57,1.774s.552-1.165.576-1.8c.108-2.906,1.012-4.357,3.23-4.971,4.353-1.2,7.027.809,7.024,5.287,0,.17,0,.341-.014.511-.048.564.027,1.074.742,1.058.695-.016.523-.61.574-1.022a7.536,7.536,0,0,0-3.1-7.188c.393.057.819.153.975-.366,1.153-3.839,2.607-7.644,2.018-11.76C-843.294,507.577-843.936,505.995-845.839,505.4Zm-.2,102.1c1.478.064,1.467,1.317,1.668,2.262a14.213,14.213,0,0,1,.1,2.72.712.712,0,0,0,.687.8c.349.042.465-.146.575-.452a7.266,7.266,0,0,0-1.766-6.488c-1.916-1.657-6.028-1.918-8.4-.534-1.982,1.157-3.041,4.068-2.482,6.805.068.331.056.726.551.672a.669.669,0,0,0,.636-.676c.049-.848.052-1.7.131-2.545a3.7,3.7,0,0,1,2.566-3.492,6.458,6.458,0,0,1,5.726.506c.069.045.014.283.016.43-.389.131-.825-.294-1.21.255a4.644,4.644,0,0,0,1.793,6.927,12.321,12.321,0,0,0,3.431.905c.454.077,1.077.307,1.12-.547.033-.658-.427-.681-.9-.725a9.49,9.49,0,0,1-2.952-.714c-1.813-.795-2.243-1.714-1.782-3.633A7.989,7.989,0,0,0-846.037,607.5Zm-129.131,0c.156.775.292,1.554.47,2.324.482,2.082-.012,3.127-2,3.825a19.132,19.132,0,0,1-2.983.661.656.656,0,0,0-.627.815c.039.458.335.484.714.5,4.838.193,7.2-2.846,5.825-7.389-.277-.914-.666-1.014-1.41-.724-.042-.1-.139-.259-.117-.278,1.6-1.317,3.447-1.248,5.317-.861a3.751,3.751,0,0,1,3.059,3.068,10.991,10.991,0,0,1,.193,3.054.661.661,0,0,0,.554.74c.34.082.473-.074.6-.392a6.554,6.554,0,0,0-2.829-7.268c-5.1-2.518-9.92.464-9.816,6.1.01.53-.406,1.481.457,1.549,1.007.08,1.053-.975,1.24-1.707.1-.395-.186-.75-.282-1.121A2.447,2.447,0,0,1-975.168,607.5Zm112.062-61.82c-1.216.01-1.09-.916-1.019-1.632a17.05,17.05,0,0,1,.577-2.481.763.763,0,0,0-.472-.966c-.316-.153-.513,0-.7.261a4.652,4.652,0,0,0,2.155,7.1,12.409,12.409,0,0,0,8.363.2c3.454-1.056,4.585-4.011,2.784-7.164-.143-.25-.215-.549-.588-.426-.283.094-.545.306-.511.606a15.594,15.594,0,0,0,.332,1.666c.522,2.326-.047,3.414-2.321,4.1a11.874,11.874,0,0,1-7.542-.124c-.553-.195-1.266-.263-1.075-1.158,1.635-1.09.407-2.346.327-3.536A3.4,3.4,0,0,0-863.106,545.683Zm10.238,33.475a4.465,4.465,0,0,0-.419-3.773,7.407,7.407,0,0,0-.546,3.005c-.025.778.435.783.973.76.185.843-.553.892-1.011,1.072a11.085,11.085,0,0,1-8.147.131c-2.016-.752-2.463-1.745-1.919-3.872.141-.549.318-1.091.413-1.648.07-.408-.271-.588-.593-.718-.259-.105-.406.068-.552.255a4.711,4.711,0,0,0,1.583,6.9,11.86,11.86,0,0,0,8.156.65c3.993-.96,5.185-3.326,3.635-7.127-.133-.325-.162-.878-.759-.672a.73.73,0,0,0-.467.964c.174.717.409,1.423.522,2.15C-851.876,578.028-851.656,578.935-852.869,579.159Zm.006,16.733a4.051,4.051,0,0,0-.485-3.723,6.578,6.578,0,0,0-.484,2.956c-.025.768.411.807.964.772.281.439-.1.6-.355.778-2.273,1.57-7.8,1.473-9.972-.165a2.314,2.314,0,0,1-.9-2.567c.182-.774.41-1.537.593-2.311a.7.7,0,0,0-.433-.831c-.32-.161-.509-.01-.7.243a4.722,4.722,0,0,0,1.923,7.192,12.336,12.336,0,0,0,7.872.42c4.071-1.045,5.256-3.594,3.457-7.356-.142-.3-.2-.706-.677-.568a.691.691,0,0,0-.485.938c.186.774.4,1.544.551,2.324C-851.78,595.1-851.9,595.329-852.863,595.891Zm-28.014-66.948c-.994-.376-.894-1.184-.748-1.976s.357-1.549.523-2.325a.708.708,0,0,0-.446-.822c-.323-.16-.487.022-.666.288a4.639,4.639,0,0,0,2.146,7.085,12.41,12.41,0,0,0,7.87.408c3.615-.97,4.625-2.687,3.625-6.3-.149-.538.094-1.67-.945-1.41-.885.221-.358,1.153-.349,1.784,0,.155.146.3.2.464.636,2.011.151,3.138-1.841,3.876a11.208,11.208,0,0,1-8.319-.127c-.437-.176-1.027-.282-1.055-.954.419-.19,1.156.1,1.047-.851-.106-.932.106-1.911-.54-2.829A4.9,4.9,0,0,0-880.876,528.943Zm-77.22,50.218a3.36,3.36,0,0,0-.337-3.566c.007,1.193-1.308,2.486.351,3.554.292.33.005.511-.2.663-2.144,1.57-7.813,1.492-9.968-.141a2.193,2.193,0,0,1-.916-2.536c.2-.708.346-1.435.5-2.156a.73.73,0,0,0-.4-.855c-.3-.166-.478-.049-.68.229a4.691,4.691,0,0,0,1.829,6.945,11.769,11.769,0,0,0,7.844.581c4.128-1.029,5.283-3.338,3.675-7.238-.162-.394-.25-.79-.806-.558a.72.72,0,0,0-.415.974,16.742,16.742,0,0,1,.545,2.486C-957,578.263-956.886,579.18-958.1,579.161Zm77.22,33.478c-1.068-.462-.808-1.375-.7-2.194.1-.729.311-1.441.457-2.164a.675.675,0,0,0-.481-.795c-.33-.134-.473.09-.637.357-1.776,2.885-.77,5.983,2.394,7.114a12.349,12.349,0,0,0,8.356.081c3.306-1.134,4.37-4.038,2.653-7.108-.143-.255-.268-.568-.6-.435-.23.094-.539.365-.544.565a5.055,5.055,0,0,0,.234,1.328,4.044,4.044,0,0,1-5,4.947c-.354-.085-.362-.378-.321-.673,1.085.2,1.371-.267,1.278-1.315-.206-2.317.034-4.55,1.794-6.321a1.105,1.105,0,0,0,.212-1.245c-.422-1.411-.864-2.818-1.207-4.249-.17-.712-.5-.857-1.185-.841-3.613.087-3.613.068-4.671,3.565a12.706,12.706,0,0,1-.4,1.3,1.4,1.4,0,0,0,.3,1.679,6.332,6.332,0,0,1,1.529,5.659c-.234,1.284.244,1.982,1.654,1.765.035.291.01.674-.319.651-1.748-.123-3.587-.041-4.813-1.679,1.261-.332,1.43-1.486.495-3.612C-881.22,610.164-881.011,611.407-880.877,612.639Zm-59.452-83.694a5.309,5.309,0,0,0-.507-3.838,7.506,7.506,0,0,0-.525,2.785c-.077.9.438.956,1.044,1.041-.07.145-.1.339-.215.427-2.181,1.673-7.757,1.739-10,.108-.264-.192-.8-.355-.4-.884.428.1,1.017.59,1-.4a5.192,5.192,0,0,0-.551-3.015,4.028,4.028,0,0,0-.431,3.432c-1.173-.2-.932-1.041-.8-1.812.187-1.094.71-2.141.458-3.3,1.225,0,1.376,1.021,1.68,1.831a8.53,8.53,0,0,1,.311,3.36c-.016.443.084.809.588.858.627.061.552-.465.574-.817a8.155,8.155,0,0,0-.675-4.635c-.589-1.055-1.193-2.208-2.729-2.058l-.045-.046c-.038-.1-.054-.276-.119-.3-2.5-.82-4.963-.79-7.117.847-2.119,1.61-2.073,4.024-1.975,6.389.015.349.1.7.583.624a.747.747,0,0,0,.679-.827,23.258,23.258,0,0,1,.065-2.554,3.5,3.5,0,0,1,4.3-3.279c-1.038.611-.592,1.407-.347,2.159.851,2.607.567,4.848-2.056,6.3a1.1,1.1,0,0,0-.546,1.426c.179.715.41,1.419.551,2.142.331,1.7.87,3.048,3.057,2.341a2.371,2.371,0,0,1,1.181.073c.744.173,1.413.2,1.491-.774.139-1.732,2.176-3.587.533-5.1-2.462-2.263-3.317-5.564-1.495-8.41.032-.05.306.054.467.087a7.912,7.912,0,0,1-.564,2.807c-.582,2.626.155,4.126,2.634,5.129a12.445,12.445,0,0,0,7.337.621c4.132-.851,5.353-2.79,4.163-6.809-.125-.424.071-1.388-.818-1.154-.825.218-.519,1-.4,1.6s.35,1.2.421,1.818C-939.43,527.87-939.41,528.638-940.329,528.945Zm94.288,50.2c.824-.215,1.616-.5,2.094.643.119.283.749.475.973-.281a7.133,7.133,0,0,0-2.291-6.915c-1.922-1.333-5.925-1.364-7.974-.061a6.445,6.445,0,0,0-2.418,6.651c.061.324.037.716.527.7a.6.6,0,0,0,.656-.624c.01-.283-.007-.567,0-.851.084-4.678,3.336-6.841,7.71-5.129a3.214,3.214,0,0,1,2.174,3.834c-.638-.324-.166-1.3-.9-1.5-.706,1.111-.429,2.359-.534,3.55-.916-.485-.739-1.306-.594-2.076.137-.723.383-1.424.548-2.143a.705.705,0,0,0-.467-.812c-.329-.166-.508.012-.688.269a4.637,4.637,0,0,0,1.8,6.944,8.673,8.673,0,0,0,3.271.863c.444.025,1.106.359,1.241-.433.153-.9-.58-.763-1.112-.868C-843.491,580.617-845.11,580.664-846.04,579.148ZM-916.065,595.9c-1.07-.493-.725-1.421-.618-2.215a17.79,17.79,0,0,1,.555-2.134c.128-.481-.145-.742-.527-.939-.238-.123-.39-.039-.564.16a4.878,4.878,0,0,0,1.709,7.255,12.419,12.419,0,0,0,9.138.4c2.878-.989,3.829-2.754,2.912-5.665-.215-.682.065-2.193-1.036-1.917-1.3.324-.273,1.556-.119,2.306a3.709,3.709,0,0,1-4.312,4.484c-.4-.085-.3-.394-.206-.668.671-.552.235-1.275.24-1.9.013-1.61-.044-3.373,1.043-4.539,1.369-1.469.989-2.817.485-4.337a9.261,9.261,0,0,1-.48-1.8c-.139-1.195-.677-1.529-1.909-1.449-3.169.206-3.174.13-4.071,3.21-.174.6-.361,1.191-.519,1.793a1.189,1.189,0,0,0,.184,1.266c1.759,1.84,1.981,4.124,1.793,6.5-.062.787-.029,1.387,1,1.248.019.306-.067.66-.387.632-1.6-.14-3.257-.178-4.321-1.7.249-.387.986.338,1.038-.431a5.7,5.7,0,0,0-.36-3.293C-916.38,593.363-915.953,594.676-916.065,595.9Zm28.348,16.741c.046-1.293.24-2.607-.521-3.847a6.542,6.542,0,0,0-.552,2.838c-.147,1.014.61.8,1.085,1-.074.145-.112.338-.23.427-2.246,1.7-7.81,1.77-10.107.146-1.269-.9-1.431-2.1-.428-3.658.374,1.009-.706,2.494,1.1,3.032a5.3,5.3,0,0,0-.165-2.89c-.365-.688-1.175-1.1-1.3-2.017-.036-.262-.508-.309-.8.073a4.861,4.861,0,0,0,1.29,6.75c2.605,1.519,5.41,1.411,8.216.838,3.967-.811,5.2-2.972,3.942-6.8-.135-.41-.047-1.224-.815-1.025s-.487.889-.372,1.433a15.542,15.542,0,0,1,.384,1.832C-886.931,611.482-886.787,612.287-887.717,612.641Zm-52.611,0c.081-1.288.417-2.608-.5-3.824a5.976,5.976,0,0,0-.536,2.754c-.13.939.5.9,1.047,1.057-1.357,2.106-7.545,2.232-10.042.624-.212-.136-.44-.3-.114-.636,1.187-1.225.366-2.474.19-3.921-.706.684-.532,1.4-.818,1.938-.312.589.377,1.167-.008,1.765-.773-.955-.787-.958-.6-1.926.143-.724.333-1.437.5-2.157a.784.784,0,0,0-.514-.955c-.246-.112-.381.014-.543.221a4.8,4.8,0,0,0,1.832,7.085,12.775,12.775,0,0,0,7.178.75c4.333-.69,5.757-2.829,4.487-7.026-.117-.388.025-1.214-.771-1.021-.615.149-.589.741-.458,1.279.161.662.336,1.323.448,1.994C-939.418,611.445-939.378,612.245-940.329,612.641Zm72.229-71.733c.2.885.428,1.766.6,2.658a3.489,3.489,0,0,1-1.6,4.007c-1.692.875-1.446,1.967-1.02,3.308.276.866.512,1.745.765,2.619.114.392.233.757.762.751,1.193-.013,2.531.344,3.548-.079,1.676-.7,1.175-2.733,1.788-4.122.245-.556.5-1.2-.285-1.8-2.933-2.27-3.2-3.416-1.974-7.355.566-.931-.224-.986-.712-.9C-866.9,540.119-868.13,539.307-868.1,540.908Zm-17.262,17.47c.731,2.742.608,5.1-2.24,6.768-1.2.7-.19,2.02.122,2.906.355,1.007-.059,2.524,1.508,2.925a.73.73,0,0,0,.17,0c1.023,0,2.046,0,3.069,0,.413,0,.712-.009.851-.562a34.322,34.322,0,0,1,1.095-3.466,1.593,1.593,0,0,0-.858-2.322,3.8,3.8,0,0,1-1.978-4.183c.1-.786.275-1.563.415-2.343.731-.408-.324-1.7.725-1.763a2.924,2.924,0,0,1,2.583,1.691,5.584,5.584,0,0,1,.709,2.94c0,.51-.012,1.022,0,1.532.011.412.268.6.658.616s.419-.278.517-.543c.8-2.18-.463-5.8-2.54-6.874a7.686,7.686,0,0,0-7.657.077c-2.25,1.291-2.589,3.585-2.5,5.944.019.524-.317,1.42.708,1.367.885-.046.567-.836.564-1.34a6.047,6.047,0,0,1,1.043-4.193,2.494,2.494,0,0,1,2.154-1.175c.889.137.344,1.178.7,1.717C-885.49,558.194-885.425,558.285-885.362,558.378Zm-67.613,16.582c.6.418.193.914.1,1.379-.523,2.625.267,4.149,2.752,5.1a12.459,12.459,0,0,0,8.365.252c3.136-.982,4.05-2.674,3.175-5.842-.177-.642,0-1.965-1.042-1.673s-.27,1.364-.109,2.066c.565,2.464-.071,3.589-2.543,4.261a12.181,12.181,0,0,1-6.571.018c-2.677-.744-3.283-1.784-2.647-4.477.148-.625.685-1.316.006-1.9-.771-.661-.8.852-1.484.58-.356-.371.172-1.18-.816-1.306-1.714-.218-2.2.191-1.693,1.86.815,2.666.629,4.959-2.109,6.424a.96.96,0,0,0-.5,1.269c.349,1.257.693,2.515,1.043,3.772a.928.928,0,0,0,.789.761c3.376.643,4.389.018,5.245-3.284a2.971,2.971,0,0,1,.1-.5c.51-1.1.235-1.753-.861-2.432A4.441,4.441,0,0,1-952.975,574.96Zm104.865-18.006c.049-1,.694-.7,1.215-.519a3.828,3.828,0,0,1,2.58,3.493,18.076,18.076,0,0,1,.04,2.385c-.007.472.163.751.648.821.449.065.554-.187.655-.565.692-2.609-.635-6.041-2.931-7.043a7.642,7.642,0,0,0-7.516.371c-2.265,1.463-2.369,3.856-2.245,6.248.02.385-.151,1.032.6.948.559-.061.461-.558.465-.939a9.343,9.343,0,0,1,.365-3.509c.665-1.646,2.417-2.483,3.566-1.679a1.854,1.854,0,0,0-.027.653c1.046,3.032,1.179,5.585-2.054,7.725-1.1.726.377,2.877.665,4.375.089.464.037,1.131.837,1.3,3.174.659,4.356-.039,5.2-3.169.1-.384.171-.781.309-1.152a1.424,1.424,0,0,0-.743-1.942c-2.085-1.35-2.561-2.831-2-5.276C-848.288,558.65-847.72,557.867-848.109,556.954Zm-3.392-2.766c1.19,0,2.38-.025,3.569.017.562.02,1.018,0,1.186-.651q.552-2.14,1.117-4.276a.781.781,0,0,0-.437-.982c-2.832-1.573-3.14-3.963-2.067-6.708.544-1.39-.053-1.618-1.258-1.65-1.352-.036-1.508.51-1.109,1.644.963,2.737.8,5.169-2.109,6.7a.787.787,0,0,0-.423,1.108c.231.7.405,1.414.6,2.123a.611.611,0,0,0,.221.657l.456,1.722C-851.78,554.083-851.726,554.208-851.5,554.188Zm-82.7-17.723c.331-1.2.684-2.387.983-3.591.117-.472.324-1.024-.3-1.355-2.981-1.581-3.137-4.032-2.125-6.856.369-1.029.146-1.531-1.118-1.545-1.508-.017-1.719.485-1.253,1.818.751,2.148,1.04,4.479-1.191,5.832-1.616.98-1.484,1.98-1.008,3.339a5.609,5.609,0,0,1,.39,1.305c.168,1.886,1.125,2.426,2.849,1.766,1.186.678,2.734-.325,3.841.842.2.212.52-.028.61-.35.438-1.574.87-3.15,1.315-4.723.146-.516-.119-.733-.56-.835s-.645.134-.687.52c-.091.842-.6,1.546-.718,2.4C-933.25,535.564-933.135,536.527-934.2,536.465Zm68.419,68a1.271,1.271,0,0,0,1.555-1.028c.377-1.067.622-2.173,1.022-3.23.323-.854.08-1.4-.774-1.927-1.957-1.2-2.49-2.713-1.988-4.959.137-.61.328-1.21.439-1.824.073-.406.465-.961-.127-1.2a2.811,2.811,0,0,0-2.318.023c-.546.27-.185.795-.091,1.216a26.6,26.6,0,0,1,.569,2.66c.175,1.514-.214,3.033-1.584,3.7-1.735.848-1.486,1.954-1.009,3.313a11.1,11.1,0,0,1,.487,1.81c.193,1.14.775,1.689,1.961,1.459.065.482-.267.515-.619.6-3.854.951-5.5,3.494-4.856,7.448.063.386.017.849.626.774a.63.63,0,0,0,.575-.707c0-.283-.02-.567-.021-.851,0-4.6,3.666-6.928,7.908-5.012a3.114,3.114,0,0,1,1.914,3.784c-.616-.275-.006-1.295-.857-1.425-.938,2.621-.652,3.337,1.689,4.173.424.151.7.078.861-.464a6.227,6.227,0,0,0-4.262-7.652C-865.1,605.035-865.825,605.337-865.785,604.462Zm-102.15-21.355a1.562,1.562,0,0,0-1.007-1.564,4.251,4.251,0,0,1-2.122-4.939c.146-.722.383-1.425.556-2.143.077-.317.208-.735-.271-.829a3.054,3.054,0,0,0-2.323.109c-.529.365.043,1.023.12,1.546.091.615.374,1.206.429,1.821.118,1.316.092,2.621-1.246,3.426a7.724,7.724,0,0,0-.034-5.819c-.162-.356-.228-.831-.791-.623a.721.721,0,0,0-.478.955c.171.629.564,1.237.2,1.929-.712-.187-.32-1.14-1.038-1.415a6.869,6.869,0,0,0-.272,3.378c.639.225.806-.661,1.5-.144-1.119,1.646-2.878,1.809-4.565,2.1-.5.085-1.1,0-1.026.785.076.845.743.582,1.173.516.894-.136,1.762-.449,2.656-.58.994-.145,1.549-1.318,2.677-1.083-2.641,1.5-1.49,3.611-.919,5.63.077.272.17.539.25.809s.176.646.491.6a18.617,18.617,0,0,1,4.213-.006c.542.04.438-.7.643-1.067.415-.752.1-1.863,1.139-2.31a9.11,9.11,0,0,1-.636,2.969.744.744,0,0,0,.521,1.058c.6.187.616-.317.719-.673.316-1.085.656-2.166.905-3.267.123-.545.648-1.17-.063-1.687S-967.344,583.256-967.934,583.107Zm103.088-53.138c-.878.13-.9-.643-1.094-1.127-.56-1.432,0-2.805.388-4.164.289-1.018.047-1.477-1.079-1.492-1.191-.015-1.85.115-1.337,1.611.953,2.783.8,5.313-2.252,6.82a.56.56,0,0,0-.368.676,22.519,22.519,0,0,0,1.478,4.871c.451.828,1.888.078,2.873.195.4.046.793.071,1.189.117.31.036.623-.03.709-.33.453-1.584.946-3.163,1.273-4.774.213-1.052-1.136-.942-1.5-1.626a.305.305,0,0,1,.08-.418,12.675,12.675,0,0,0,10.478,1.015c2.932-1.006,3.84-2.669,3.024-5.658-.183-.669-.048-2.041-1-1.824-1.252.285-.337,1.433-.187,2.158.5,2.4-.075,3.491-2.433,4.194a11.743,11.743,0,0,1-5.563.329c-3.719-.7-4.352-1.676-3.539-5.331a2.532,2.532,0,0,1,.113-.322.7.7,0,0,0-.507-1.053c-.57-.141-.595.376-.717.73C-865.443,526.363-865.775,528.163-864.847,529.968Zm-66.047,38.148c-.327,1.083-.632,2.175-.993,3.247-.132.389-.334.734.038,1.08,1.987,1.854,2.182,4.245,2.044,6.746-.09,1.628,1.185,1,1.93,1.054.7.052,1.62.242,1.41-1.16-.263-1.755-.267-3.738.886-5.069,1.464-1.691,1.145-3.2.491-4.936a7.72,7.72,0,0,1-.48-1.8c-.14-1.2-.817-1.346-1.792-1.049-1.416-.252-2.9.243-4.287-.432-.589-.286-.756.236-.881.706-.307,1.152-.665,2.292-.935,3.453-.121.521-.809,1.238.187,1.563,1.05.342.729-.735,1.017-1.164C-931.772,569.627-932.3,568.289-930.893,568.116ZM-932,588.044c.027.278-.056.669.1.819,2.037,1.988,2.224,4.5,2.1,7.118-.076,1.638,1.217.946,1.958,1.024.761.08,1.659.13,1.437-1.192-.3-1.776-.335-3.723.769-5.1a4.533,4.533,0,0,0,.661-4.791c.965-.035.726.846.987,1.331.226.42.177,1.1.971.813.637-.229.421-.682.3-1.122-.35-1.255-.675-2.518-1.042-3.768-.1-.339-.093-.881-.692-.759-.569.116-.634.52-.553,1.042.118.747.654,1.5.063,2.265a1.338,1.338,0,0,1-.429-1.066c-.151-1.464-.852-1.9-2.356-1.777-2.693.228-2.7.117-3.432,2.79-.089.327-.2.648-.3.972-.49.037-.763-.067-.56-.662.288-.846.5-1.716.78-2.567.179-.554-.018-.836-.554-.987-.635-.18-.593.3-.693.66-.3,1.082-.6,2.167-.91,3.246C-933.927,588.177-933.821,588.311-932,588.044Zm24.4-35.9a.8.8,0,0,0-.215-.768c-.059-1.358-.444-2.106-2.128-1.971-3.011.242-3.02.114-3.847,3.109-.166.6-.368,1.195-.513,1.8-.1.422-.411.883-.022,1.291,1.9,1.986,2.039,4.419,2,6.99-.021,1.472,1.355.717,2.107.844.6.1,1.5.276,1.361-.886a11.335,11.335,0,0,1,1.36-6.549c1.731-.444.5-1.4.371-2.16l-.174-.686-.178-.4Zm33.547,11.25a2.42,2.42,0,0,0,.279-3.346,4.206,4.206,0,0,1,.949-3.023c1.372-1.335,1.073-2.668.478-4.133a3.311,3.311,0,0,1-.284-.977c-.14-1.984-1.038-2.64-3.132-2.563-1.7.063-2.423.485-2.657,2.115a18.373,18.373,0,0,1-.864,3.109,1.162,1.162,0,0,0,.233,1.382c1.544,1.507,1.835,3.466,1.839,5.483,0,2.2-.019,2.221,2.154,2.114A9.055,9.055,0,0,0-874.049,563.4Zm-73.2,30.984-.024,2c-.181.217-.274.412.118.49.45.055.9.112,1.351.166,1.432.171,2.217-.073,1.88-1.894-.3-1.621-.166-3.552.968-4.718,1.449-1.491.932-2.81.489-4.311-.241-.818-.448-1.646-.678-2.467a.9.9,0,0,0-.755-.778c-2.975-.583-3.994.04-4.869,2.99-.48,1.62-1.1,3.157.52,4.615a3.986,3.986,0,0,1,.831,2.725c-.8.092-.688-.557-.834-1.009-1.123-3.473-4.768-5.021-8.8-3.744-2.788.881-4.575,4.538-3.7,7.554.1.352.19.662.642.608a.693.693,0,0,0,.673-.63c.122-.623-.284-1.378.477-1.917.273.591-.036,1.267.367,1.776.9-.718,1.124-3.18.341-3.678-.834-.531-.849-.543-.314-1.175a3.324,3.324,0,0,1,.873-.8,6.617,6.617,0,0,1,6.372-.111c1.837.909,2.011,2.737,2.074,4.539.01.283-.019.567-.027.851-.015.51-.117,1.124.65,1.117.678-.007.454-.64.581-1.031C-947.9,595.083-948.489,594.094-947.247,594.381Zm-.2-34.674c-.833.126-.675-.561-.811-1a4.828,4.828,0,0,0-2.454-3.127,7.744,7.744,0,0,0-7.664.187c-2.25,1.333-2.5,3.652-2.41,6,.017.468-.341,1.3.6,1.288.819-.008.683-.717.711-1.282.055-1.108-.236-2.257.355-3.306,1.216-2.158,3.875-3.005,6.873-2.191,1.952.53,2.937,2.153,3.007,4.793.024.93-.6,2.589,1.54,1.729.1-.039.363.346.55.533.506.048,1.013.083,1.517.146,1.287.161,1.976-.062,1.7-1.685-.262-1.566-.192-3.4.893-4.556,1.565-1.667,1.127-3.2.469-4.923a5.727,5.727,0,0,1-.385-1.475c-.115-1.2-.661-1.543-1.9-1.461-3.056.2-3.06.125-3.892,3.035-.125.436-.256.87-.407,1.3a2.187,2.187,0,0,0,.468,2.728A4.625,4.625,0,0,1-947.445,559.707Zm58.341-21.692a15.834,15.834,0,0,1-1.334-4.2c-.215-.838-.493-1.219-1.473-1.185-3.338.117-3.339.069-4.281,3.308-.159.546-.3,1.1-.494,1.632-.171.474-.234,1.106.026,1.363,1.934,1.915,2.021,4.357,1.894,6.776-.077,1.486.914,1.08,1.534,1.064.7-.018,1.922.455,1.822-1.034-.177-2.653.243-5.1,2.193-7.094.127-.13.073-.437.1-.662,1.411.354,1.986-.028,1.419-1.537-.279-.742-.36-1.565-.689-2.278-.312-.676.1-2.156-1.016-1.907-1.4.312-.153,1.47-.157,2.242C-889.562,535.686-888.4,536.728-889.1,538.015Zm15.324,55.519a3.951,3.951,0,0,1,.733-2.748c1.684-1.612,1.177-3.3.526-5.078a5.335,5.335,0,0,1-.34-1.318c-.111-1.213-.689-1.533-1.912-1.464-3.084.176-3.089.1-3.916,3.079-.2.711-.348,1.438-.6,2.129a1.036,1.036,0,0,0,.262,1.221,6.868,6.868,0,0,1,1.742,6.008c-.227,1.648.5,1.854,1.735,1.8a14.091,14.091,0,0,0,1.5-.221c.216-.026.312-.139.258-.359l.005-.719A1.5,1.5,0,0,0-873.78,593.534Zm-75.438-56.42c-.712.064-.694-.221-.5-.8.363-1.061.608-2.164.9-3.25.114-.425.068-.79-.429-.936-.564-.166-.662.244-.769.634-.328,1.195-.567,2.422-1,3.576-.473,1.253-.143,1.81,1.175,1.821a9.1,9.1,0,0,1,2.5,7.633c-.135,1.682,1.4.749,2.166.906.692.141,1.506.172,1.3-1.088-.3-1.831-.285-3.811.911-5.235,1.327-1.581,1.079-3.01.485-4.637a6.746,6.746,0,0,1-.4-1.48c-.155-1.3-.717-1.77-2.13-1.652-2.888.24-2.894.141-3.688,2.887C-948.859,536.035-949.045,536.572-949.218,537.114Zm1.964,75.384c-.536,1.875,1.02,1.059,1.626,1.116.654.061,1.915.545,1.735-1.021-.211-1.846-.324-3.889.887-5.245,1.48-1.658,1.058-3.107.489-4.775a15.53,15.53,0,0,1-.518-1.979,1,1,0,0,0-1.13-.956c-3.654-.125-3.63-.144-4.725,3.331-.448,1.42-.965,2.694.461,3.991a3.892,3.892,0,0,1,.957,3.016c-.89,0-.668-.775-.823-1.247a5.2,5.2,0,0,0-3.43-3.5c-5.269-1.8-9.311,1.185-9.066,6.717.021.472-.32,1.3.605,1.286.815-.008.706-.719.7-1.282,0-.34-.021-.681-.015-1.021.05-3.2,1.724-4.778,5.078-4.8s5.032,1.531,5.163,4.736c.092,2.256.092,2.256,1.845,1.582C-947.372,612.432-947.307,612.48-947.253,612.5Zm86.671-45.364c-.363,1.309-.74,2.614-1.081,3.929-.136.526-.437,1.077.077,1.592,1.76,1.764,2.051,4,1.848,6.308-.11,1.251.51,1.52,1.461,1.434.9-.08,2.141.276,1.953-1.477-.181-1.692-.325-3.64.858-4.9,1.527-1.631,1.062-3.123.5-4.8a20.084,20.084,0,0,1-.621-2.295c-.108-.527-.3-.792-.885-.769-1.41.053-2.823.056-4.234.079a3.436,3.436,0,0,0-.754-.384c-3.893-.889-5.293-3.2-4.237-7.05a2.645,2.645,0,0,0-.008-2.371,3.513,3.513,0,0,1,3.926,3.373,19.9,19.9,0,0,1,.063,2.556.7.7,0,0,0,.679.8c.347.048.476-.126.59-.434.792-2.133-.586-6.06-2.638-7.058a7.8,7.8,0,0,0-7.535.09c-2.375,1.333-2.662,3.67-2.5,6.1.031.454-.4,1.317.534,1.312.828,0,.636-.775.639-1.319.008-1.427-.011-2.861.929-4.071,1.277-1.643,2.187-1.547,2.946.3,1.075,2.611.976,5-.852,6.073-1.976,1.163-1.6,2.464-1.081,4.047.231.7.443,1.41.63,2.125a.8.8,0,0,0,.956.714c1.3-.086,2.707.184,3.846-.264.6-.235.722-1.676,1.075-2.567.031-.077.175-.11.327-.2.28.98-.248,1.8-.453,2.657-.112.471-.029.781.43.948.545.2.686-.168.807-.582.285-.983.586-1.961.874-2.944C-861.361,567.6-861.338,567.016-860.582,567.133Zm-97.053-49.442c-.332.2-.63.29-.764-.22a21.14,21.14,0,0,1-1.042-7.9,3.741,3.741,0,0,1,1.507-2.947,6.634,6.634,0,0,1,6.374-.369c1.988.846,2.24,2.7,2.295,4.577a9.786,9.786,0,0,1-.131,1.695,47.854,47.854,0,0,1-1.752,7.537c-.144.452-.255.878.344,1.124.747.306.732-.343.843-.7a37.519,37.519,0,0,0,1.991-9.478c.17-4.076-2.162-6.532-6.248-6.636-4.165-.1-6.568,2.168-6.588,6.279a32.24,32.24,0,0,0,1.925,9.649c.113.367-.107,1.21.813.927.855-.263.423-.816.371-1.358-.035-.361-.955-1.106.29-1.19.475.6.13,1.9,1.068,1.917a29.381,29.381,0,0,1,3.9.039c.461.071.5-.375.6-.683a31.538,31.538,0,0,0,1.629-10.911,2.1,2.1,0,0,0-.707-1.509c-1.684-1.475-3.649-1.41-5.618-.816-1.734.523-2.218,1.952-2.277,3.6A25.99,25.99,0,0,0-957.635,517.691Zm-18.539-3.653q.837,2.84,1.675,5.679c.142.477.2.926.937.973,4.088.259,4.114.289,5.117-3.717.4-1.594.664-3.224.95-4.844a6.611,6.611,0,0,0-.01-2.539c-.517-2.448-1.968-3.382-4.973-3.171-2.455.172-3.666,1.33-3.766,3.736-.054,1.3.048,2.611.079,3.917-1.3-1.128-.746-2.65-.729-3.985.036-2.83,1.47-4.083,4.283-4.038.625.01,1.25,0,1.875-.024a3.438,3.438,0,0,1,3.759,2.733,11.117,11.117,0,0,1-.146,5.564c-.406,1.942-.975,3.849-1.481,5.769-.122.462-.224.895.354,1.14.744.316.731-.339.837-.7.973-3.323,2.049-6.625,1.908-10.162-.158-3.977-2.376-6.021-6.51-5.957-3.961.061-6.157,2.218-6.232,6.11-.068,3.528,1.023,6.828,1.989,10.152.106.366.143.842.76.588.518-.213.615-.505.445-1.059-.467-1.518-.854-3.061-1.27-4.595C-976.47,515.067-976.741,514.512-976.174,514.039ZM-860.7,616.953c-.368-.382-.444-1.168-1.182-1.037-.652.116-.537.794-.67,1.253-.885,3.054-1.792,6.1-2.608,9.176-.738,2.778.189,4.49,2.907,5.423a12.377,12.377,0,0,0,8.2.023c2.964-1.01,3.877-2.622,3.075-5.623-.807-3.017-1.683-6.016-2.572-9.011-.148-.5.058-1.5-.918-1.246-.894.23-.458,1.03-.306,1.585.87,3.175,1.74,6.351,2.681,9.506a2.446,2.446,0,0,1-1.616,3.269,10.939,10.939,0,0,1-8.472.144c-1.83-.7-2.366-1.933-1.823-3.808.836-2.89,1.721-5.766,2.546-8.66a1.367,1.367,0,0,1,.763-1.03c-.344,3.429-1.734,6.586-2.644,9.863-.456,1.643.06,2.438,1.4,2.971a10.367,10.367,0,0,0,7.823-.035,1.952,1.952,0,0,0,1.342-2.686c-.992-3.322-1.9-6.669-2.836-10.007-.076-.272-.133-.714-.407-.665C-857.57,616.638-859.282,615.68-860.7,616.953Zm-82.023,1.467c.622-.091.762.358.891.806.736,2.566,1.462,5.135,2.2,7.7a2.569,2.569,0,0,1-1.761,3.389,11,11,0,0,1-8.48-.044c-1.771-.732-2.2-1.658-1.74-3.507.316-1.267.7-2.518,1.055-3.775.572-2.022,1.152-4.041,1.709-6.067.119-.433.239-.92-.388-1.121-.568-.183-.668.216-.78.616-.977,3.5-2.032,6.984-2.906,10.511a3.5,3.5,0,0,0,2.272,4.424,12.088,12.088,0,0,0,9.938.055c2.01-.888,2.883-2.366,2.388-4.375-.884-3.583-1.964-7.118-2.964-10.671-.073-.258-.078-.6-.472-.59-.351.009-.717.1-.817.477a7.78,7.78,0,0,0-.14,1.179,1.8,1.8,0,0,0-2.327-1.113,4.441,4.441,0,0,1-1.858-.095c-.682-.131-1.049.005-1.246.728-.911,3.342-1.856,6.675-2.8,10.007a2.045,2.045,0,0,0,1.493,2.777,11.183,11.183,0,0,0,6.707.333c2.392-.618,2.917-1.463,2.268-3.806C-941.207,623.639-941.975,621.032-942.725,618.42Zm58.1-45.086c-1.087.243-1.277.87-.88,1.856a2.326,2.326,0,0,1-.052,2.182c-.281-.975-.509-1.781-.747-2.584-.107-.358-.1-.888-.7-.708-.508.151-.675.5-.515,1.06a19.338,19.338,0,0,1,.539,2.491,2.14,2.14,0,0,1-1.038,2.177c-2.363,1.631-7.837,1.606-10.115-.067-1.033-.758-1.269-1.688-.627-3.249.181.927.238,1.433.387,1.911.115.368.321.818.812.674.419-.122.173-.583.253-.886.445-1.681-.958-2.636-1.555-3.9-.141-.3-.5-.347-.794.074-1.459,2.08-.9,5.434,1.149,6.687,4.1,2.511,10.362,1.356,13.181-2.537a2.784,2.784,0,0,1-1.746,2.927,1.554,1.554,0,0,0-.816,2.217,7.172,7.172,0,0,1,.352,1.316c.321,1.806.861,3.3,3.215,2.527.169-.055.471-.039.43.445a7.3,7.3,0,0,0-2.613.476,6.269,6.269,0,0,0-4.166,7.71c.127.358.28.6.713.513a.639.639,0,0,0,.56-.721c-.009-.739-.059-1.482,0-2.216a4.114,4.114,0,0,1,2.269-3.735c4.212-2.014,7.949.3,7.934,4.923a7.542,7.542,0,0,1-.016.853c-.064.544.144.92.687.97.615.057.51-.512.555-.844.412-3.059-.474-7.008-4.734-7.573-.217-.029-.451-.1-.478-.39,1.145-.344,3.132-4.677,2.609-5.719a.865.865,0,0,0-.372-.328c-3-1.573-3.17-4.052-2.122-6.846.386-1.029-.034-1.423-.9-1.684a6.224,6.224,0,0,0,.845.088c2.411-.07,3.367.665,3.783,3.08a20.284,20.284,0,0,1,.14,2.711c.014.4.18.637.591.676.449.043.553-.271.662-.61.665-2.068-.51-5.594-2.382-6.674a7.673,7.673,0,0,0-7.807-.1c-2.293,1.234-2.645,3.535-2.594,5.893.012.546-.259,1.453.677,1.447.992-.007.607-.909.609-1.454C-889.422,574.358-888.39,573.259-884.627,573.334ZM-910.368,630.4a8.388,8.388,0,0,0,3.762-.627,2.041,2.041,0,0,0,1.408-2.689q-1.423-4.989-2.844-9.979c-.132-.465-.3-.9-.9-.776-1.344.27-2.729-.368-4.052.2-.062.027-.055.21-.086.319q-1.465,5.153-2.929,10.307a1.884,1.884,0,0,0,1.262,2.446A10.045,10.045,0,0,0-910.368,630.4Zm34.863-14c-.727.467-2.082-.956-2.551.677-.969,3.374-1.889,6.763-2.841,10.143a1.914,1.914,0,0,0,1.41,2.514,10.7,10.7,0,0,0,7.823.042,2.006,2.006,0,0,0,1.43-2.782c-.868-2.819-1.711-5.65-2.415-8.513C-873.034,616.92-873.444,615.708-875.5,616.4Zm-87.587.019c-.706.427-2.072-1.118-2.553.75-.821,3.186-1.814,6.328-2.672,9.505-.515,1.9-.146,2.563,1.73,3.178a10.371,10.371,0,0,0,7.021-.056c1.8-.67,2.135-1.256,1.636-3.108-.754-2.8-1.6-5.565-2.363-8.359C-960.68,616.918-960.891,615.378-963.092,616.422Zm70.055,0c-.755.311-2.05-.836-2.5.776q-1.365,4.913-2.777,9.812c-.437,1.521.224,2.369,1.614,2.857a10.939,10.939,0,0,0,6.866.133c2.085-.614,2.523-1.432,1.927-3.556-.749-2.667-1.62-5.3-2.277-7.992C-890.569,616.874-891,615.694-893.037,616.422ZM-928.354,630.4a9.654,9.654,0,0,0,3.2-.4c2.219-.586,2.73-1.375,2.157-3.566-.613-2.341-1.35-4.649-2.01-6.979-.835-2.947-.825-2.95-3.814-3.113a1.7,1.7,0,0,1-.507-.051c-.933-.363-1.162.221-1.361.944-.721,2.625-1.463,5.244-2.205,7.864-1.111,3.925-.275,5.079,3.862,5.3C-928.808,630.407-928.58,630.4-928.354,630.4ZM-866.5,520.583c1.964.1,2.062.125,2.221-.414,1.014-3.429,2.229-6.839,1.835-10.5-.228-2.118-1.589-3.125-4.1-3.218-2.55-.1-4.149.895-4.5,2.926-.493,2.818.246,5.514.986,8.2a9.6,9.6,0,0,0,.875,2.745C-868.487,521.378-867.3,520.249-866.5,520.583ZM-880.238,510.5c.137-1.172.224-2.341-.85-3.131a5.709,5.709,0,0,0-5.526-.546c-1.722.591-2.073,2.108-2.134,3.721a24.118,24.118,0,0,0,1.175,7.027,8.694,8.694,0,0,0,.852,2.741c.7,1.011,1.893-.04,2.845.248.267.081.574.03.843.108.888.257,1.212-.207,1.408-.976C-880.853,516.669-879.729,513.7-880.238,510.5Zm29.094,77.659c-3.887,1.657-5.045,3.672-4.5,7.756.047.353-.1.9.551.815a.706.706,0,0,0,.7-.928,8.508,8.508,0,0,1-.074-1.868c.212-3.111,2.027-4.615,5.4-4.515,3.175.095,4.725,1.612,4.8,4.716.015.567.016,1.138-.022,1.7a.76.76,0,0,0,.79.893c.634.046.478-.511.523-.86.533-4.174-.9-6.429-4.875-7.69-.072-.023-.1-.178-.227-.411,1.154.137,1.378-.645,1.584-1.477s.43-1.648.7-2.454a1.787,1.787,0,0,0-.906-2.5,3.909,3.909,0,0,1-1.866-4.543,13.3,13.3,0,0,1,.554-2.14c.355-.922-.106-1.05-.85-1.116-1.865-.165-2.118.107-1.621,1.86.943,3.323.663,4.172-2.138,6.386-.272.215-.641.387-.526.781C-852.6,584.429-852.516,586.456-851.144,588.163ZM-901.785,570.9c.769-.226,1.983.705,2.431-.3a30.459,30.459,0,0,0,1.365-4.734c.16-.612-.412-.718-.771-.961-2.222-1.5-2.743-2.908-2.082-5.556.178-.713.677-1.63.411-2.116-.787-1.439.326-.973.788-.848a3.776,3.776,0,0,1,2.736,2.766,11.152,11.152,0,0,1,.259,3.217c0,.372.122.67.534.749.462.09.549-.246.671-.576.7-1.9-.431-5.51-2.193-6.6a7.655,7.655,0,0,0-7.812-.258c-2.437,1.222-2.771,3.578-2.727,6,.01.522-.3,1.45.675,1.412s.606-.917.6-1.479a6.671,6.671,0,0,1,.822-3.777,2.5,2.5,0,0,1,2.228-1.312c1.183.046.462,1.129.778,1.678a6.719,6.719,0,0,1,.5,1.8,3.884,3.884,0,0,1-1.791,4.581,1.8,1.8,0,0,0-.888,2.62,6.868,6.868,0,0,1,.4,1.479C-904.586,570.448-903.921,571.627-901.785,570.9Zm-70.022-16.115c-5.2-.077-6.729,3.086-6.413,7.479.023.318-.062.741.4.817a.765.765,0,0,0,.94-.521c.236-.636.632-1.273.3-1.952-.682-1.4.029-2.387.893-3.333a2.227,2.227,0,0,1,1.922-.933c.763.144.379,1.049.6,1.587a11.108,11.108,0,0,1,.561,2.137c.338,1.717-.078,3.385-1.564,4.2-1.759.964-1.483,2.118-1.009,3.53.253.754.431,1.533.693,2.283a1.519,1.519,0,0,0,.536.812,3.831,3.831,0,0,0,5.133-2.122c.2-.711.307-1.454.572-2.137.349-.9.139-1.377-.717-1.9-2.071-1.276-2.587-2.782-2.03-5.28a7.025,7.025,0,0,0,.525-1.96c-.244-2.369,1.136-1.053,1.751-.718a3.5,3.5,0,0,1,1.805,2.547,12.209,12.209,0,0,1,.18,2.881c-.026.432.077.813.586.874.627.074.54-.435.6-.8C-964.805,557.731-967.277,554.778-971.807,554.79Zm34.547,16.1c3-.03,2.984-.033,3.5-2.737.115-.6.383-1.166.548-1.756a1.164,1.164,0,0,0-.447-1.457c-2.72-2.058-3.02-3.045-2.141-6.254a4.092,4.092,0,0,0,.334-1.486c-.177-1.283.525-1,1.192-.741,1.707.663,2.31,2.091,2.469,3.766.07.732.006,1.477.02,2.215.008.409.27.6.651.645.453.059.545-.23.641-.594a6.2,6.2,0,0,0-3.938-7.4,9.109,9.109,0,0,0-4.729-.061,6.037,6.037,0,0,0-4.024,7.44c.11.339.163.673.632.606.42-.061.551-.353.553-.727,0-.568-.055-1.142,0-1.7.141-1.43.372-2.828,1.692-3.742,1.369-.949,1.746-.816,2.073.747.14.667.366,1.315.513,1.98.516,2.338-.014,3.818-2.056,5.09a1.594,1.594,0,0,0-.761,2.125,18.271,18.271,0,0,1,.564,1.775C-939.633,570.258-939.17,571.679-937.26,570.887Zm37.193,34.141a6.312,6.312,0,0,1-.938.062c-4.946-.39-7.572,2.2-7.153,7.094.039.45-.161,1.16.677,1.088.759-.066.582-.7.59-1.188,0-.284-.009-.569-.005-.853.046-3.419,1.63-5.008,5.044-5.042.511-.005,1.023.046,1.533.086s.938-.046.919-.678c-.057-1.866.747-3.542,1.171-5.3.224-.931.242-1.49-.767-2.033a4.014,4.014,0,0,1-2.011-4.657c.146-.78.4-1.539.581-2.313.085-.365.338-.859-.191-1.033a2.86,2.86,0,0,0-2.322.057c-.64.372-.093,1.029-.019,1.542.1.671.346,1.319.47,1.988.309,1.664-.127,3.279-1.573,4.026-1.723.891-1.448,1.994-1.019,3.343.241.758.488,1.517.661,2.292s.579,1,1.341.879A3.041,3.041,0,0,1-900.067,605.028Zm-12.253-26.962a2.336,2.336,0,0,1,0,.511c-.427,1.844.822,1.619,1.979,1.719,1.381.119,1.627-.466,1.5-1.682-.162-1.543-.2-3.332.84-4.418,1.706-1.776,1.124-3.444.5-5.273a8.037,8.037,0,0,1-.391-1.48c-.148-1.062-.7-1.3-1.744-1.245-3.286.165-3.29.114-4.231,3.321-.176.6-.34,1.2-.514,1.8a1.278,1.278,0,0,0,.293,1.394A7.233,7.233,0,0,1-912.321,578.066Zm36.842-11.775c-.725.059-1.906-.535-2.215.077a23.3,23.3,0,0,0-1.719,5.829c-.029.143.234.364.386.525a7.127,7.127,0,0,1,1.74,6.182c-.238,1.674.839,1.444,1.7,1.5.942.059,1.989.142,1.813-1.434-.205-1.826-.232-3.78,1.011-5.217a3.2,3.2,0,0,0,.517-3.826,5.952,5.952,0,0,1-.446-1.64C-872.893,566.62-873.533,565.608-875.478,566.291Zm-35.162-33.467c-2.334-1.029-2.624.648-3,2.248-.209.883-.483,1.749-.718,2.626-.118.44-.241.879.143,1.276a7.7,7.7,0,0,1,1.862,6.487c-.174,1.763,1.075,1.174,1.895,1.264.944.1,1.8.159,1.628-1.329a6.868,6.868,0,0,1,1.27-5.493,2.573,2.573,0,0,0,.493-3.034,8.375,8.375,0,0,1-.5-1.8C-907.861,533.308-908.409,531.938-910.64,532.824Zm-1.681,78.67a2.27,2.27,0,0,1-.005.51c-.452,1.9.915,1.563,2,1.7,1.415.177,1.58-.5,1.478-1.685-.137-1.6-.171-3.424.919-4.568,1.61-1.689,1.035-3.246.459-4.971-.214-.643-.326-1.32-.5-1.978-.117-.449-.257-.782-.871-.839-3.863-.358-4.1-.21-5.157,3.616-.121.437-.223.882-.368,1.311a1.373,1.373,0,0,0,.331,1.537A7.267,7.267,0,0,1-912.321,611.494Zm-17.722-67.757c0,.7.019,1.209,0,1.718-.092,2.117,1.514,1.068,2.4,1.246,1.039.208,1.354-.313,1.216-1.37a7.353,7.353,0,0,1,1.683-6.186c.182-.2.462-.509.415-.7a27.032,27.032,0,0,0-1.594-5.515c-.479-.961-2-.049-3.028-.29-.218-.051-.453-.02-.678-.051a.729.729,0,0,0-.9.56c-.487,1.686-.961,3.376-1.458,5.059-.126.427.173.614.39.86A5.555,5.555,0,0,1-930.043,543.738Zm54.416-11c-.695.376-1.891-.818-2.351.424-.608,1.64-.958,3.375-1.426,5.068a.877.877,0,0,0,.337.9,7.206,7.206,0,0,1,1.782,6.324c-.239,1.64.833,1.337,1.621,1.341.827,0,2.063.445,1.872-1.284-.215-1.942-.193-4,1.137-5.515a2.913,2.913,0,0,0,.441-3.509,5.962,5.962,0,0,1-.406-1.472C-872.866,533.294-873.387,531.975-875.628,532.739Zm19.295,61.958c-.092-1.322-.2-2.939.791-3.974,1.631-1.706,1.028-3.361.461-5.131a4.236,4.236,0,0,1-.263-.987c-.091-1.433-.814-1.8-2.218-1.735-2.851.134-2.849.044-3.508,2.777-.187.772-.419,1.534-.633,2.3a1.321,1.321,0,0,0,.243,1.421,7,7,0,0,1,1.713,5.87c-.182,1.721.5,1.991,2,1.952C-855.791,597.14-856.427,595.823-856.333,594.7Zm-2.159,5.118c-1.867-.1-1.856-.1-2.309,1.6-.277,1.042-.611,2.07-.891,3.111-.129.48-.372.995.076,1.444,1.813,1.817,1.988,4.106,1.9,6.481-.016.421-.233,1.021.38,1.15.942.2,2.068.423,2.8-.17a2.09,2.09,0,0,0,.5-2.339,3.519,3.519,0,0,1,.629-3.841c1.429-1.5,1.049-2.894.5-4.477-.318-.909-.284-2.035-.825-2.748C-856.442,599.1-857.651,600.077-858.492,599.815Zm-104.578,0c-2.171-.84-2.735.449-3.012,2.243a18.97,18.97,0,0,1-.757,2.612c-.137.445-.272.872.143,1.257,1.812,1.683,2.017,3.891,1.829,6.136-.112,1.341.377,1.7,1.6,1.62,1.035-.072,2.035.116,1.825-1.568a6.842,6.842,0,0,1,1.3-5.489,2.5,2.5,0,0,0,.433-2.93,7.875,7.875,0,0,1-.484-1.807C-960.453,600.223-961.016,599.019-963.07,599.813Zm.028-67.04c-2.227-.923-2.7.5-3,2.242a21.324,21.324,0,0,1-.735,2.62c-.136.439-.369.9.027,1.275,1.884,1.791,1.992,4.122,1.852,6.448-.1,1.626.9,1.343,1.841,1.375,1,.033,1.765,0,1.612-1.419-.2-1.883-.13-3.853,1.156-5.353a3.124,3.124,0,0,0,.476-3.562,8.9,8.9,0,0,1-.5-1.8C-960.565,533.01-961.178,532-963.042,532.773Zm104.98,16.832c-2.073-.927-2.567.407-2.871,2.115-.167.942-.536,1.847-.782,2.777-.129.484-.286.979.167,1.428,1.728,1.714,2,3.906,1.806,6.151-.113,1.333.5,1.556,1.556,1.492.986-.06,2.067.152,1.872-1.538s-.3-3.6.89-4.9c1.332-1.452,1.1-2.775.541-4.3a6.068,6.068,0,0,1-.363-1.307C-855.455,549.885-856.059,548.82-858.062,549.6ZM-859.7,544.5a2.7,2.7,0,0,1,0,.51c-.246,1.26.134,1.89,1.549,1.839,1.223-.044,2.017-.144,1.837-1.758a6.988,6.988,0,0,1,1.757-6c.149-.152.34-.416.3-.576a27.437,27.437,0,0,0-1.547-5.545c-.457-.933-2-.054-3.028-.274-.165-.035-.342-.013-.509-.044-.694-.131-1.027.169-1.2.843-.357,1.43-.767,2.847-1.176,4.263a1.431,1.431,0,0,0,.3,1.561A6.824,6.824,0,0,1-859.7,544.5Zm-34.932,50.331a4.029,4.029,0,0,1-.058.532c-.406,1.346.156,1.874,1.488,1.836,1.2-.034,2.069-.187,1.836-1.814-.243-1.7-.176-3.609.974-4.882,1.326-1.467,1.042-2.767.508-4.288-.262-.745-.4-1.533-.625-2.294-.094-.317-.248-.866-.4-.876a22.611,22.611,0,0,0-4.053-.051c-.835.1-.551,1.127-.765,1.726-.381,1.065-.595,2.188-.966,3.257a1.287,1.287,0,0,0,.324,1.515C-894.87,591.034-894.718,593.02-894.635,594.83ZM-893,566.421c-2.287-1.09-2.628.493-2.954,2.2a21.57,21.57,0,0,1-.8,2.783,1.2,1.2,0,0,0,.279,1.382,7.02,7.02,0,0,1,1.746,6.019c-.193,1.487.538,1.608,1.582,1.618,1.118.01,1.994-.129,1.773-1.694a6.226,6.226,0,0,1,1.1-5.041c1.181-1.339.979-2.5.482-3.875a10.285,10.285,0,0,1-.393-1.483C-890.488,566.815-890.881,565.443-893,566.421Zm-35.065,33.432c-2.316-1.094-2.732.5-3.06,2.305a24.393,24.393,0,0,1-.7,2.456,1.176,1.176,0,0,0,.138,1.276,7.858,7.858,0,0,1,1.87,6.506c-.164,1.751,1.093,1.187,1.92,1.251.887.069,1.677.071,1.454-1.332a6.472,6.472,0,0,1,1.1-5.361,3.148,3.148,0,0,0,.52-3.677,7.662,7.662,0,0,1-.464-1.637C-925.52,600.056-926.11,599.034-928.065,599.852Zm35.057-50.3c-2.138-.8-2.63.524-2.919,2.221a16.8,16.8,0,0,1-.785,2.779,1.356,1.356,0,0,0,.314,1.529,7.319,7.319,0,0,1,1.662,6.042c-.214,1.5.614,1.459,1.526,1.431.882-.027,2.017.286,1.826-1.385-.209-1.827-.155-3.817,1.076-5.21,1.21-1.369,1.043-2.555.492-3.971a5.361,5.361,0,0,1-.359-1.31C-890.371,549.97-890.984,548.834-893.008,549.553Zm-70.012,33.392c-2.388-.009-2.381-.008-2.9,1.972-.261.988-.547,1.97-.828,2.952-.108.379-.379.827-.054,1.132,2.02,1.892,2.026,4.321,1.883,6.8-.1,1.651,1.127,1.188,1.994,1.233.916.047,1.634-.024,1.5-1.365-.244-2.369.039-4.677,1.8-6.522.453-.476.245-.954.122-1.432-.2-.769-.523-1.513-.651-2.291C-960.465,583.608-960.976,582.158-963.021,582.945Zm68.386,29.122c-.435,1.006-.279,1.717,1.188,1.662,1.232-.045,2.359.124,2.081-1.814-.229-1.6-.228-3.467.883-4.682a3.331,3.331,0,0,0,.713-4.048,10.72,10.72,0,0,1-.678-2.452c-.16-.966-.68-1.257-1.54-1-1.109.331-2.545-.578-3.251.2s-.731,2.2-1.058,3.333a8.822,8.822,0,0,1-.4,1.3,1.331,1.331,0,0,0,.307,1.666C-894.9,607.831-894.66,609.849-894.635,612.067Zm-33.457-62.5c-2.393-1.137-2.627.662-3,2.358-.193.886-.482,1.752-.752,2.62-.136.439-.318.829.114,1.241,1.815,1.733,2.122,3.986,1.906,6.3-.153,1.637.843,1.371,1.791,1.4,1.1.032,1.822-.08,1.566-1.583-.29-1.7-.193-3.652.987-4.879,1.431-1.489.966-2.8.487-4.3a7.652,7.652,0,0,1-.341-1.32C-925.537,549.814-926.12,548.779-928.091,549.567Zm-35.066-.117c-.672.464-1.881-.823-2.342.468-.59,1.651-.97,3.377-1.445,5.069a.875.875,0,0,0,.344.9c1.673,1.679,1.963,3.791,1.767,6-.1,1.106.012,1.717,1.344,1.618,1.136-.085,2.3.227,2.041-1.675a6.048,6.048,0,0,1,1.012-4.881,3.251,3.251,0,0,0,.565-3.838,7.371,7.371,0,0,1-.415-1.647C-960.549,549.844-961.137,548.717-963.158,549.45Zm117.467,50.941a1.855,1.855,0,0,0-1.065-2.283,3.966,3.966,0,0,1-1.823-4.426c.161-.836.4-1.657.612-2.482.1-.374.352-.842-.214-.992a3.184,3.184,0,0,0-2.336.047c-.725.412-.055,1.118.042,1.674a17.96,17.96,0,0,1,.449,2.682,3.146,3.146,0,0,1-1.434,3.1c-2.085.96-1.583,2.335-1.071,3.864.216.646.3,1.346.576,1.96.9,1.992,2.669.042,3.9.8a.807.807,0,0,0,1.261-.427c.168-.542.292-1.1.476-1.635.113-.331.047-.844.689-.81.239.956-.343,1.748-.544,2.6-.129.543.109.733.492.905.6.271.653-.213.76-.584.332-1.145.7-2.282.951-3.446.107-.508.8-1.18-.119-1.6S-844.829,600.136-845.691,600.391Zm-3.192-63.021c.655-.11,1.58.594,1.959-.58.442-1.37.851-2.749,1.3-4.116.156-.474.233-.842-.321-1.126-2.989-1.529-3.229-3.963-2.17-6.786.431-1.149.127-1.6-1.146-1.6s-1.718.268-1.257,1.643c.7,2.1,1.187,4.5-1,5.874-1.768,1.112-1.622,2.188-1.078,3.731.33.938.159,2.216.745,2.857C-851.188,537.993-849.924,537.13-848.883,537.371Zm-123.186.03c1.421.1,2.792.406,3.065-1.558.185-1.333.624-2.63.9-3.953.022-.1-.3-.292-.478-.427-2.8-2.16-3.157-3.039-2.114-6.535.456-1.528.074-1.839-1.4-1.8-1.7.051-1.132,1.048-.875,1.834.8,2.435.741,4.666-1.651,6.148a1.593,1.593,0,0,0-.784,2.215,8.2,8.2,0,0,1,.486,1.8C-974.723,536.97-973.958,537.992-972.069,537.4Zm51.961,16.786h.589c.948,0,2.187.212,2.6-.726a14,14,0,0,0,1.229-4.76c.01-.155-.245-.387-.429-.485-2.906-1.547-3.116-3.931-2.107-6.7.43-1.182.026-1.668-1.237-1.636-1.074.027-1.482.19-1.192,1.486.469,2.092,1.4,4.567-.966,6.043-1.674,1.043-1.642,2.122-1.09,3.6a6.121,6.121,0,0,1,.376,1.309C-922.138,553.8-921.521,554.672-920.108,554.187ZM-919,537.3l0-.075c.507.065,1.181.37,1.492.153,1.391-.969,1.048-2.727,1.616-4.091.224-.54.672-1.348-.2-1.814-2.995-1.594-3.086-4.044-2.122-6.864.142-.417.541-1.071-.132-1.342a2.934,2.934,0,0,0-2.172,0c-.681.285-.173.88-.08,1.335a15.2,15.2,0,0,1,.518,2.843,3.339,3.339,0,0,1-1.546,3.23c-1.811.9-1.662,2.084-1.081,3.578.387,1,.439,2.263,1.108,2.964C-921.175,537.661-919.9,537.3-919,537.3Zm-18.019,2.656c-1.186-.2-1.5.284-1.086,1.44,1.01,2.8.9,5.289-2.093,6.873-.531.281-.509.686-.38,1.152.363,1.315.724,2.632,1.1,3.944.125.44.266.785.87.864,3.7.482,4.055.209,5.1-3.417.427-1.474.571-2.593-1.149-3.292a2.844,2.844,0,0,1-1.3-1.739,6,6,0,0,1,.237-4.172C-935.319,540.341-935.516,539.72-937.019,539.952ZM-884.31,554.1c.762-.2,1.958.736,2.409-.308a32.661,32.661,0,0,0,1.343-4.734c.1-.393-.173-.636-.491-.8-2.85-1.49-3.006-3.843-2.14-6.556.159-.5.635-1.152.016-1.543a2.353,2.353,0,0,0-2.141-.014c-.811.341-.211.969-.129,1.463.1.614.318,1.209.412,1.824.272,1.773-.149,3.454-1.748,4.287-1.483.773-1.39,1.669-.945,2.884a7.846,7.846,0,0,1,.365,1.31C-887.059,553.6-886.521,554.938-884.31,554.1Zm-18.047.1c2.977-.04,2.979-.04,3.753-2.73.156-.544.259-1.107.46-1.633.319-.835.086-1.291-.7-1.774-2.054-1.26-2.612-2.746-2.1-5.066.134-.609.289-1.215.474-1.81.211-.678.07-1.042-.7-1.181-1.712-.309-2.212.157-1.686,1.839.839,2.681.58,4.951-2.127,6.418a.958.958,0,0,0-.468,1.278c.244.924.509,1.843.712,2.777C-904.425,553.77-903.822,554.77-902.356,554.2Zm18.119-30.987c-1.2-.14-1.72.206-1.266,1.521.958,2.781.838,5.252-2.141,6.851-.96.515-.326,1.341-.112,1.957.46,1.326.136,3.247,1.6,3.811a5.419,5.419,0,0,0,3.637.009c1.753-.8,1.095-3.058,1.855-4.551a.841.841,0,0,0-.345-1.287c-2.933-1.51-3.071-3.951-2.136-6.683C-882.762,523.716-882.821,523.043-884.237,523.209Zm.548,81.051c.4.045.857.246,1.174.11,1.391-.6,1.094-2.094,1.456-3.19.253-.764,1.214-1.88-.011-2.575-2.885-1.637-2.976-4.029-2.049-6.759.383-1.128.376-1.8-1.162-1.778-1.37.018-1.721.426-1.257,1.706,1.012,2.8.892,5.278-2.118,6.844-.282.147-.487.365-.405.665a23.134,23.134,0,0,0,1.476,4.864c.406.761,1.79-.1,2.727.095C-883.8,604.253-883.745,604.251-883.689,604.26Zm-88.037-14.179c-1.749,0-1.75,0-1.35,1.573.07.274.151.546.221.82.78,3.032.421,4.065-2.1,5.97-.315.238-.682.38-.617.9a25.437,25.437,0,0,0,1.33,4.718c.076.232.3.272.54.311,3.424.553,4.256.013,5.173-3.389.118-.438.231-.878.365-1.31.149-.476.158-.854-.383-1.128-3.067-1.551-3.026-4.1-2.072-6.843C-970.151,590.341-970.529,589.9-971.727,590.081Zm69.661-52.752a10.937,10.937,0,0,0,2.065.123c1.233-.174,1.08-1.4,1.192-2.141.184-1.233,1.767-2.758.311-3.685-2.786-1.773-3.052-4.048-2.1-6.772.479-1.375.054-1.72-1.271-1.673-1.4.049-1.4.717-1.047,1.778.765,2.3.965,4.574-1.417,6.066a1.816,1.816,0,0,0-.9,2.609,6.243,6.243,0,0,1,.405,1.477C-904.574,536.838-904.009,538.126-902.066,537.329ZM-919,587.321c1.966.935,2.3-.344,2.6-1.742.164-.777.394-1.543.624-2.3a1.376,1.376,0,0,0-.731-1.8c-2.137-1.367-2.619-2.785-2.021-5.251.121-.5.274-.988.371-1.49.081-.417.355-.927-.287-1.153a2.834,2.834,0,0,0-2.007.006c-.627.247-.3.758-.208,1.172.15.665.367,1.316.486,1.986.31,1.755.028,3.5-1.593,4.349-1.587.836-1.472,1.833-1.039,3.152a11.455,11.455,0,0,0,.9,2.875C-921.168,588.2-919.915,586.973-919,587.321Zm-52.941-33.364c2.35,1.026,2.831-.527,3.187-2.275a15.115,15.115,0,0,1,.545-2.141c.27-.742.066-1.122-.631-1.469-2.637-1.314-2.7-4.127-1.859-6.645.4-1.2.172-1.476-1.017-1.536-1.59-.08-1.608.645-1.281,1.873.879,3.306.539,4.789-1.652,6.11a1.548,1.548,0,0,0-.766,2.182,11.647,11.647,0,0,1,.514,1.8C-974.618,553.568-974.1,554.9-971.942,553.957Zm34.359,40.178a4.254,4.254,0,0,1-2.073,4.106c-.5.322-1.241.486-.913,1.353.59,1.565.541,3.347,1.617,4.741.043.056.217.005.33.015,4.132.333,4.131.333,5.187-3.815a4.274,4.274,0,0,1,.153-.486c.312-.808.091-1.284-.694-1.773-2.093-1.3-2.6-2.785-2.022-5.235.144-.606.332-1.2.446-1.813.066-.35.374-.865-.175-1.026a3.644,3.644,0,0,0-2.333.026c-.509.2-.2.692-.127,1.051C-937.969,592.381-937.724,593.479-937.583,594.135Zm-16.792-4.059c-1.265-.175-1.8.215-1.293,1.548a11.128,11.128,0,0,1,.559,2.133c.276,1.639-.1,3.25-1.552,4.028-1.639.881-1.589,1.913-1.054,3.32.281.738.379,1.549.683,2.274.889,2.116,2.739.055,3.977.856.324.21.9.347,1.117-.306.036-.107.069-.216.1-.325q.572-2.044,1.145-4.089c.118-.42.1-.731-.371-.971-3.049-1.536-3.065-4.068-2.131-6.831C-952.779,590.487-952.929,589.85-954.375,590.076Zm18.307-2.652c.517-.191,1.361.723,1.706-.315.482-1.452.844-2.944,1.24-4.424a.668.668,0,0,0-.366-.849c-3.02-1.537-3.177-4.009-2.179-6.82.465-1.307-.143-1.631-1.292-1.574-1.03.05-1.554.295-1.118,1.551.958,2.759.912,5.3-2.166,6.824a.663.663,0,0,0-.395.836,19.92,19.92,0,0,0,1.456,4.684c.454.784,1.891-.153,2.882.085A1.285,1.285,0,0,0-936.068,587.424Zm16.908,2.633c-1.86-.006-1.891.037-1.432,1.733.074.273.14.549.209.824.722,2.845.251,4.115-2.149,5.8-.265.186-.738.283-.636.692a26.142,26.142,0,0,0,1.394,4.876c.421.895,1.634-.048,2.481.143a7.085,7.085,0,0,1,.842.073c1.21.448,1.628-.173,1.813-1.235a9.319,9.319,0,0,1,.464-1.63c.547-1.473.688-2.637-1.062-3.6a3.542,3.542,0,0,1-1.483-3.9,11.584,11.584,0,0,1,.577-2.3C-917.639,590.237-918.146,589.9-919.16,590.057Zm52.335-16.442c-1.352-.2-1.553.318-1.138,1.54.768,2.261,1.092,4.638-1.306,6.1-1.375.84-1.344,1.691-.945,2.9.158.481.205,1,.316,1.5.307,1.381.743,2.532,2.584,1.851a3.835,3.835,0,0,1,1.524.019c.637.049,1.476.507,1.611-.581.211-1.7,2.163-3.746.595-4.971-2.55-1.991-3-4.067-2.017-6.834C-865.181,573.961-865.526,573.4-866.825,573.615Zm-34.924,0c-1.413-.229-1.564.409-1.2,1.56.667,2.129,1.167,4.457-1.037,5.865-1.656,1.059-1.64,2.132-1.1,3.627.267.745.467,1.515.683,2.277a.807.807,0,0,0,.792.71c4.216.419,4.283.339,5.37-3.844.295-1.136.262-1.757-.9-2.425-2.045-1.178-2.695-3.6-1.394-6.612C-899.906,573.3-901.106,573.725-901.749,573.616Zm-26.458,57.443a8.918,8.918,0,0,1-3.518-.515c-2.311-.781-2.853-1.745-2.22-4.12.849-3.182,1.766-6.346,2.657-9.517.128-.454.277-.889-.374-1.086-.675-.2-.724.247-.854.713-.958,3.433-1.987,6.848-2.887,10.3a3.646,3.646,0,0,0,2.328,4.559,12,12,0,0,0,9.935-.069c1.585-.689,2.635-1.92,2.335-3.755-.633-3.88-2.139-7.534-3.072-11.339-.075-.3-.225-.531-.581-.444-.291.071-.566.264-.547.567a7.174,7.174,0,0,0,.265,1.5c.673,2.348,1.309,4.709,2.071,7.029,1.465,4.463.357,5.385-4.346,6.171A7.321,7.321,0,0,1-928.207,631.059Zm17.911.062a11.482,11.482,0,0,1-3.863-.555c-2.382-.72-2.984-1.793-2.335-4.214.851-3.172,1.766-6.327,2.661-9.488.134-.474.229-.9-.4-1.079-.682-.188-.7.308-.83.758-.943,3.391-1.951,6.765-2.839,10.171a3.547,3.547,0,0,0,2.208,4.594,12.219,12.219,0,0,0,9.937.23,3.735,3.735,0,0,0,2.424-4.935c-.889-3.287-1.885-6.545-2.809-9.823-.143-.508-.206-1.133-.886-.919s-.393.819-.252,1.31c.8,2.783,1.608,5.562,2.378,8.352.99,3.59.171,4.859-3.524,5.481A17.116,17.116,0,0,1-910.3,631.121Zm34.883.1c-.9-.111-1.818-.148-2.7-.346-2.988-.673-4.284-1.674-3.15-5.155.932-2.86,1.659-5.786,2.505-8.675.162-.555.259-.989-.445-1.194-.612-.177-.638.286-.741.653-.983,3.5-2.026,6.984-2.916,10.507a3.458,3.458,0,0,0,2.162,4.324,11.964,11.964,0,0,0,10.235.038,3.376,3.376,0,0,0,2.257-3.956c-.656-3.757-2.132-7.3-3.011-11-.077-.324-.177-.7-.669-.535-.354.117-.614.315-.528.739.09.445.18.892.3,1.328.848,3.007,1.675,6.02,2.568,9.013.512,1.718-.241,2.747-1.706,3.4A11.042,11.042,0,0,1-875.413,631.22Zm-17.613-.058c-6.013-.449-7.2-1.723-5.3-6.781.658-1.749,1.094-3.582,1.612-5.381.2-.709.354-1.433.528-2.15a.713.713,0,0,0-.458-.958c-.6-.208-.645.274-.75.642-.977,3.439-2.018,6.862-2.894,10.326a3.482,3.482,0,0,0,2.141,4.483,11.639,11.639,0,0,0,10.519-.173,3.861,3.861,0,0,0,1.974-4.478c-1.144-3.262-2.04-6.592-2.982-9.912-.116-.407.056-1.162-.833-.909-.757.215-.531.714-.388,1.215.768,2.674,1.509,5.355,2.3,8.023,1.2,4.089.272,5.494-4.017,5.969C-892.086,631.132-892.6,631.137-893.026,631.162Zm-70.519-.064a4.126,4.126,0,0,1-.92-.053c-3.843-.74-5.842-1.244-4.143-6.156.89-2.573,1.544-5.228,2.291-7.849.144-.5.249-1.057-.465-1.233-.589-.145-.63.389-.728.729-.965,3.387-1.963,6.765-2.836,10.176-.522,2.043.053,3.493,1.746,4.361a11.409,11.409,0,0,0,10.958-.044,3.181,3.181,0,0,0,1.854-3.688c-.9-3.694-1.984-7.345-2.989-11.014-.1-.354-.223-.655-.679-.552-.441.1-.731.316-.6.831.109.441.2.886.33,1.322.82,2.838,1.684,5.664,2.457,8.514.616,2.273.069,3.243-2.153,4.047A11.235,11.235,0,0,1-963.545,631.1Zm103.154-119.945c0-.227.005-.455,0-.682-.105-3.832-2.256-5.9-6.176-5.936-4.212-.04-6.389,1.8-6.567,5.68-.168,3.67.846,7.144,1.981,10.583.1.313.221.7.694.52.337-.125.613-.34.519-.759-.086-.386-.214-.763-.318-1.146-.791-2.9-1.729-5.78-1.659-8.838.035-1.517.317-3.04,1.7-3.9a6.434,6.434,0,0,1,6.364-.282c1.875.868,2.168,2.618,2.156,4.467a13.423,13.423,0,0,1-.292,3.218c-.513,2.036-1.011,4.075-1.563,6.1-.135.5-.225.862.339,1.112.716.318.727-.244.855-.661A36.76,36.76,0,0,0-860.391,511.153Zm-67.667,36.263a10.374,10.374,0,0,1-4-.663c-.461-.187-1.107-.5-.773-1.02,1.393-2.177-.49-3.512-1.218-5.134-.14-.312-.459-.2-.677.068a4.781,4.781,0,0,0,1.489,6.931,11.665,11.665,0,0,0,7.634.847c4.478-.9,5.719-3.013,4.175-7.3-.1-.285.025-.943-.666-.672a.745.745,0,0,0-.517.941c.079.331.156.662.239.991.694,2.743.052,3.869-2.66,4.6A10.391,10.391,0,0,1-928.058,547.416ZM-913,561.293c.006-4.271-2.342-6.651-6.4-6.613-4.151.039-6.374,2.2-6.356,6.287,0,.7-.419,1.994.524,2.008,1.31.021.608-1.325.646-2.031.131-2.411,1.039-4.01,2.812-4.614a7.049,7.049,0,0,1,5.419.386c.706.334,1.734.933.755,2.17a3.781,3.781,0,0,0-.475,1.952,2.535,2.535,0,0,0,2.344,2.209C-912.453,562.922-913.324,561.77-913,561.293Zm2.7-30.583c-.788-.083-1.582-.133-2.364-.258a9.669,9.669,0,0,1-1.812-.448c-2.165-.8-2.62-1.686-2.071-3.918.135-.551.317-1.094.406-1.651.063-.4-.283-.59-.585-.755-.243-.133-.39,0-.548.2a4.771,4.771,0,0,0,1.495,6.927,12.043,12.043,0,0,0,8.627.788c3.886-1.039,5.088-3.672,3.358-7.3-.161-.339-.278-.643-.713-.467-.326.132-.606.355-.538.763.055.334.17.657.253.987.766,3.05.124,4.072-2.967,4.848A12.728,12.728,0,0,1-910.3,530.709Zm-.047,50.306c-.956-.116-1.918-.2-2.867-.361a7.23,7.23,0,0,1-1.63-.476,2.644,2.644,0,0,1-1.8-3.531c.139-.609.346-1.2.49-1.809.1-.4-.168-.636-.5-.78s-.5.074-.671.326a4.568,4.568,0,0,0,2.186,7.055,12.737,12.737,0,0,0,8.533.3c3-.959,3.977-2.671,3.137-5.706-.185-.666.164-2.153-1.059-1.826-1.172.314-.225,1.474-.078,2.2.461,2.271-.037,3.318-2.2,4.065A10.435,10.435,0,0,1-910.346,581.015ZM-928.143,599a11.482,11.482,0,0,0,3.918-.6c3.1-1.046,4.012-2.74,3.09-5.884-.2-.681-.115-2.08-.913-1.876-1.25.32-.415,1.516-.225,2.318.563,2.373.093,3.431-2.186,4.172a11.353,11.353,0,0,1-8-.233,2.561,2.561,0,0,1-1.683-3.278c.166-.717.4-1.418.575-2.134.119-.495-.232-.725-.618-.875s-.458.182-.586.424c-1.932,3.665-.667,6.538,3.32,7.571A11.384,11.384,0,0,0-928.143,599Zm-17.608,0a10.966,10.966,0,0,0,4.275-.657c2.865-1.016,3.736-2.6,2.936-5.523-.208-.761-.059-2.359-1.018-2.069-1.21.365-.373,1.731-.122,2.644.471,1.718.106,2.764-1.537,3.462a10.948,10.948,0,0,1-8.94-.076,2.4,2.4,0,0,1-1.5-3.182c.2-.708.354-1.433.5-2.157a.766.766,0,0,0-.477-.822c-.24-.139-.408-.041-.57.151-1.8,2.126-.878,6.141,1.731,7.309A10.864,10.864,0,0,0-945.751,599Zm52.977-66.961a10.988,10.988,0,0,0,2.644-.358c4.114-.9,5.339-3.167,3.854-7.141-.126-.336-.073-.9-.68-.752a.714.714,0,0,0-.562,1.031c.142.431.258.873.364,1.315.531,2.224.035,3.138-2.1,3.929a11.188,11.188,0,0,1-7.526.055c-2.139-.693-2.664-1.7-2.178-3.887.111-.5.25-.992.375-1.488a.679.679,0,0,0-.5-.926c-.5-.134-.743.24-.841.63-.165.658-.245,1.336-.374,2a3.679,3.679,0,0,0,2.172,4.494A11.922,11.922,0,0,0-892.774,532.039Zm-69.953,66.982a10.2,10.2,0,0,0,4.21-.878c2.367-.95,3.178-2.525,2.531-5.006-.232-.891-.141-2.644-1.068-2.424-1.5.357-.319,1.855-.156,2.736.261,1.411.2,2.506-1.163,3.17a10.169,10.169,0,0,1-9.651-.056,2.163,2.163,0,0,1-1.139-2.737c.219-.763.382-1.544.544-2.322a.739.739,0,0,0-.425-.843.429.429,0,0,0-.589.1c-1.591,1.624-.989,5.766,1.064,6.992A11.037,11.037,0,0,0-962.727,599.021Zm17.391-51.538c-.813-.072-1.5-.09-2.17-.205a12.374,12.374,0,0,1-1.978-.5c-2-.7-2.56-1.724-2.108-3.778.134-.609.3-1.213.391-1.829.056-.4-.273-.606-.6-.726-.261-.1-.355.1-.491.3A4.72,4.72,0,0,0-949.878,548a13.1,13.1,0,0,0,7.061.432c4.257-.938,5.588-3.377,3.916-7.379-.124-.3-.106-.719-.625-.555-.348.11-.645.295-.609.7a7.3,7.3,0,0,0,.224,1c.758,3.232.2,4.163-3.026,4.923C-943.761,547.314-944.616,547.378-945.335,547.483Zm-17.924-16.816a11.569,11.569,0,0,1-3.987-.748c-1.853-.831-2.252-1.635-1.8-3.626.139-.61.294-1.217.4-1.832a.609.609,0,0,0-.429-.656c-.315-.142-.5-.01-.7.253a4.774,4.774,0,0,0,1.555,6.8,11.625,11.625,0,0,0,8.965.476c3.061-.976,4-2.627,3.174-5.693-.181-.67.089-2.129-1.058-1.848-1.239.3-.259,1.473-.121,2.181.47,2.4,0,3.364-2.312,4.124A11.5,11.5,0,0,1-963.259,530.668Zm52.747,16.751a10.605,10.605,0,0,1-4.021-.646c-2.013-.749-2.521-1.7-2.044-3.8.125-.552.289-1.1.4-1.65.094-.48-.228-.722-.612-.9-.285-.13-.4.091-.529.273a4.693,4.693,0,0,0,2.359,7.266,13.066,13.066,0,0,0,8.033.336c3.69-1.085,4.919-3.9,3.11-7.277-.139-.26-.235-.53-.6-.444s-.65.3-.613.691a8.46,8.46,0,0,0,.273,1.152c.711,2.976.083,3.989-2.895,4.755A11.364,11.364,0,0,1-910.512,547.418Zm34.861,34.884a12.976,12.976,0,0,0,3.376-.363c3.933-1.1,5-3.227,3.5-7.056-.127-.325-.08-.923-.675-.766-.519.137-.638.6-.519,1.1.144.608.27,1.221.442,1.82a2.4,2.4,0,0,1-1.618,3.127,11.1,11.1,0,0,1-8.941-.078,2.362,2.362,0,0,1-1.527-2.883c.149-.78.335-1.553.474-2.334a.664.664,0,0,0-.494-.784c-.245-.084-.4.042-.557.245a4.878,4.878,0,0,0,1.281,6.754A10.2,10.2,0,0,0-875.651,582.3Zm-52.879,32.063a10.12,10.12,0,0,1-2.661-.426c-2.736-.635-3.424-1.837-2.709-4.57a7.546,7.546,0,0,0,.292-1.326c.022-.292-.253-.487-.532-.6-.341-.133-.492.068-.658.33a4.586,4.586,0,0,0,2.388,7.111,12.158,12.158,0,0,0,8.513-.01c2.732-.986,3.6-2.63,2.848-5.449-.2-.74-.1-2.194-.972-2-1.289.283-.384,1.5-.21,2.294.481,2.189.016,3.166-2.084,3.95A12.691,12.691,0,0,1-928.531,614.365Zm.344-32.108a11.522,11.522,0,0,0,4.337-.754c2.715-1.011,3.6-2.688,2.787-5.475-.2-.684-.013-2.12-1.067-1.843-1.123.3-.257,1.467-.1,2.212.458,2.228.034,3.185-2.111,3.9a12.225,12.225,0,0,1-7.636.025c-2.034-.631-2.553-1.741-2.061-3.794.132-.551.295-1.1.422-1.647a.68.68,0,0,0-.454-.808c-.309-.148-.51-.028-.7.245a4.68,4.68,0,0,0,2.1,7.107A10.971,10.971,0,0,0-928.186,582.256Zm52.69,16.821a12.348,12.348,0,0,0,4.023-.624c2.93-1.019,3.856-2.665,3.036-5.657-.2-.742-.269-2.2-.94-2.026-1.418.369-.409,1.594-.233,2.421.477,2.25-.03,3.306-2.214,4.038a11.181,11.181,0,0,1-8.157-.321,2.419,2.419,0,0,1-1.627-2.988c.165-.777.342-1.553.513-2.329a.676.676,0,0,0-.422-.822c-.325-.149-.5.05-.673.307a4.688,4.688,0,0,0,2.5,7.325A13.3,13.3,0,0,0-875.5,599.078Zm-.714-50.338a11.148,11.148,0,0,0,5-.7c2.656-.973,3.55-2.624,2.816-5.323-.2-.731-.051-2.215-.983-2.029-1.341.268-.357,1.506-.216,2.276.415,2.259.037,3.115-2.138,3.9a11.542,11.542,0,0,1-7.679-.016c-1.994-.649-2.59-1.742-2.112-3.75.144-.607.333-1.2.455-1.815.083-.414-.238-.6-.566-.721-.234-.087-.4.011-.56.218a4.828,4.828,0,0,0,1.426,6.833A8.153,8.153,0,0,0-876.21,548.74Zm-16.684.042a11.55,11.55,0,0,0,4.088-.74c2.727-.982,3.6-2.619,2.846-5.439-.2-.73-.048-2.155-1.028-1.939-1.1.244-.311,1.451-.157,2.2.468,2.282-.047,3.337-2.226,4.047a12.33,12.33,0,0,1-7.221.112c-2.25-.624-2.876-1.848-2.344-4.112.13-.553.276-1.1.362-1.664.048-.31-.177-.518-.455-.642a.473.473,0,0,0-.594.149c-1.452,1.581-.935,5.453.921,6.6A10.614,10.614,0,0,0-892.893,548.782Zm-.223,50.36c1.038-.123,1.9-.157,2.726-.336,4.379-.945,5.462-2.818,4.119-7.084-.131-.417,0-1.214-.813-.974-.766.225-.544.85-.363,1.416.156.486.257.989.391,1.482a2.429,2.429,0,0,1-1.355,3.117,10.313,10.313,0,0,1-9.366-.017,2.241,2.241,0,0,1-1.3-2.829c.2-.706.287-1.446.433-2.168.083-.408.144-.817-.368-.974-.592-.182-.6.324-.742.674-1.608,4.016-.442,6.309,3.781,7.31A26.3,26.3,0,0,0-893.116,599.142Zm35.169,15.252a11.193,11.193,0,0,1-3.205-.4c-2.781-.761-3.379-1.795-2.669-4.594.1-.385.21-.768.285-1.157a.628.628,0,0,0-.4-.677c-.3-.168-.5-.059-.71.2a4.632,4.632,0,0,0,1.463,6.793,11.872,11.872,0,0,0,7.651.867c4.318-.84,5.6-2.855,4.291-7.015-.108-.343.1-1.213-.762-.979-.65.176-.606.728-.463,1.263.117.439.231.879.334,1.322.442,1.892.05,2.811-1.662,3.554A10.236,10.236,0,0,1-857.947,614.394Zm-56.385-19.867c0,.227-.015.456,0,.681.041.518-.294,1.3.571,1.349,1,.059.711-.837.736-1.372.254-5.429-3.251-8.21-8.586-6.841a6.139,6.139,0,0,0-4.09,7.685c.1.267.121.562.507.551s.653-.2.665-.6c.016-.511-.021-1.023-.013-1.534.022-1.574.2-3.163,1.625-4.1a6.439,6.439,0,0,1,6.356-.4C-914.571,590.794-914.33,592.639-914.332,594.527Zm-17.446.017q0,.426,0,.852c0,.493-.179,1.132.574,1.192.94.075.679-.725.721-1.216a9.846,9.846,0,0,0-.225-3.042,5.153,5.153,0,0,0-4.817-4.144c-2.634-.349-5.2-.025-6.808,2.45a7.287,7.287,0,0,0-.849,5.265c.053.323.072.708.557.7.513-.01.678-.312.656-.78s-.043-.909-.038-1.363c.019-1.576.214-3.165,1.623-4.106a6.4,6.4,0,0,1,6.353-.381C-932.047,590.822-931.786,592.656-931.777,594.544Zm30.2-22.918c-5.689-.186-6.88,3.761-6.588,7.4.032.4.035.865.571.884.572.02.77-.348.74-.9s-.024-1.136,0-1.7c.1-2.972,1.537-4.22,4.5-3.94a3.473,3.473,0,0,0,1.018-.054,3.405,3.405,0,0,1,4.247,2.055,7.926,7.926,0,0,1,.46,3.182c0,.513-.3,1.3.589,1.316.847.012.659-.851.677-1.312C-895.219,574.952-896.6,571.61-901.573,571.626Zm-5.309,23.073c.011-3.6,1.617-5.237,5.089-5.272,3.453-.035,5.118,1.62,5.146,5.116,0,.455-.01.909-.017,1.364a.641.641,0,0,0,.539.739c.462.087.54-.243.656-.58.706-2.034-.337-5.622-2.157-6.768a7.39,7.39,0,0,0-7.74-.331c-2.27,1.176-2.83,3.282-2.8,5.608.009.716-.414,1.989.562,2.027C-906.207,596.657-907.163,595.284-906.882,594.7Zm-12.472,11.428c3.371,0,5,1.622,5.046,5.025.007.511-.047,1.024-.005,1.531.033.4.388.538.738.574s.5-.207.517-.521c.144-2.3.225-4.674-1.708-6.328-2.35-2.011-5.113-2.017-7.864-.93-2.637,1.042-3.15,3.407-3.217,5.883-.016.606-.3,1.788.643,1.794,1.081.005.628-1.137.641-1.79C-924.49,607.722-922.924,606.121-919.354,606.126Zm46.236-11.182a2.329,2.329,0,0,0,.017.761c.078.376-.208,1.057.5,1.037.652-.018.714-.558.69-1.13a11.493,11.493,0,0,1,.073-2.205c.448-2.906,2.244-4.173,5.527-3.961,3.027.2,4.512,1.662,4.609,4.573.023.68-.013,1.362-.005,2.043,0,.43.312.57.673.615s.467-.2.575-.482c.7-1.815-.31-5.536-1.952-6.707a7.513,7.513,0,0,0-7.766-.621C-872.581,589.92-873.206,592.08-873.118,594.944Zm-92.505-67.363c0-3.836-1.345-5.6-4.579-6.233a8.936,8.936,0,0,0-3.219,0,6.093,6.093,0,0,0-4.792,7.714c.089.292.155.555.519.532.447-.029.764-.224.768-.726.006-.74-.035-1.482.015-2.218a3.841,3.841,0,0,1,1.474-3.136,6.39,6.39,0,0,1,6.506-.414c1.892.831,2.1,2.64,2.256,4.453.057.687-.559,1.97.585,1.918C-965.071,529.421-965.925,528.125-965.623,527.58ZM-913,527.8c.008-4.189-1.882-6.416-5.842-6.6-5.457-.26-7.391,2.965-6.906,7.537.037.356-.029.878.593.824.5-.043.636-.4.63-.844q-.011-.767,0-1.535a4.187,4.187,0,0,1,1.758-3.857,6.4,6.4,0,0,1,6.217-.287c1.916.863,2.258,2.674,2.266,4.6,0,.694-.508,1.913.726,1.869C-912.533,529.469-913.264,528.287-913,527.8Zm-52.506,66.808c.044-4.9-3.25-7.381-8.243-6.316a6.2,6.2,0,0,0-4.435,7.8c.13.383.29.589.706.508a.642.642,0,0,0,.567-.716c0-.851-.033-1.705.025-2.553a3.611,3.611,0,0,1,1.462-2.946,6.492,6.492,0,0,1,6.349-.454c1.989.8,2.241,2.641,2.395,4.528.058.714-.683,2.057.625,2.043C-965.022,596.494-965.807,595.172-965.507,594.61Zm81.245,10.374c-5.269-.175-6.775,3.417-6.442,7.505.032.392.02.843.617.793a.666.666,0,0,0,.679-.788c-.022-.51-.044-1.022-.027-1.532.061-1.863.57-3.474,2.462-4.293,4.259-1.842,7.742.383,7.783,4.977,0,.17,0,.34,0,.511-.007.507-.119,1.118.658,1.106.653-.01.588-.607.617-1.021C-877.618,608.06-879.368,604.843-884.262,604.984Zm17.422-33.367c-4.091.016-6.222,2.01-6.276,5.966-.01.774-.377,2.184.479,2.2,1.418.027.368-1.434.706-2.159.022-.047,0-.113.005-.169.246-3.262,1.89-4.612,5.517-4.531,3.168.07,4.639,1.56,4.708,4.771.009.4.01.8-.008,1.194-.022.49.026.933.627,1.017.746.1.621-.488.674-.9C-859.816,574.4-862.261,571.6-866.84,571.617Zm-35.015-50.294c-4.044.02-6.261,2.073-6.291,5.982-.006.761-.626,2.221.642,2.213,1.3-.008.581-1.458.625-2.233.11-1.9.6-3.5,2.495-4.286,4.3-1.787,7.7.454,7.73,5.064,0,.171,0,.342,0,.512-.007.464-.039.979.592,1.037.711.065.629-.567.662-.958C-895.065,524.732-896.539,521.16-901.855,521.323Zm-70.009,50.235c-4.21.011-6.4,2.121-6.353,6.236.008.69-.469,1.946.515,2,1.4.075.7-1.285.723-1.98.119-3.45,1.58-4.952,5.055-5.019,3.4-.067,5.057,1.488,5.2,4.879.017.4.012.8,0,1.192-.019.492.031.954.652.975s.484-.507.534-.863C-964.893,574.336-967.272,571.547-971.864,571.558Zm57.513,6q0,.767,0,1.535a.669.669,0,0,0,.729.752c.571.005.539-.444.6-.838.618-4.1-1.557-7.134-5.336-7.428-4.875-.379-7.516,1.82-7.5,6.333,0,.641-.252,1.793.636,1.853,1.2.081.528-1.084.675-1.7a5.454,5.454,0,0,0,.012-.85c.214-3.04,2.136-4.613,5.462-4.476C-915.922,572.866-914.387,574.448-914.351,577.558Zm30.14-56.243c-4.293-.041-6.512,2.07-6.5,6.292,0,.676-.5,1.928.65,1.923,1.215-.006.572-1.25.6-1.917.111-2.977,1.034-4.393,3.513-4.887,3.886-.774,7.027.585,6.761,5.316a2.379,2.379,0,0,0,0,.341c.041.476-.194,1.137.573,1.205.824.073.659-.667.686-1.1C-877.659,524.121-879.512,521.239-884.211,521.315Zm17.407,0c-4.173.005-6.293,2.015-6.315,6.089,0,.717-.392,2.032.431,2.058,1.2.038.7-1.289.741-2.049.159-3.306,1.873-4.931,5.254-4.9,3.308.032,4.923,1.619,4.994,4.911.009.4.018.8,0,1.194-.028.485-.024.93.607,1.007.742.091.626-.483.682-.9C-859.8,524.133-862.234,521.31-866.8,521.316ZM-842,599.054c.518-.1,1.084.136,1.1-.608.012-.663-.517-.633-.943-.727a20.078,20.078,0,0,1-2.638-.6c-2.048-.759-2.5-1.681-2-3.795.141-.6.313-1.2.431-1.812a.741.741,0,0,0-.471-.813c-.342-.188-.465-.012-.64.257-1.911,2.942-.912,6.248,2.3,7.394A26.537,26.537,0,0,0-842,599.054Zm.052-67.092c.451-.025,1,.213,1.057-.515s-.452-.739-.987-.827a14.307,14.307,0,0,1-2.629-.613c-2.058-.76-2.509-1.679-2-3.795.133-.548.31-1.086.427-1.637.084-.4-.22-.6-.505-.8-.227-.156-.358-.1-.549.107-1.593,1.749-1.049,5.557,1.024,6.8A11.028,11.028,0,0,0-841.945,531.962ZM-973.163,594.3a5.042,5.042,0,0,0-.322-1.345c-.378-.774.008-2.458-1.1-2.208-1.364.309-.247,1.643-.089,2.46.42,2.162.053,3.018-1.981,3.864a8.883,8.883,0,0,1-2.818.616c-.509.036-.9.213-.824.825.073.586.534.5.914.465a8.764,8.764,0,0,0,5.039-1.81A3.458,3.458,0,0,0-973.163,594.3Zm0-67.221a6.3,6.3,0,0,0-.263-1.068c-.306-.774-.087-2.349-1.038-2.149-1.5.315-.276,1.6-.15,2.387.316,1.958-.02,2.915-1.838,3.649a18.46,18.46,0,0,1-2.788.716c-.459.105-1.12-.1-1.055.726.075.962.829.615,1.294.55a10.833,10.833,0,0,0,3.417-.975A3.9,3.9,0,0,0-973.168,527.078Zm.019,16.806c-.164-.672-.38-1.61-.627-2.541-.1-.394-.1-1.013-.755-.823-.6.174-.689.666-.481,1.242a11.711,11.711,0,0,1,.354,1.316c.449,1.918-.006,2.886-1.865,3.606a15.645,15.645,0,0,1-2.8.682c-.525.1-1.084.079-.975.833.12.826.754.522,1.2.445a12.344,12.344,0,0,0,3.287-.85A4.088,4.088,0,0,0-973.149,543.885Zm130.841,4.866c.641-.119,1.3.277,1.408-.545.1-.772-.493-.733-1-.8a12.54,12.54,0,0,1-2.007-.363c-2.591-.814-3.14-1.827-2.48-4.434.111-.44.244-.876.314-1.323.05-.316-.175-.516-.445-.651-.319-.16-.51-.011-.7.245a4.577,4.577,0,0,0,1.836,6.924A29.447,29.447,0,0,0-842.307,548.751Zm-38.12,22.891c.1-.078.364-.176.414-.34.492-1.616.954-3.24,1.409-4.867a.46.46,0,0,0-.4-.613c-.344-.081-.713-.127-.838.3q-.692,2.348-1.331,4.711C-881.3,571.328-881.008,571.558-880.427,571.642Zm-78.9-39.555c-.669.055-.886.406-.7,1.038.407,1.408.8,2.82,1.21,4.227.1.351.093.867.71.671.5-.16.689-.445.516-1.02-.44-1.457-.812-2.934-1.2-4.4C-958.874,532.31-958.964,532.057-959.324,532.087Zm45.541,1.048c.132-.5.089-.9-.508-1.044-.418-.1-.612.089-.715.485-.4,1.527-.8,3.054-1.238,4.572-.155.541.177.718.548.87.456.188.574-.134.672-.487C-914.615,536.065-914.2,534.6-913.784,533.135Zm35.187-.248c.094-.487-.281-.579-.592-.7s-.549-.074-.649.3c-.441,1.626-.9,3.247-1.32,4.879-.108.422.282.577.6.69.362.128.525-.135.605-.413C-879.49,536.059-879.046,534.472-878.6,532.887Zm-35.175,50.556c.065-.41.164-.788-.409-.947-.413-.115-.681,0-.793.386-.447,1.528-.889,3.057-1.3,4.6-.113.426.282.578.59.711.472.2.576-.146.674-.486Q-914.389,585.573-913.772,583.443Zm-62-45.358c.646-.155.941-.42.683-1.183-.447-1.328-.765-2.7-1.135-4.055-.1-.374-.136-.829-.705-.731s-.711.478-.563,1q.623,2.188,1.253,4.375C-976.162,537.746-976.135,538.055-975.769,538.085Zm70.811-.845c-.4-1.465-.8-2.928-1.185-4.395-.1-.383-.111-.8-.718-.652-.569.142-.7.462-.545.989.421,1.458.828,2.919,1.238,4.381.1.35.233.66.679.517C-905.09,537.953-904.755,537.751-904.959,537.24Zm-54.465,61.933c-.5.1-.781.318-.549,1.022.438,1.331.754,2.7,1.146,4.048.1.328.042.9.67.712.452-.135.784-.349.591-.975-.448-1.448-.825-2.917-1.227-4.378C-958.871,599.32-958.946,599.049-959.424,599.173Zm-17.348-16.7c-.724.042-.877.434-.7,1.038.386,1.351.755,2.707,1.165,4.051.095.31.034.913.685.656.425-.168.769-.335.552-.984-.446-1.331-.77-2.7-1.14-4.057C-976.3,582.851-976.377,582.517-976.772,582.477Zm131.362-44.343c.108-.084.3-.157.338-.275.48-1.691.952-3.385,1.39-5.088.09-.349-.252-.458-.531-.527-.431-.107-.623.157-.723.512-.414,1.476-.806,2.958-1.232,4.431C-846.361,537.858-845.854,537.926-845.41,538.134ZM-975.024,570.76q-.627-2.28-1.255-4.559a.573.573,0,0,0-.763-.447c-.532.119-.55.48-.431.905q.615,2.2,1.231,4.391c.094.337.2.681.667.53C-975.186,571.455-974.817,571.285-975.024,570.76Zm70.193.479c-.529-1.943-.951-3.518-1.392-5.089-.123-.439-.479-.383-.826-.311-.47.1-.46.438-.368.775.415,1.52.848,3.034,1.274,4.552.1.374.3.6.726.444C-905.071,571.484-904.819,571.291-904.831,571.24Zm-36.95,11.144c-.579.135-.96.308-.726,1.04.431,1.347.757,2.728,1.154,4.086.1.334.09.865.715.678a.707.707,0,0,0,.55-1.017c-.408-1.354-.772-2.723-1.172-4.08C-941.347,582.8-941.3,582.365-941.781,582.383Zm87.594-16.609c-.782.038-.882.445-.751.943q.584,2.206,1.217,4.4c.1.331.286.624.733.487.486-.149.571-.5.457-.93-.373-1.416-.74-2.834-1.14-4.242C-853.757,566.125-853.886,565.767-854.187,565.774Zm-122.758,33.487c-.532.056-.657.364-.523.834.421,1.473.845,2.945,1.259,4.42.107.382.262.63.708.417.377-.181.668-.35.5-.893-.44-1.407-.819-2.833-1.22-4.252C-976.326,599.415-976.52,599.177-976.944,599.261Zm106.964-62.142c-.37-1.325-.745-2.746-1.174-4.152-.093-.3.017-.9-.637-.764-.55.118-.72.474-.57,1.011.394,1.415.766,2.837,1.178,4.247.085.29.164.713.644.615C-870.081,537.983-869.87,537.691-869.981,537.119Zm-87.5,50.706c-.529-1.912-.946-3.49-1.411-5.054-.125-.42-.51-.341-.85-.226-.42.144-.451.471-.354.813.415,1.461.85,2.917,1.272,4.376.106.365.265.632.7.44C-957.81,588.042-957.459,587.933-957.478,587.825Zm59.628-16.17c.093-.072.293-.146.334-.272a23.843,23.843,0,0,0,1.349-5.05c.034-.335-.237-.484-.537-.529a.518.518,0,0,0-.623.419c-.445,1.512-.912,3.018-1.321,4.54C-898.794,571.314-898.445,571.6-897.849,571.656Zm-7.681,33.363c.368-.163.769-.285.611-.838q-.628-2.2-1.237-4.411a.577.577,0,0,0-.76-.459c-.524.1-.586.438-.457.888.405,1.414.8,2.83,1.2,4.245C-906.08,604.772-906.02,605.139-905.53,605.018Zm9.4-21.5c.06-.394.234-.8-.366-.945a.628.628,0,0,0-.877.512c-.38,1.423-.78,2.84-1.187,4.255-.146.506.12.745.527.9.61.226.633-.28.737-.637C-896.9,586.241-896.519,584.879-896.132,583.518Zm8.638,3.955c-.43-1.527-.855-3.056-1.294-4.58-.131-.456-.491-.377-.831-.3-.477.109-.419.438-.323.786q.609,2.212,1.214,4.424c.1.381.29.625.718.408C-887.713,588.061-887.361,587.929-887.494,587.472Zm34.836-.444c-.294-1.11-.665-2.539-1.057-3.962a.6.6,0,0,0-.75-.51c-.547.108-.564.5-.458.911q.549,2.145,1.135,4.282c.09.326.24.687.7.508C-852.689,588.1-852.407,587.835-852.658,587.028Zm-96.766-4.655a.4.4,0,0,0-.47.325c-.446,1.585-.9,3.166-1.331,4.757-.117.436.265.577.574.716.482.218.6-.158.688-.476.394-1.422.766-2.85,1.144-4.276A.753.753,0,0,0-949.424,582.373Zm61.272-10.735c.633-.117.825-.458.634-1.089-.406-1.347-.781-2.7-1.15-4.06-.131-.482-.288-.852-.91-.683-.589.16-.427.548-.322.928q.581,2.116,1.164,4.23C-888.651,571.279-888.637,571.664-888.153,571.638Zm44.423-4.735c.041-.491.232-.913-.336-1.088a.612.612,0,0,0-.885.489q-.585,2.212-1.176,4.423a.653.653,0,0,0,.542.883c.464.12.549-.261.645-.587C-844.525,569.615-844.112,568.2-843.73,566.9Zm-70.082,33.213c.092-.5.019-.736-.324-.832s-.718-.157-.844.275c-.459,1.577-.908,3.157-1.306,4.75-.107.427.351.522.659.632.375.133.488-.135.57-.425Zm-10.542-68.006c-.734.109-.748.606-.614,1.144.34,1.372.687,2.743,1.062,4.105.1.36.215.811.787.627.556-.178.631-.563.484-1.071-.393-1.36-.761-2.726-1.161-4.083C-923.885,532.535-923.884,532.119-924.354,532.11Zm36.881,72.053c-.414-1.472-.831-2.943-1.242-4.416a.57.57,0,0,0-.761-.452c-.543.114-.539.448-.411.894.4,1.415.78,2.839,1.166,4.26.091.335.18.7.651.552C-887.683,604.878-887.306,604.7-887.473,604.164Zm-18.23-15.838c.573-.19.935-.425.658-1.21-.433-1.229-.74-2.5-1.071-3.766-.12-.459-.162-.921-.832-.783-.693.143-.535.6-.41,1.048.364,1.313.723,2.628,1.105,3.935C-906.167,587.847-906.211,588.267-905.7,588.325Zm44.249-56.041c-.467-.085-.721-.048-.791.189-.494,1.673-.993,3.346-1.417,5.037-.092.364.375.513.7.6.377.1.47-.194.549-.472q.62-2.2,1.238-4.391C-861.038,532.752-861.033,532.337-861.455,532.284Zm8.892,4.749c-.364-1.34-.772-2.864-1.2-4.382-.1-.348-.273-.6-.729-.43a.686.686,0,0,0-.456.94c.4,1.467.806,2.932,1.239,4.39.091.308.242.667.714.488C-852.605,537.894-852.521,537.59-852.563,537.034Zm-113.787-3.378c.167-.853.187-1.294-.378-1.5a.438.438,0,0,0-.644.324q-.665,2.368-1.307,4.743c-.11.411.171.616.5.77.5.235.6-.18.689-.474C-967.058,536.111-966.655,534.7-966.35,533.655Zm50.712,37.914a.388.388,0,0,0,.53-.273q.7-2.447,1.371-4.906c.117-.433-.209-.6-.55-.713-.445-.15-.613.118-.713.482-.407,1.474-.786,2.957-1.232,4.419C-916.423,571.2-916.093,571.392-915.639,571.569Zm37.035,11.7c.1-.439-.1-.649-.505-.73-.375-.074-.651-.025-.77.411-.4,1.48-.827,2.954-1.246,4.43-.148.523.2.722.582.872.361.14.528-.123.61-.4C-879.481,586.331-879.046,584.8-878.6,583.272Zm6.13.1c.4,1.4.789,2.81,1.207,4.209.1.342.12.857.719.7.54-.146.678-.517.53-1.038-.385-1.35-.757-2.7-1.143-4.054-.114-.4-.273-.745-.813-.611C-872.42,582.68-872.445,582.984-872.475,583.368Zm28.722.361c.147-.651.187-1.084-.471-1.2-.569-.1-.657.3-.764.691-.354,1.318-.7,2.636-1.069,3.951a.767.767,0,0,0,.534,1.072c.6.162.578-.427.679-.755C-844.44,586.189-844.08,584.872-843.753,583.729Zm-52.409-50.424c.1-.511.028-.944-.527-1.1-.752-.211-.647.493-.756.844-.4,1.3-.726,2.621-1.106,3.926-.151.519-.076.91.469,1.081.577.181.647-.3.754-.665C-896.93,536.032-896.549,534.668-896.161,533.305Zm-45.588-1.2c-.683.106-.843.5-.677,1.1.374,1.367.73,2.738,1.112,4.1.1.36.151.848.737.688.553-.151.657-.518.5-1.05-.419-1.414-.8-2.838-1.21-4.255C-941.36,532.444-941.379,532.12-941.749,532.11Zm1.708,71.932c-.4-1.414-.81-2.827-1.2-4.244a.633.633,0,0,0-.875-.518c-.588.149-.432.527-.319.925.384,1.36.745,2.727,1.132,4.086.1.353.132.845.741.633C-940.141,604.777-939.872,604.54-940.041,604.042Zm-8.823-3.593c.013-.538.219-1.042-.447-1.192-.545-.123-.693.276-.8.656-.384,1.357-.743,2.721-1.112,4.083a.679.679,0,0,0,.5.911c.486.175.6-.194.7-.5C-949.613,603.062-949.229,601.705-948.864,600.45Zm85.281,3.628c-.257.493.034.8.532.943.624.184.595-.373.694-.71.4-1.358.768-2.726,1.157-4.087.125-.437.113-.785-.425-.909-.508-.117-.7.135-.819.593C-862.8,601.278-863.188,602.641-863.583,604.078Zm-60.661-38.424c-.733.075-.9.477-.742,1.079.366,1.371.728,2.743,1.113,4.108.1.36.154.869.724.732.545-.132.673-.55.527-1.064-.4-1.419-.8-2.839-1.214-4.255C-923.909,566.005-923.907,565.672-924.245,565.654Zm71.69,38.4c-.355-1.375-.7-2.751-1.07-4.122-.109-.4-.313-.736-.842-.625-.57.119-.531.522-.424.92.368,1.371.741,2.742,1.152,4.1.1.322.1.894.732.665A.67.67,0,0,0-852.555,604.05Zm-9.335-21.517c-.062.039-.35.117-.391.264-.442,1.566-.856,3.141-1.252,4.72-.1.406.21.631.535.744.478.166.557-.238.647-.55.406-1.4.8-2.811,1.193-4.217C-861.012,582.978-861.1,582.6-861.89,582.533Zm-16.8,17.551a.649.649,0,0,0-.524-.776c-.422-.1-.631.114-.737.491-.4,1.42-.792,2.842-1.2,4.259a.692.692,0,0,0,.494.928c.449.177.621-.143.719-.482C-879.51,603.034-879.1,601.558-878.686,600.084Zm-54.389,4.893a.388.388,0,0,0,.5-.317q.681-2.361,1.325-4.732c.119-.437-.154-.6-.533-.672-.416-.076-.606.114-.712.508-.383,1.418-.771,2.836-1.2,4.241C-933.883,604.627-933.53,604.812-933.075,604.977Zm36.935-4.877c.01-.4-.083-.688-.517-.775-.315-.064-.579,0-.674.332-.443,1.524-.881,3.05-1.3,4.581-.111.409.185.618.519.761a.448.448,0,0,0,.656-.323C-897,603.155-896.576,601.626-896.14,600.1Zm23.7-33.414c.417,1.464.827,2.93,1.255,4.391.1.326.245.659.7.547a.645.645,0,0,0,.533-.883q-.608-2.2-1.24-4.395c-.1-.328-.236-.655-.691-.559C-872.381,565.893-872.5,566.219-872.44,566.686Zm-95.309,38.329a1.6,1.6,0,0,0,.16-.337c.451-1.629.91-3.256,1.323-4.894.079-.313-.224-.476-.53-.528a.544.544,0,0,0-.653.4q-.643,2.193-1.232,4.4C-968.839,604.654-968.423,604.851-967.749,605.015Zm-.857-34.51c-.127.4-.165.772.312.992.4.187.65.054.763-.344q.645-2.279,1.27-4.564a.662.662,0,0,0-.538-.891c-.63-.163-.6.41-.691.724C-967.892,567.775-968.239,569.143-968.606,570.505Zm43.711,30.04c.264.937.649,2.354,1.072,3.758.1.341.177.82.785.578a.676.676,0,0,0,.428-.943c-.375-1.36-.741-2.723-1.127-4.081-.114-.4-.308-.739-.839-.591C-925.009,599.387-925.049,599.691-924.9,600.545Zm52.573-.137c.313,1.116.68,2.488,1.092,3.846.089.293.008.832.692.622.6-.184.671-.511.529-1.014-.37-1.313-.735-2.627-1.116-3.936-.119-.408-.321-.732-.851-.591C-872.444,599.459-872.388,599.8-872.322,600.408Zm-23.049,10.865a7.946,7.946,0,0,0-.788-3.512c-.21-.346-.49-.675-.958-.461-.545.25-.275.666-.114,1a7.757,7.757,0,0,1,.627,3.31c.013.589-.437,1.643.61,1.606.885-.031.432-1.082.607-1.669A1.723,1.723,0,0,0-895.372,611.274Zm-72.092,1.42a6.276,6.276,0,0,0-.6-4.055C-968.355,610.233-969.292,611.51-967.464,612.694Zm114.224-87.341a5.072,5.072,0,0,0-.413,3.661C-851.821,527.821-852.946,526.544-853.239,525.353ZM-950.575,558.5c-.514,1.535-1.124,2.808.521,4.053A5.9,5.9,0,0,0-950.575,558.5Zm27.239,33.35a7.1,7.1,0,0,0-.387,4.271C-921.967,594.678-922.992,593.385-923.336,591.851Zm52.6.324a5.284,5.284,0,0,0-.529,3.064c0,.281.047.646.373.637a.913.913,0,0,0,.623-.472C-869.7,594.267-870.307,593.307-870.734,592.175Zm-52.583-67.406a7.2,7.2,0,0,0-.437,4.233C-921.957,527.732-922.967,526.436-923.317,524.769Zm-.443,88.041c1.7-1.491.9-2.728.376-4.159A7.323,7.323,0,0,0-923.76,612.81Zm-44.175-20.683c-.384,1.094-.915,1.969-.536,3.025.116.322.328.676.693.677.507,0,.38-.469.392-.771A4.806,4.806,0,0,0-967.935,592.127Zm.482-63.188a5.966,5.966,0,0,0-.454-3.742C-968.913,527.428-968.874,527.825-967.453,528.939Zm113.992,13.184a5.988,5.988,0,0,0-.277,1.167c-.026.758-.33,1.553.185,2.258.034.046.317-.024.427-.112.839-.67.567-1.513.3-2.324C-852.941,542.758-852.769,542.18-853.461,542.123Zm-96.977-.185c-1.063,2.444-1,2.867.493,3.593C-949.952,544.331-949.743,543.165-950.437,541.938Zm79.73-16.855a5.784,5.784,0,0,0-.558,3c.011.26-.092.618.248.731.408.135.643-.2.775-.493C-869.746,527.235-870.282,526.3-870.708,525.083Zm17.454,33.584a5.479,5.479,0,0,0-.566,2.987c.007.278-.009.66.343.657a.936.936,0,0,0,.633-.473C-852.251,560.748-852.872,559.83-853.254,558.667Zm-.384,54.077c1.759-1.283.765-2.512.391-3.709A5.171,5.171,0,0,0-853.638,612.745Zm-17.511,0c1.842-1.3.845-2.513.475-4.058A6.578,6.578,0,0,0-871.148,612.745Zm.461-37.328a5.155,5.155,0,0,0-.577,2.941c.009.26-.1.619.253.729.412.128.626-.215.763-.5C-869.728,577.488-870.3,576.562-870.687,575.417Zm-79.851,16.544c-.3,1.336-.987,2.281-.355,3.36a.981.981,0,0,0,.61.49c.359.016.338-.369.343-.635A5.24,5.24,0,0,0-950.538,591.961Zm27.208-50.118c-.724,1.348-.531,2.513-.5,3.954C-922,544.506-922.86,543.288-923.33,541.843ZM-950.1,579.249c.286-2.315.27-2.429-.5-3.77C-950.893,576.8-951.818,578.038-950.1,579.249Zm26.307-16.69c1.778-1.328.927-2.531.43-3.959A6.913,6.913,0,0,0-923.79,562.559Zm53.07-3.661a4.548,4.548,0,0,0-.542,2.6c.026.3-.15.761.293.845.476.09.666-.367.8-.717C-869.8,560.642-870.369,559.807-870.72,558.9ZM-967.8,542.1c-1.191,1.765-1.118,2.662.394,3.481A6.841,6.841,0,0,0-967.8,542.1Zm26.993,49.869a5.674,5.674,0,0,0-.516,3.12c.009.253-.119.622.244.723.411.114.607-.232.744-.529C-939.8,594.114-940.455,593.135-940.809,591.964Zm95.359-33.054c-.254,1.149-1.281,2.438.442,3.63A4.7,4.7,0,0,0-845.45,558.91Zm-122.5,16.484a4.989,4.989,0,0,0-.585,2.858c.076.381.321.825.746.825.617,0,.392-.568.407-.908A5,5,0,0,0-967.946,575.394Zm70.016-50.377c-.248,1.33-.953,2.251-.318,3.337a.97.97,0,0,0,.612.483c.382.014.314-.383.314-.638A5.354,5.354,0,0,0-897.929,525.016Zm17.967,54.286c.136-1.417.271-2.569-.489-3.588C-880.672,576.882-881.826,578.138-879.963,579.3Zm-60.811-37.589a6.089,6.089,0,0,0-.354,4.023C-939.435,544.529-940.389,543.309-940.774,541.714Zm.009,33.63a5.337,5.337,0,0,0-.56,3.079c0,.258-.035.647.334.629a.94.94,0,0,0,.62-.472C-939.8,577.506-940.4,576.576-940.765,575.345Zm43.32-29.541c.235-2.394.235-2.394-.516-3.749C-898.237,543.359-899.2,544.6-897.444,545.8Zm-.511,12.7c-.283,1.634-1.207,2.9.553,4.053A6.525,6.525,0,0,0-897.956,558.5Zm52.475,50.06c-.374,1.683-1.219,2.959.469,4.107A6.392,6.392,0,0,0-845.481,608.56Zm-52.4-16.383a5.491,5.491,0,0,0-.565,2.6c-.022.47.209,1.037.68,1.06.74.036.416-.661.434-1.032A3.665,3.665,0,0,0-897.877,592.177Zm-25.888-12.85c1.73-1.355.874-2.556.4-3.987A6.76,6.76,0,0,0-923.764,579.327Zm43.649,16.693a4.954,4.954,0,0,0-.306-3.969C-880.731,593.526-881.783,594.757-880.115,596.021Zm-52.565-33.508c.385-2,.332-2.529-.35-3.766C-933.438,560.017-934.06,561.2-932.68,562.513Zm61.979-20.546a4.906,4.906,0,0,0-.565,2.906c.008.26-.063.631.3.69.395.064.609-.263.729-.577C-869.836,543.947-870.293,543.052-870.7,541.967Zm25.344,50.107a4.59,4.59,0,0,0-.584,3.121c.074.3.291.65.7.6.375-.05.308-.42.311-.665A5.972,5.972,0,0,0-845.357,592.074Zm-95.419-33.562a6.911,6.911,0,0,0-.442,4.018C-939.448,561.3-940.4,560.084-940.776,558.512Zm77.864,17.18c-.309,1.212-1.256,2.5.4,3.654A4.887,4.887,0,0,0-862.912,575.692Zm-17.442-16.832c-1.044,2.239-.977,2.775.427,3.43A5.331,5.331,0,0,0-880.354,558.86Zm-52.6,33.2c-.419,1.413-1.152,2.658.333,4.109C-932.38,594.572-932.243,593.378-932.956,592.063Zm27.219-.031a6.456,6.456,0,0,0-.464,3.049c.01.3-.093.755.4.76.384,0,.575-.343.643-.678A5.329,5.329,0,0,0-905.737,592.033Zm42.892.339c-.345,1.2-1.416,2.509.425,3.794C-862.365,594.748-862.185,593.561-862.845,592.372Zm-.15-33.777c-.3,1.527-1.088,2.769.569,4.112C-862.379,561.223-862.146,560.027-862.995,558.6Zm-69.979,16.768c-.421,1.409-1.182,2.654.4,3.962C-932.4,577.849-932.242,576.662-932.974,575.363Zm44.329-12.6c1.5-1.514.892-2.722.428-4.056C-888.966,559.913-888.771,561.088-888.644,562.762Zm.062,33.472c1.489-1.5.744-2.7.384-4.363A6.942,6.942,0,0,0-888.582,596.234Zm8.25-54.183c-1.023,2.013-.942,2.8.374,3.5A5.387,5.387,0,0,0-880.333,542.051Zm-52.593,66.717c-.992,2.361-.929,2.908.477,3.663C-932.458,611.172-932.245,609.95-932.925,608.768Zm44.293-79.9c1.257-.936,1.319-1.888.268-3.515A5.8,5.8,0,0,0-888.633,528.872Zm-87.455,67.295c1.474-1.489.713-2.644.3-3.8A5.481,5.481,0,0,0-976.087,596.166Zm87.812-54.452a6.141,6.141,0,0,0-.222,4.078C-887.107,544.5-887.772,543.316-888.275,541.714Zm-87.471,17.169a4.773,4.773,0,0,0-.346,3.638C-974.579,561.271-975.373,560.06-975.746,558.883Zm-.45,53.821c1.627-1.307.959-2.5.372-4.048A8.6,8.6,0,0,0-976.2,612.7Zm70.461-4.044a7.1,7.1,0,0,0-.3,4.09C-904.526,611.451-905.207,610.223-905.735,608.659Zm.112-33.407a6.052,6.052,0,0,0-.416,4.043C-904.449,578.081-905.279,576.835-905.623,575.252Zm-.011-33.488c-.719,1.953-.728,2.59-.161,3.883C-904.45,544.486-905.363,543.28-905.634,541.763Zm-.038,17.029a4.335,4.335,0,0,0-.532,2.813c-.007.256-.052.616.3.69.421.088.619-.264.7-.578A4.032,4.032,0,0,0-905.672,558.792Zm17.483,16.514a5.633,5.633,0,0,0-.349,4.088C-887.108,578.015-887.806,576.815-888.188,575.306Zm-70.059-16.876a6.273,6.273,0,0,0-.432,4.085C-957.152,561.223-957.889,560.029-958.247,558.43Zm42.7-16.794c-.418,1.668-1.075,2.9.495,4.231A7.807,7.807,0,0,0-915.548,541.637Zm52.665-16.712c-.407,1.613-1.279,2.861.367,4.043A6.78,6.78,0,0,0-862.884,524.925Zm-95.833,87.749c1.619-1.239.849-2.444.38-3.625A5.661,5.661,0,0,0-958.716,612.674Zm113.675-83.626c.15-1.459.324-2.644-.48-4.007C-845.833,526.519-846.644,527.736-845.041,529.048Zm-70.476,79.488c-.393,1.64-1.28,2.9.4,4.03A6.7,6.7,0,0,0-915.517,608.535Zm9.817-83.151a5.3,5.3,0,0,0-.336,3.664C-904.493,527.754-905.286,526.551-905.7,525.384ZM-915.091,529c.119-1.437.36-2.618-.5-3.884C-915.951,526.51-916.689,527.708-915.091,529Zm-43.592-.017c1.583-1.245.8-2.442.379-3.611A5.151,5.151,0,0,0-958.683,528.98Zm-17.056-4.111a6.974,6.974,0,0,0-.39,4.164C-974.608,527.728-975.313,526.538-975.739,524.869Zm8.022,37.57v-3.531l-.416.025C-968.226,560.08-969.34,561.27-967.717,562.439Zm52.535,16.777c.34-2.011.281-2.482-.457-3.74C-915.894,576.767-916.728,577.975-915.182,579.216Zm-60.969-33.54c1.726-1.144.718-2.411.469-3.86A5.639,5.639,0,0,0-976.151,545.676Zm130.71-3.53c-.231,1.161-1.281,2.447.478,3.664C-844.916,544.354-844.778,543.211-845.441,542.146Zm-53.33,63.4c-.456-.02-.85.221-.722.539.336.833,1.22,1.052,1.964,1.366.3.125.752-.092.62-.5C-897.2,606.054-898.029,605.793-898.771,605.549Z" transform="translate(981.089 -503.437)" fill="#8f2b58"/></svg>