<svg xmlns="http://www.w3.org/2000/svg" width="61.817" height="61.817" viewBox="0 0 61.817 61.817"><rect width="61.817" height="61.817" transform="translate(0 0)" fill="none"/><g transform="translate(5.89 5.884)"><path d="M53.545,17l-5.688-3.16-1.452-1.452a2.5,2.5,0,0,0-2.622-.573l-.311-1.245a2.5,2.5,0,0,0-2.427-1.894h-.366V6.848a2.5,2.5,0,1,0-1.668,0V8.669h-.366a2.5,2.5,0,0,0-2.427,1.9l-.311,1.244a2.5,2.5,0,0,0-2.622.573l-1.452,1.452L26.145,17A4.171,4.171,0,0,0,24,20.64v3.875h1.668V20.64a2.5,2.5,0,0,1,1.287-2.186l5.028-2.794,7.028,14.056V46.2H31.506v1.668h5.838v4.17h1.668v-4.17h1.668v4.17h1.668v-4.17h5.838a2.5,2.5,0,0,0,2.5-2.5V43.7h2.5a2.5,2.5,0,0,0,2.5-2.5V20.64A4.172,4.172,0,0,0,53.545,17ZM39.845,3.666a.834.834,0,1,1-.834.834.834.834,0,0,1,.834-.834Zm0,23.987L34.869,17.7l1.267,1.056a1.677,1.677,0,0,0,1.07.386,1.523,1.523,0,0,0,.192-.011,1.672,1.672,0,0,0,1.139-.656l1.308-1.744,1.308,1.744a1.673,1.673,0,0,0,1.14.656,1.523,1.523,0,0,0,.192.011,1.678,1.678,0,0,0,1.07-.386L44.821,17.7Zm5.381-14.092.889.889-3.628,3.024-1.446-1.929,3.132-2.089a.837.837,0,0,1,1.053.1Zm-6.58-3.224h2.4a.833.833,0,0,1,.809.631l.435,1.741-2.444,1.629L37.4,12.709l.435-1.74a.833.833,0,0,1,.809-.632Zm-4.181,3.224a.838.838,0,0,1,1.053-.1l3.132,2.089L37.2,17.474l-3.628-3.023ZM54.022,41.193a.835.835,0,0,1-.834.834h-2.5V40.359h3.336Zm-3.336-2.5V22.847H49.018V45.363a.835.835,0,0,1-.834.834H40.679V29.715l7.028-14.056,5.028,2.794a2.5,2.5,0,0,1,1.287,2.187V38.692Z" transform="translate(-5.653 -1.987)" fill="#bf3976"/><path d="M4.5,56.852H23.683a2.5,2.5,0,0,0,2.5-2.5V52.683a2.5,2.5,0,0,0-2.5-2.5H13.675V42.675H17.1a4.182,4.182,0,0,0,3.252,3.252v2.586h1.668V45.927a4.177,4.177,0,0,0,3.336-4.085V34.336a2.5,2.5,0,0,0-2.5-2.5H19.513a2.5,2.5,0,0,0-2.5,2.5h-5V31H10.339v3.336H7V31H5.336v3.336H4.5a2.5,2.5,0,0,0-2.5,2.5v3.336a2.5,2.5,0,0,0,2.5,2.5v7.506a2.5,2.5,0,0,0-2.5,2.5v1.668a2.5,2.5,0,0,0,2.5,2.5ZM19.513,33.5h3.336a.835.835,0,0,1,.834.834v7.506a2.5,2.5,0,1,1-5,0V34.336a.835.835,0,0,1,.834-.834ZM3.668,40.173V36.838A.835.835,0,0,1,4.5,36H17.011v5H4.5a.835.835,0,0,1-.834-.834Zm2.5,2.5h5.838v7.506H6.17Zm-2.5,10.007a.835.835,0,0,1,.834-.834H23.683a.835.835,0,0,1,.834.834v1.668a.835.835,0,0,1-.834.834H4.5a.835.835,0,0,1-.834-.834Z" transform="translate(-2 -6.804)" fill="#bf3976"/></g></svg>